<svg xmlns="http://www.w3.org/2000/svg" xmlns:xlink="http://www.w3.org/1999/xlink" width="500" zoomAndPan="magnify" viewBox="0 0 375 374.999991" height="500" preserveAspectRatio="xMidYMid meet" version="1.0"><defs><clipPath id="8e77b8171f"><path d="M 55.511719 61.285156 L 319.511719 61.285156 L 319.511719 314 L 55.511719 314 Z M 55.511719 61.285156 " clip-rule="nonzero"/></clipPath></defs><rect x="-37.5" width="450" fill="#ffffff" y="-37.499999" height="449.999989" fill-opacity="1"/><rect x="-37.5" width="450" fill="#ffffff" y="-37.499999" height="449.999989" fill-opacity="1"/><g clip-path="url(#8e77b8171f)"><path fill="#606090" d="M 221.5625 188.207031 C 218.898438 189.074219 216.0625 187.910156 214.722656 185.570312 L 199.984375 190.359375 C 200.179688 191.242188 200.285156 192.160156 200.285156 193.097656 C 200.285156 196.910156 198.597656 200.332031 195.933594 202.667969 L 205.054688 215.21875 C 207.511719 214.113281 210.492188 214.835938 212.136719 217.105469 C 214.023438 219.699219 213.449219 223.332031 210.851562 225.21875 C 208.253906 227.105469 204.621094 226.53125 202.734375 223.933594 C 201.085938 221.667969 201.316406 218.609375 203.128906 216.617188 L 194.007812 204.0625 C 192.117188 205.175781 189.914062 205.820312 187.5625 205.820312 C 185.191406 205.820312 182.964844 205.164062 181.0625 204.03125 L 171.945312 216.578125 C 173.757812 218.574219 173.984375 221.632812 172.339844 223.898438 C 170.453125 226.496094 166.820312 227.070312 164.222656 225.183594 C 161.625 223.300781 161.050781 219.664062 162.9375 217.066406 C 164.585938 214.800781 167.5625 214.074219 170.019531 215.183594 L 179.144531 202.625 C 176.507812 200.292969 174.839844 196.886719 174.839844 193.097656 C 174.839844 192.136719 174.949219 191.203125 175.15625 190.300781 L 160.417969 185.511719 C 159.078125 187.851562 156.242188 189.015625 153.578125 188.148438 C 150.527344 187.15625 148.855469 183.882812 149.847656 180.828125 C 150.839844 177.777344 154.117188 176.105469 157.167969 177.097656 C 159.832031 177.960938 161.445312 180.574219 161.152344 183.25 L 175.894531 188.042969 C 177.707031 183.875 181.6875 180.859375 186.402344 180.433594 L 186.402344 164.949219 C 183.761719 164.398438 181.78125 162.0625 181.78125 159.257812 C 181.78125 156.050781 184.382812 153.449219 187.589844 153.449219 C 190.800781 153.449219 193.402344 156.050781 193.402344 159.257812 C 193.402344 162.0625 191.417969 164.398438 188.78125 164.949219 L 188.78125 180.4375 C 193.492188 180.886719 197.460938 183.917969 199.257812 188.09375 L 213.988281 183.308594 C 213.695312 180.628906 215.304688 178.019531 217.972656 177.152344 C 221.023438 176.164062 224.300781 177.832031 225.292969 180.886719 C 226.285156 183.9375 224.617188 187.214844 221.5625 188.207031 Z M 318.695312 170.757812 C 318.273438 169.214844 317.640625 167.734375 316.816406 166.367188 C 316.488281 165.820312 316.128906 165.292969 315.742188 164.785156 C 314.96875 163.769531 314.074219 162.835938 313.082031 162.007812 C 312.585938 161.589844 312.066406 161.203125 311.519531 160.84375 C 309.605469 159.589844 307.402344 158.691406 304.964844 158.269531 L 302.597656 157.867188 C 302.175781 157.792969 301.820312 157.609375 301.539062 157.355469 C 301.394531 157.230469 301.277344 157.085938 301.175781 156.929688 C 301.074219 156.773438 300.996094 156.605469 300.9375 156.429688 C 300.878906 156.253906 300.847656 156.070312 300.835938 155.882812 C 300.8125 155.511719 300.886719 155.132812 301.074219 154.785156 C 301.167969 154.609375 301.285156 154.445312 301.4375 154.289062 L 303.253906 152.421875 C 304.484375 151.160156 305.472656 149.773438 306.234375 148.304688 C 306.992188 146.835938 307.519531 145.292969 307.824219 143.714844 C 307.886719 143.402344 307.941406 143.085938 307.980469 142.769531 C 308.066406 142.132812 308.121094 141.496094 308.136719 140.859375 C 308.15625 139.902344 308.101562 138.949219 307.96875 138.003906 C 307.835938 137.058594 307.625 136.125 307.339844 135.214844 C 307.054688 134.304688 306.691406 133.414062 306.25 132.554688 C 305.960938 131.980469 305.636719 131.425781 305.277344 130.886719 C 304.566406 129.804688 303.722656 128.792969 302.746094 127.878906 C 301.777344 126.960938 300.675781 126.140625 299.457031 125.441406 C 299.054688 125.214844 298.648438 124.988281 298.238281 124.773438 C 298.105469 124.699219 297.964844 124.632812 297.832031 124.566406 C 297.554688 124.421875 297.273438 124.277344 296.988281 124.140625 C 296.824219 124.058594 296.65625 123.980469 296.492188 123.902344 C 296.234375 123.78125 295.972656 123.660156 295.710938 123.539062 C 295.53125 123.460938 295.351562 123.382812 295.167969 123.304688 C 294.914062 123.195312 294.65625 123.085938 294.398438 122.980469 C 294.210938 122.902344 294.019531 122.828125 293.832031 122.753906 C 293.574219 122.652344 293.3125 122.554688 293.046875 122.457031 C 292.859375 122.386719 292.667969 122.316406 292.476562 122.246094 C 292.207031 122.152344 291.9375 122.058594 291.664062 121.96875 C 291.472656 121.902344 291.285156 121.839844 291.09375 121.777344 C 290.800781 121.6875 290.507812 121.597656 290.214844 121.511719 C 290.039062 121.457031 289.863281 121.402344 289.683594 121.351562 C 289.324219 121.25 288.957031 121.152344 288.589844 121.058594 C 288.476562 121.027344 288.363281 120.996094 288.246094 120.964844 C 287.769531 120.84375 287.285156 120.730469 286.796875 120.625 C 286.636719 120.589844 286.476562 120.558594 286.320312 120.527344 C 285.980469 120.457031 285.644531 120.386719 285.300781 120.324219 C 285.101562 120.285156 284.902344 120.253906 284.703125 120.21875 C 284.394531 120.164062 284.089844 120.109375 283.777344 120.0625 C 283.5625 120.027344 283.347656 120 283.128906 119.96875 C 282.828125 119.921875 282.527344 119.882812 282.21875 119.84375 C 282 119.816406 281.773438 119.789062 281.546875 119.765625 C 281.242188 119.730469 280.941406 119.699219 280.632812 119.667969 C 280.40625 119.644531 280.175781 119.625 279.949219 119.605469 C 279.632812 119.582031 279.320312 119.558594 279 119.539062 C 278.777344 119.523438 278.554688 119.507812 278.332031 119.496094 C 277.988281 119.476562 277.648438 119.464844 277.304688 119.449219 C 277.097656 119.441406 276.894531 119.433594 276.683594 119.425781 C 276.28125 119.417969 275.875 119.410156 275.46875 119.410156 C 275.3125 119.410156 275.160156 119.402344 275.007812 119.40625 C 274.867188 119.40625 274.726562 119.40625 274.585938 119.410156 C 274.222656 119.410156 273.863281 119.414062 273.496094 119.425781 C 273.308594 119.429688 273.113281 119.4375 272.921875 119.445312 C 272.605469 119.457031 272.289062 119.464844 271.96875 119.480469 C 271.757812 119.492188 271.542969 119.503906 271.332031 119.519531 C 271.027344 119.535156 270.71875 119.554688 270.414062 119.578125 C 270.191406 119.59375 269.972656 119.609375 269.75 119.628906 C 269.441406 119.652344 269.132812 119.679688 268.824219 119.710938 C 268.605469 119.730469 268.382812 119.75 268.164062 119.773438 C 267.839844 119.808594 267.515625 119.84375 267.1875 119.882812 C 266.980469 119.910156 266.769531 119.933594 266.558594 119.960938 C 266.191406 120.003906 265.824219 120.058594 265.453125 120.109375 C 265.28125 120.132812 265.109375 120.15625 264.9375 120.183594 C 264.398438 120.261719 263.855469 120.351562 263.308594 120.441406 C 263.183594 120.460938 263.058594 120.488281 262.933594 120.511719 C 262.507812 120.585938 262.078125 120.660156 261.648438 120.742188 C 261.4375 120.785156 261.230469 120.828125 261.023438 120.871094 C 260.667969 120.941406 260.316406 121.011719 259.960938 121.085938 C 259.730469 121.136719 259.5 121.1875 259.269531 121.238281 C 258.929688 121.316406 258.589844 121.390625 258.246094 121.472656 C 258.007812 121.527344 257.769531 121.585938 257.53125 121.640625 C 257.191406 121.726562 256.847656 121.8125 256.503906 121.898438 C 256.265625 121.960938 256.027344 122.019531 255.785156 122.085938 C 255.433594 122.179688 255.074219 122.273438 254.71875 122.375 C 254.492188 122.4375 254.261719 122.5 254.03125 122.566406 C 253.636719 122.679688 253.238281 122.796875 252.839844 122.914062 C 252.648438 122.972656 252.453125 123.027344 252.257812 123.085938 C 251.664062 123.269531 251.070312 123.453125 250.46875 123.648438 C 249.949219 123.820312 249.429688 123.996094 248.914062 124.183594 C 244.78125 125.683594 240.785156 127.769531 236.941406 130.28125 C 236.882812 130.320312 236.824219 130.359375 236.769531 130.394531 C 235.808594 133.570312 234.625 136.808594 233.207031 140.113281 C 233.1875 140.160156 233.167969 140.207031 233.148438 140.253906 C 225.636719 157.652344 213.101562 173.71875 203.621094 184.394531 C 202.710938 182.722656 201.546875 181.210938 200.179688 179.90625 C 202.964844 176.742188 206.003906 173.109375 209.089844 169.121094 C 209.75 168.265625 210.410156 167.394531 211.074219 166.511719 C 213.390625 163.410156 215.707031 160.121094 217.925781 156.691406 C 221.734375 150.8125 225.261719 144.519531 228.054688 138.054688 L 228.054688 138.050781 C 228.285156 137.519531 228.503906 136.988281 228.726562 136.457031 C 230.015625 133.308594 231.121094 130.125 232 126.933594 C 232.328125 125.722656 232.628906 124.511719 232.890625 123.304688 C 233.128906 122.207031 233.335938 121.105469 233.511719 120.007812 C 233.949219 117.265625 234.183594 114.527344 234.183594 111.816406 C 234.183594 90.597656 227.738281 75.359375 217.59375 66.007812 C 217.355469 65.789062 217.113281 65.578125 216.867188 65.375 C 216.789062 65.3125 216.710938 65.253906 216.636719 65.191406 C 216.460938 65.050781 216.285156 64.917969 216.109375 64.785156 C 216.019531 64.722656 215.929688 64.65625 215.84375 64.59375 C 215.664062 64.46875 215.484375 64.34375 215.300781 64.226562 C 215.21875 64.175781 215.140625 64.117188 215.058594 64.066406 C 214.808594 63.914062 214.558594 63.761719 214.304688 63.621094 C 214.292969 63.613281 214.277344 63.605469 214.265625 63.597656 C 213.996094 63.445312 213.722656 63.308594 213.445312 63.171875 C 213.367188 63.132812 213.289062 63.101562 213.210938 63.0625 C 213.011719 62.96875 212.8125 62.878906 212.609375 62.796875 C 212.515625 62.757812 212.421875 62.71875 212.328125 62.679688 C 212.128906 62.601562 211.929688 62.527344 211.730469 62.457031 C 211.644531 62.425781 211.558594 62.394531 211.472656 62.363281 C 211.214844 62.277344 210.957031 62.195312 210.699219 62.125 C 210.671875 62.117188 210.644531 62.105469 210.617188 62.097656 C 210.328125 62.015625 210.035156 61.945312 209.746094 61.878906 C 209.667969 61.863281 209.589844 61.847656 209.507812 61.832031 C 209.296875 61.785156 209.082031 61.746094 208.867188 61.707031 C 208.769531 61.691406 208.671875 61.679688 208.574219 61.664062 C 208.371094 61.632812 208.164062 61.605469 207.964844 61.582031 C 207.867188 61.570312 207.773438 61.558594 207.679688 61.550781 C 207.433594 61.527344 207.191406 61.507812 206.945312 61.496094 C 206.894531 61.492188 206.847656 61.488281 206.800781 61.484375 C 206.511719 61.472656 206.222656 61.464844 205.9375 61.46875 C 205.582031 61.46875 205.226562 61.480469 204.875 61.503906 C 204.816406 61.507812 204.753906 61.511719 204.695312 61.519531 C 204.402344 61.539062 204.109375 61.570312 203.816406 61.605469 C 203.699219 61.621094 203.582031 61.640625 203.46875 61.65625 C 203.230469 61.691406 202.992188 61.730469 202.757812 61.777344 C 202.632812 61.796875 202.507812 61.824219 202.382812 61.851562 C 202.152344 61.898438 201.921875 61.957031 201.691406 62.011719 C 201.574219 62.042969 201.453125 62.074219 201.335938 62.105469 C 201.085938 62.175781 200.835938 62.253906 200.589844 62.332031 C 200.5 62.363281 200.40625 62.390625 200.316406 62.421875 C 199.976562 62.539062 199.640625 62.664062 199.3125 62.800781 C 199.28125 62.816406 199.25 62.828125 199.222656 62.84375 C 198.921875 62.96875 198.628906 63.101562 198.339844 63.246094 C 198.238281 63.296875 198.140625 63.347656 198.039062 63.398438 C 197.820312 63.511719 197.601562 63.628906 197.386719 63.753906 C 197.273438 63.816406 197.167969 63.882812 197.058594 63.945312 C 196.851562 64.070312 196.648438 64.199219 196.453125 64.328125 C 196.34375 64.398438 196.238281 64.46875 196.136719 64.539062 C 195.921875 64.6875 195.714844 64.839844 195.507812 64.996094 C 195.425781 65.058594 195.339844 65.121094 195.257812 65.1875 C 194.972656 65.414062 194.691406 65.648438 194.417969 65.894531 C 194.402344 65.90625 194.390625 65.917969 194.375 65.933594 C 194.121094 66.167969 193.871094 66.40625 193.628906 66.65625 C 193.546875 66.742188 193.46875 66.828125 193.386719 66.914062 C 193.210938 67.101562 193.042969 67.289062 192.878906 67.484375 C 192.789062 67.585938 192.703125 67.695312 192.613281 67.800781 C 192.460938 67.988281 192.3125 68.179688 192.167969 68.375 C 192.082031 68.488281 192 68.601562 191.917969 68.714844 C 191.769531 68.925781 191.625 69.144531 191.484375 69.367188 C 191.414062 69.46875 191.347656 69.570312 191.285156 69.675781 C 191.082031 70.003906 190.886719 70.335938 190.703125 70.6875 L 189.585938 72.8125 C 189.515625 72.945312 189.429688 73.0625 189.339844 73.175781 C 189.253906 73.28125 189.160156 73.378906 189.054688 73.464844 C 188.96875 73.535156 188.878906 73.601562 188.785156 73.65625 C 188.78125 73.660156 188.777344 73.660156 188.777344 73.660156 C 188.613281 73.757812 188.441406 73.828125 188.261719 73.875 C 188.261719 73.875 188.257812 73.875 188.257812 73.875 C 188.195312 73.890625 188.132812 73.902344 188.066406 73.914062 C 188.039062 73.917969 188.011719 73.925781 187.984375 73.929688 C 187.9375 73.933594 187.890625 73.933594 187.839844 73.9375 C 187.796875 73.941406 187.75 73.945312 187.707031 73.945312 C 187.664062 73.945312 187.617188 73.941406 187.574219 73.9375 C 187.527344 73.933594 187.476562 73.933594 187.429688 73.929688 C 187.34375 73.917969 187.261719 73.902344 187.175781 73.878906 C 187.171875 73.878906 187.164062 73.878906 187.15625 73.875 C 187.109375 73.863281 187.070312 73.84375 187.023438 73.832031 C 186.890625 73.785156 186.761719 73.734375 186.640625 73.660156 C 186.636719 73.660156 186.636719 73.660156 186.632812 73.65625 C 186.308594 73.46875 186.023438 73.1875 185.828125 72.8125 L 184.613281 70.503906 C 184.429688 70.15625 184.234375 69.824219 184.035156 69.496094 C 183.96875 69.390625 183.902344 69.289062 183.835938 69.183594 C 183.695312 68.964844 183.550781 68.75 183.402344 68.539062 C 183.320312 68.421875 183.234375 68.308594 183.152344 68.195312 C 183.007812 68.003906 182.859375 67.8125 182.707031 67.628906 C 182.621094 67.519531 182.53125 67.410156 182.441406 67.304688 C 182.277344 67.113281 182.113281 66.929688 181.945312 66.75 C 181.859375 66.660156 181.777344 66.566406 181.691406 66.480469 C 181.453125 66.234375 181.207031 65.996094 180.957031 65.769531 C 180.9375 65.75 180.921875 65.734375 180.902344 65.71875 C 180.636719 65.476562 180.359375 65.246094 180.078125 65.023438 C 179.984375 64.949219 179.886719 64.878906 179.792969 64.804688 C 179.597656 64.660156 179.402344 64.515625 179.207031 64.378906 C 179.09375 64.300781 178.976562 64.222656 178.863281 64.148438 C 178.675781 64.027344 178.484375 63.90625 178.289062 63.789062 C 178.175781 63.71875 178.054688 63.648438 177.933594 63.578125 C 177.730469 63.460938 177.523438 63.351562 177.316406 63.242188 C 177.207031 63.1875 177.101562 63.128906 176.988281 63.074219 C 176.703125 62.9375 176.414062 62.804688 176.121094 62.679688 C 176.089844 62.664062 176.054688 62.648438 176.023438 62.632812 C 175.695312 62.5 175.367188 62.375 175.035156 62.261719 C 174.929688 62.226562 174.816406 62.191406 174.707031 62.15625 C 174.480469 62.082031 174.25 62.011719 174.019531 61.945312 C 173.890625 61.910156 173.761719 61.875 173.632812 61.84375 C 173.414062 61.789062 173.195312 61.738281 172.976562 61.691406 C 172.84375 61.664062 172.710938 61.636719 172.582031 61.609375 C 172.347656 61.566406 172.117188 61.527344 171.882812 61.496094 C 171.765625 61.476562 171.648438 61.457031 171.53125 61.441406 C 171.21875 61.402344 170.898438 61.371094 170.585938 61.347656 C 170.546875 61.347656 170.515625 61.339844 170.476562 61.339844 C 170.125 61.316406 169.773438 61.304688 169.417969 61.304688 C 169.132812 61.304688 168.847656 61.308594 168.5625 61.320312 C 168.539062 61.320312 168.511719 61.324219 168.484375 61.324219 C 168.21875 61.335938 167.953125 61.359375 167.691406 61.382812 C 167.59375 61.394531 167.5 61.40625 167.40625 61.417969 C 167.207031 61.4375 167.007812 61.464844 166.804688 61.492188 C 166.703125 61.507812 166.601562 61.523438 166.496094 61.542969 C 166.296875 61.574219 166.09375 61.613281 165.894531 61.65625 C 165.800781 61.671875 165.710938 61.6875 165.621094 61.710938 C 165.332031 61.773438 165.046875 61.84375 164.765625 61.921875 C 164.738281 61.929688 164.714844 61.9375 164.6875 61.945312 C 164.429688 62.015625 164.171875 62.097656 163.914062 62.183594 C 163.820312 62.214844 163.726562 62.246094 163.632812 62.28125 C 163.441406 62.347656 163.25 62.417969 163.0625 62.492188 C 162.960938 62.53125 162.863281 62.574219 162.761719 62.613281 C 162.570312 62.691406 162.378906 62.777344 162.191406 62.863281 C 162.101562 62.90625 162.015625 62.945312 161.925781 62.984375 C 161.65625 63.117188 161.386719 63.253906 161.117188 63.398438 C 161.101562 63.40625 161.085938 63.417969 161.070312 63.425781 C 160.820312 63.566406 160.570312 63.710938 160.324219 63.863281 C 160.242188 63.917969 160.15625 63.972656 160.074219 64.027344 C 159.894531 64.140625 159.714844 64.257812 159.539062 64.382812 C 159.449219 64.445312 159.359375 64.507812 159.269531 64.574219 C 159.09375 64.703125 158.917969 64.835938 158.742188 64.972656 C 158.664062 65.03125 158.585938 65.09375 158.507812 65.15625 C 158.261719 65.355469 158.019531 65.5625 157.78125 65.777344 C 157.78125 65.777344 157.78125 65.777344 157.78125 65.78125 C 147.488281 75.109375 140.9375 90.421875 140.9375 111.816406 C 140.9375 115.097656 141.28125 118.417969 141.914062 121.742188 C 142.015625 122.296875 142.128906 122.851562 142.25 123.40625 C 142.851562 126.179688 143.648438 128.949219 144.597656 131.703125 C 145.359375 133.910156 146.222656 136.101562 147.164062 138.273438 L 147.164062 138.28125 C 154.234375 154.542969 165.945312 169.679688 174.941406 179.90625 C 173.578125 181.210938 172.410156 182.726562 171.503906 184.394531 C 162.042969 173.738281 149.589844 157.78125 142.078125 140.492188 C 142.058594 140.445312 142.039062 140.398438 142.019531 140.351562 C 140.554688 136.96875 139.332031 133.648438 138.351562 130.398438 C 137.964844 130.140625 137.574219 129.894531 137.183594 129.648438 C 136.519531 129.230469 135.851562 128.820312 135.175781 128.425781 C 133.71875 127.578125 132.242188 126.792969 130.742188 126.085938 C 128.746094 125.136719 126.714844 124.320312 124.648438 123.648438 C 124.050781 123.453125 123.457031 123.265625 122.867188 123.085938 C 122.675781 123.027344 122.484375 122.976562 122.296875 122.917969 C 121.898438 122.796875 121.496094 122.679688 121.101562 122.566406 C 120.875 122.503906 120.65625 122.441406 120.433594 122.382812 C 120.070312 122.28125 119.707031 122.179688 119.34375 122.085938 C 119.117188 122.023438 118.886719 121.96875 118.660156 121.90625 C 118.308594 121.816406 117.957031 121.730469 117.609375 121.644531 C 117.378906 121.589844 117.148438 121.535156 116.921875 121.480469 C 116.570312 121.398438 116.222656 121.320312 115.875 121.242188 C 115.65625 121.191406 115.4375 121.144531 115.21875 121.097656 C 114.851562 121.019531 114.488281 120.945312 114.128906 120.875 C 113.929688 120.832031 113.734375 120.792969 113.539062 120.753906 C 113.125 120.675781 112.714844 120.601562 112.304688 120.53125 C 112.164062 120.503906 112.023438 120.476562 111.878906 120.453125 C 111.324219 120.355469 110.769531 120.269531 110.222656 120.183594 C 110.21875 120.183594 110.214844 120.183594 110.214844 120.183594 C 109.675781 120.101562 109.140625 120.027344 108.605469 119.960938 C 108.445312 119.941406 108.289062 119.921875 108.132812 119.90625 C 107.757812 119.859375 107.378906 119.816406 107.007812 119.777344 C 106.816406 119.757812 106.628906 119.738281 106.441406 119.722656 C 106.101562 119.6875 105.765625 119.65625 105.429688 119.628906 C 105.226562 119.613281 105.027344 119.597656 104.828125 119.582031 C 104.503906 119.558594 104.1875 119.539062 103.867188 119.519531 C 103.664062 119.507812 103.460938 119.496094 103.257812 119.484375 C 102.941406 119.46875 102.628906 119.457031 102.316406 119.445312 C 102.117188 119.4375 101.917969 119.429688 101.71875 119.425781 C 101.402344 119.417969 101.085938 119.410156 100.769531 119.410156 C 100.582031 119.40625 100.394531 119.402344 100.210938 119.402344 C 99.992188 119.402344 99.777344 119.40625 99.5625 119.40625 C 99.214844 119.410156 98.871094 119.414062 98.527344 119.421875 C 98.308594 119.429688 98.089844 119.4375 97.875 119.445312 C 97.546875 119.457031 97.21875 119.46875 96.890625 119.484375 C 96.671875 119.496094 96.453125 119.511719 96.234375 119.527344 C 95.914062 119.546875 95.59375 119.570312 95.277344 119.59375 C 95.0625 119.613281 94.847656 119.632812 94.636719 119.648438 C 94.3125 119.679688 93.996094 119.714844 93.675781 119.75 C 93.472656 119.773438 93.269531 119.792969 93.066406 119.820312 C 92.738281 119.859375 92.410156 119.90625 92.082031 119.949219 C 91.898438 119.976562 91.710938 120 91.53125 120.027344 C 91.167969 120.085938 90.8125 120.144531 90.457031 120.207031 C 90.3125 120.230469 90.164062 120.253906 90.019531 120.277344 C 89.015625 120.460938 88.03125 120.675781 87.066406 120.910156 C 86.945312 120.941406 86.828125 120.976562 86.707031 121.007812 C 86.347656 121.097656 85.992188 121.191406 85.640625 121.289062 C 85.476562 121.335938 85.3125 121.382812 85.152344 121.433594 C 84.847656 121.519531 84.542969 121.613281 84.242188 121.707031 C 84.066406 121.761719 83.890625 121.820312 83.710938 121.878906 C 83.429688 121.96875 83.148438 122.0625 82.875 122.160156 C 82.691406 122.222656 82.511719 122.289062 82.332031 122.351562 C 82.0625 122.453125 81.792969 122.550781 81.527344 122.65625 C 81.347656 122.722656 81.167969 122.796875 80.988281 122.867188 C 80.726562 122.972656 80.464844 123.082031 80.203125 123.191406 C 80.027344 123.265625 79.855469 123.335938 79.683594 123.414062 C 79.417969 123.53125 79.15625 123.652344 78.894531 123.773438 C 78.734375 123.847656 78.570312 123.921875 78.410156 123.996094 C 78.125 124.132812 77.84375 124.273438 77.566406 124.414062 C 77.433594 124.484375 77.296875 124.546875 77.167969 124.613281 C 76.757812 124.828125 76.355469 125.046875 75.957031 125.269531 C 75.035156 125.789062 74.179688 126.375 73.398438 127.023438 C 72.617188 127.667969 71.902344 128.371094 71.265625 129.125 C 70.839844 129.625 70.449219 130.148438 70.089844 130.6875 C 69.730469 131.226562 69.402344 131.785156 69.109375 132.355469 C 68.960938 132.644531 68.824219 132.933594 68.691406 133.226562 C 68.433594 133.8125 68.207031 134.414062 68.015625 135.023438 C 67.820312 135.632812 67.664062 136.25 67.535156 136.875 C 67.410156 137.5 67.320312 138.132812 67.265625 138.769531 C 67.238281 139.085938 67.21875 139.40625 67.210938 139.722656 C 67.171875 141 67.269531 142.285156 67.515625 143.550781 C 67.636719 144.183594 67.792969 144.808594 67.988281 145.429688 C 68.28125 146.359375 68.65625 147.273438 69.109375 148.15625 C 69.871094 149.628906 70.867188 151.023438 72.097656 152.289062 L 73.773438 154.007812 C 74.070312 154.3125 74.253906 154.671875 74.332031 155.042969 C 74.371094 155.226562 74.386719 155.414062 74.375 155.601562 C 74.351562 155.972656 74.238281 156.335938 74.035156 156.648438 C 73.734375 157.117188 73.246094 157.472656 72.613281 157.582031 L 70.042969 158.023438 C 67.613281 158.441406 65.414062 159.335938 63.507812 160.589844 C 63.238281 160.765625 62.972656 160.953125 62.710938 161.144531 C 62.191406 161.53125 61.695312 161.945312 61.226562 162.382812 C 60.757812 162.820312 60.3125 163.28125 59.898438 163.765625 C 59.070312 164.734375 58.351562 165.796875 57.753906 166.917969 C 57.457031 167.480469 57.1875 168.058594 56.953125 168.648438 C 56.71875 169.238281 56.515625 169.84375 56.34375 170.460938 C 56.007812 171.691406 55.800781 172.964844 55.746094 174.257812 C 55.730469 174.582031 55.726562 174.90625 55.730469 175.234375 C 55.757812 177.511719 56.246094 179.835938 57.257812 182.085938 C 59.746094 187.628906 63.550781 192.84375 68.742188 197.511719 C 70.597656 199.179688 72.628906 200.777344 74.839844 202.292969 C 75.726562 202.902344 76.640625 203.496094 77.582031 204.074219 C 82.773438 207.269531 88.84375 210.058594 95.835938 212.332031 C 96.484375 212.539062 97.140625 212.730469 97.800781 212.914062 C 97.988281 212.96875 98.175781 213.019531 98.363281 213.066406 C 98.890625 213.207031 99.417969 213.339844 99.949219 213.460938 C 100.105469 213.5 100.257812 213.535156 100.414062 213.570312 C 101.082031 213.71875 101.757812 213.859375 102.433594 213.980469 C 102.585938 214.007812 102.734375 214.03125 102.886719 214.058594 C 103.433594 214.152344 103.988281 214.242188 104.542969 214.320312 C 104.742188 214.351562 104.9375 214.382812 105.136719 214.410156 C 105.789062 214.496094 106.4375 214.574219 107.09375 214.644531 C 107.140625 214.648438 107.1875 214.65625 107.234375 214.660156 C 107.9375 214.730469 108.640625 214.785156 109.351562 214.835938 C 109.546875 214.847656 109.746094 214.859375 109.945312 214.871094 C 110.503906 214.90625 111.0625 214.933594 111.625 214.949219 C 111.800781 214.957031 111.976562 214.964844 112.152344 214.972656 C 112.863281 214.992188 113.578125 215.003906 114.296875 215.003906 C 114.476562 215.003906 114.65625 215.003906 114.839844 215 C 115.308594 215 115.777344 214.992188 116.25 214.984375 C 116.484375 214.976562 116.71875 214.96875 116.957031 214.960938 C 117.386719 214.949219 117.816406 214.933594 118.246094 214.914062 C 118.488281 214.902344 118.726562 214.890625 118.964844 214.878906 C 119.417969 214.855469 119.871094 214.824219 120.324219 214.792969 C 120.535156 214.777344 120.742188 214.765625 120.949219 214.75 C 121.609375 214.699219 122.265625 214.644531 122.925781 214.582031 L 122.929688 214.585938 C 123.515625 214.527344 124.097656 214.464844 124.6875 214.398438 C 127.613281 214.066406 130.542969 213.609375 133.453125 213.054688 C 134.617188 212.828125 135.777344 212.59375 136.933594 212.339844 C 143.285156 210.949219 149.480469 209.132812 155.234375 207.167969 C 155.757812 206.988281 156.277344 206.808594 156.792969 206.628906 C 159.371094 205.726562 161.851562 204.796875 164.207031 203.875 C 164.679688 203.6875 165.144531 203.503906 165.605469 203.316406 C 167.535156 202.542969 169.371094 201.777344 171.105469 201.03125 C 171.9375 202.746094 173.03125 204.3125 174.332031 205.679688 C 161.273438 211.382812 142.238281 218.300781 123.460938 220.105469 C 123.410156 220.109375 123.363281 220.117188 123.308594 220.121094 C 120.253906 220.410156 117.253906 220.554688 114.398438 220.554688 C 113.832031 220.554688 113.273438 220.539062 112.710938 220.527344 C 112.621094 220.601562 112.527344 220.671875 112.4375 220.742188 C 111.109375 221.816406 109.832031 222.925781 108.613281 224.078125 C 107.394531 225.226562 106.234375 226.421875 105.136719 227.652344 C 104.042969 228.886719 103.011719 230.160156 102.054688 231.476562 C 101.277344 232.546875 100.53125 233.617188 99.816406 234.679688 C 97.328125 238.40625 95.246094 242.078125 93.554688 245.675781 C 92.585938 247.730469 91.742188 249.765625 91.023438 251.773438 C 90.125 254.28125 89.417969 256.75 88.890625 259.171875 C 88.679688 260.140625 88.496094 261.105469 88.34375 262.054688 C 88.113281 263.484375 87.949219 264.898438 87.84375 266.292969 C 87.777344 267.222656 87.734375 268.140625 87.722656 269.050781 C 87.671875 272.246094 87.957031 275.328125 88.550781 278.289062 C 88.613281 278.597656 88.6875 278.90625 88.761719 279.210938 C 88.789062 279.300781 88.8125 279.390625 88.835938 279.480469 C 88.898438 279.703125 88.960938 279.921875 89.03125 280.136719 C 89.058594 280.226562 89.085938 280.316406 89.117188 280.40625 C 89.207031 280.679688 89.304688 280.945312 89.40625 281.210938 C 89.414062 281.230469 89.421875 281.25 89.429688 281.273438 C 89.542969 281.554688 89.664062 281.832031 89.789062 282.109375 C 89.824219 282.183594 89.863281 282.261719 89.898438 282.339844 C 89.996094 282.542969 90.097656 282.742188 90.199219 282.941406 C 90.242188 283.019531 90.285156 283.097656 90.328125 283.175781 C 90.457031 283.414062 90.589844 283.640625 90.726562 283.867188 C 90.742188 283.894531 90.757812 283.925781 90.777344 283.953125 C 90.933594 284.207031 91.097656 284.453125 91.265625 284.695312 C 91.3125 284.761719 91.355469 284.824219 91.402344 284.886719 C 91.53125 285.066406 91.664062 285.246094 91.800781 285.421875 C 91.855469 285.492188 91.910156 285.5625 91.964844 285.628906 C 92.121094 285.824219 92.28125 286.019531 92.449219 286.207031 C 92.476562 286.238281 92.503906 286.273438 92.53125 286.304688 C 92.726562 286.523438 92.925781 286.734375 93.132812 286.945312 C 93.183594 286.996094 93.234375 287.042969 93.285156 287.09375 C 93.445312 287.253906 93.609375 287.40625 93.773438 287.558594 C 93.835938 287.617188 93.898438 287.671875 93.964844 287.730469 C 94.144531 287.890625 94.328125 288.046875 94.515625 288.203125 C 94.558594 288.230469 94.59375 288.265625 94.632812 288.296875 C 94.859375 288.476562 95.089844 288.652344 95.328125 288.824219 C 95.382812 288.859375 95.4375 288.898438 95.492188 288.9375 C 95.675781 289.066406 95.863281 289.195312 96.054688 289.316406 C 96.125 289.363281 96.199219 289.410156 96.273438 289.453125 C 96.46875 289.578125 96.671875 289.699219 96.875 289.8125 C 96.921875 289.839844 96.972656 289.871094 97.023438 289.902344 C 97.277344 290.039062 97.53125 290.175781 97.792969 290.300781 C 97.847656 290.332031 97.90625 290.359375 97.964844 290.382812 C 98.171875 290.484375 98.375 290.578125 98.585938 290.667969 C 98.667969 290.703125 98.746094 290.734375 98.828125 290.769531 C 99.035156 290.855469 99.246094 290.9375 99.460938 291.019531 C 99.523438 291.039062 99.582031 291.066406 99.644531 291.085938 C 99.914062 291.183594 100.191406 291.273438 100.464844 291.359375 C 100.523438 291.375 100.582031 291.390625 100.640625 291.40625 C 100.863281 291.472656 101.085938 291.53125 101.308594 291.589844 C 101.398438 291.609375 101.484375 291.628906 101.570312 291.648438 C 101.785156 291.699219 102 291.746094 102.21875 291.785156 C 102.289062 291.800781 102.363281 291.816406 102.433594 291.828125 C 102.71875 291.878906 103.007812 291.921875 103.292969 291.960938 C 103.347656 291.96875 103.402344 291.972656 103.457031 291.976562 C 103.691406 292.003906 103.929688 292.027344 104.167969 292.046875 C 104.257812 292.050781 104.351562 292.058594 104.441406 292.0625 C 104.65625 292.078125 104.875 292.082031 105.09375 292.085938 C 105.175781 292.089844 105.253906 292.09375 105.335938 292.09375 C 105.511719 292.09375 105.6875 292.085938 105.863281 292.082031 C 106.015625 292.078125 106.164062 292.078125 106.316406 292.070312 C 106.488281 292.0625 106.660156 292.046875 106.832031 292.03125 C 106.984375 292.019531 107.136719 292.007812 107.285156 291.992188 C 107.460938 291.976562 107.632812 291.949219 107.808594 291.921875 C 107.957031 291.902344 108.105469 291.886719 108.257812 291.859375 C 108.433594 291.828125 108.609375 291.792969 108.78125 291.757812 C 108.929688 291.726562 109.078125 291.703125 109.226562 291.667969 C 109.40625 291.628906 109.582031 291.578125 109.757812 291.53125 C 109.902344 291.492188 110.050781 291.457031 110.195312 291.417969 C 110.378906 291.363281 110.5625 291.300781 110.746094 291.242188 C 110.882812 291.195312 111.019531 291.15625 111.15625 291.105469 C 111.359375 291.035156 111.566406 290.949219 111.769531 290.871094 C 111.882812 290.824219 111.996094 290.785156 112.109375 290.738281 C 112.417969 290.605469 112.726562 290.464844 113.03125 290.316406 C 113.039062 290.3125 113.046875 290.308594 113.054688 290.304688 L 115.207031 289.242188 C 115.296875 289.199219 115.382812 289.164062 115.472656 289.132812 C 115.503906 289.125 115.53125 289.117188 115.558594 289.109375 C 115.621094 289.09375 115.683594 289.074219 115.742188 289.0625 C 115.777344 289.054688 115.808594 289.050781 115.839844 289.046875 C 115.902344 289.035156 115.960938 289.03125 116.019531 289.027344 C 116.050781 289.023438 116.082031 289.023438 116.109375 289.023438 C 116.121094 289.023438 116.136719 289.019531 116.148438 289.019531 C 116.210938 289.019531 116.273438 289.023438 116.335938 289.03125 C 116.347656 289.03125 116.355469 289.03125 116.367188 289.03125 C 116.453125 289.042969 116.539062 289.058594 116.625 289.078125 C 116.644531 289.082031 116.671875 289.089844 116.695312 289.097656 C 116.753906 289.113281 116.8125 289.128906 116.871094 289.152344 C 116.894531 289.164062 116.925781 289.171875 116.953125 289.183594 C 117.003906 289.207031 117.058594 289.230469 117.109375 289.257812 C 117.136719 289.273438 117.160156 289.285156 117.183594 289.296875 C 117.25 289.332031 117.3125 289.375 117.375 289.417969 C 117.382812 289.421875 117.390625 289.425781 117.398438 289.433594 C 117.464844 289.480469 117.53125 289.535156 117.59375 289.59375 C 117.613281 289.613281 117.628906 289.628906 117.648438 289.648438 C 117.691406 289.691406 117.730469 289.734375 117.769531 289.78125 C 117.789062 289.800781 117.804688 289.824219 117.824219 289.847656 C 117.863281 289.894531 117.894531 289.941406 117.929688 289.992188 C 117.945312 290.015625 117.960938 290.039062 117.972656 290.0625 C 118.015625 290.128906 118.054688 290.199219 118.085938 290.277344 C 118.089844 290.277344 118.089844 290.285156 118.09375 290.289062 C 118.128906 290.367188 118.15625 290.449219 118.183594 290.535156 C 118.191406 290.558594 118.195312 290.585938 118.203125 290.613281 C 118.21875 290.671875 118.234375 290.730469 118.242188 290.796875 C 118.246094 290.824219 118.25 290.859375 118.253906 290.890625 C 118.261719 290.953125 118.265625 291.015625 118.269531 291.082031 C 118.269531 291.109375 118.269531 291.136719 118.269531 291.167969 C 118.269531 291.261719 118.261719 291.355469 118.25 291.449219 C 118.25 291.449219 118.25 291.453125 118.25 291.453125 L 117.875 294.035156 C 117.875 294.039062 117.875 294.046875 117.875 294.050781 C 117.824219 294.382812 117.789062 294.714844 117.757812 295.046875 C 117.75 295.160156 117.746094 295.269531 117.738281 295.386719 C 117.722656 295.605469 117.707031 295.828125 117.703125 296.046875 C 117.699219 296.179688 117.703125 296.3125 117.699219 296.445312 C 117.699219 296.644531 117.699219 296.84375 117.703125 297.039062 C 117.707031 297.179688 117.714844 297.316406 117.722656 297.457031 C 117.734375 297.644531 117.742188 297.832031 117.757812 298.015625 C 117.773438 298.160156 117.789062 298.300781 117.804688 298.441406 C 117.824219 298.621094 117.84375 298.804688 117.871094 298.984375 C 117.890625 299.125 117.914062 299.265625 117.9375 299.402344 C 117.96875 299.578125 118 299.753906 118.035156 299.929688 C 118.0625 300.070312 118.09375 300.207031 118.125 300.347656 C 118.164062 300.519531 118.207031 300.691406 118.25 300.863281 C 118.285156 301 118.324219 301.136719 118.363281 301.269531 C 118.414062 301.4375 118.464844 301.609375 118.515625 301.773438 C 118.558594 301.90625 118.605469 302.042969 118.652344 302.171875 C 118.710938 302.339844 118.769531 302.503906 118.832031 302.667969 C 118.882812 302.796875 118.933594 302.925781 118.988281 303.054688 C 119.054688 303.21875 119.125 303.378906 119.195312 303.539062 C 119.25 303.664062 119.308594 303.785156 119.367188 303.910156 C 119.445312 304.070312 119.523438 304.226562 119.605469 304.386719 C 119.667969 304.503906 119.730469 304.625 119.792969 304.742188 C 119.878906 304.898438 119.96875 305.054688 120.0625 305.210938 C 120.128906 305.320312 120.195312 305.4375 120.261719 305.546875 C 120.359375 305.703125 120.460938 305.855469 120.566406 306.011719 C 120.632812 306.117188 120.703125 306.222656 120.773438 306.324219 C 120.882812 306.484375 121 306.636719 121.117188 306.792969 C 121.183594 306.886719 121.253906 306.980469 121.324219 307.074219 C 121.453125 307.238281 121.589844 307.402344 121.726562 307.5625 C 121.789062 307.640625 121.847656 307.714844 121.914062 307.789062 C 122.089844 307.992188 122.273438 308.1875 122.457031 308.382812 C 122.484375 308.414062 122.511719 308.445312 122.539062 308.472656 C 122.757812 308.699219 122.980469 308.914062 123.207031 309.128906 C 123.25 309.167969 123.296875 309.203125 123.339844 309.246094 C 123.527344 309.414062 123.714844 309.582031 123.90625 309.742188 C 123.984375 309.808594 124.070312 309.871094 124.148438 309.933594 C 124.308594 310.066406 124.46875 310.191406 124.632812 310.316406 C 124.730469 310.386719 124.832031 310.453125 124.929688 310.527344 C 125.082031 310.636719 125.238281 310.746094 125.394531 310.851562 C 125.503906 310.921875 125.613281 310.988281 125.71875 311.058594 C 125.875 311.15625 126.027344 311.253906 126.183594 311.347656 C 126.300781 311.414062 126.417969 311.480469 126.53125 311.542969 C 126.6875 311.628906 126.84375 311.71875 127.003906 311.800781 C 127.125 311.863281 127.246094 311.921875 127.367188 311.980469 C 127.527344 312.058594 127.6875 312.136719 127.847656 312.210938 C 127.972656 312.265625 128.101562 312.324219 128.230469 312.375 C 128.390625 312.445312 128.550781 312.507812 128.714844 312.574219 C 128.847656 312.625 128.976562 312.675781 129.113281 312.722656 C 129.277344 312.78125 129.441406 312.835938 129.605469 312.890625 C 129.742188 312.933594 129.878906 312.976562 130.015625 313.019531 C 130.183594 313.066406 130.351562 313.117188 130.523438 313.160156 C 130.660156 313.195312 130.800781 313.230469 130.9375 313.265625 C 131.113281 313.308594 131.285156 313.34375 131.457031 313.378906 C 131.597656 313.40625 131.742188 313.4375 131.882812 313.460938 C 132.058594 313.496094 132.238281 313.519531 132.414062 313.546875 C 132.558594 313.566406 132.699219 313.585938 132.84375 313.605469 C 133.027344 313.628906 133.207031 313.644531 133.390625 313.660156 C 133.535156 313.671875 133.675781 313.6875 133.820312 313.695312 C 134.007812 313.707031 134.199219 313.710938 134.390625 313.71875 C 134.535156 313.722656 134.671875 313.730469 134.8125 313.730469 C 135.03125 313.730469 135.253906 313.722656 135.472656 313.714844 C 135.582031 313.710938 135.691406 313.714844 135.804688 313.707031 C 136.136719 313.6875 136.472656 313.664062 136.804688 313.628906 C 139.394531 313.347656 142.003906 312.816406 144.613281 312.03125 C 145.917969 311.636719 147.222656 311.179688 148.527344 310.652344 C 149.832031 310.128906 151.132812 309.539062 152.433594 308.878906 C 152.867188 308.660156 153.300781 308.433594 153.730469 308.199219 C 154.597656 307.730469 155.460938 307.230469 156.320312 306.703125 C 156.753906 306.4375 157.183594 306.164062 157.613281 305.882812 C 158.902344 305.042969 160.183594 304.132812 161.460938 303.148438 C 162.738281 302.167969 164.007812 301.117188 165.265625 299.992188 C 169.464844 296.242188 173.5625 291.691406 177.492188 286.285156 C 179.421875 283.625 181.09375 280.738281 182.539062 277.679688 C 183.019531 276.660156 183.476562 275.621094 183.910156 274.5625 C 184.339844 273.507812 184.75 272.433594 185.132812 271.347656 C 186.074219 268.691406 186.875 265.945312 187.554688 263.144531 C 187.710938 262.503906 187.863281 261.859375 188.003906 261.214844 L 188.007812 261.210938 C 190.425781 250.316406 191.09375 238.695312 190.941406 228.195312 C 190.929688 227.644531 190.921875 227.09375 190.910156 226.550781 C 190.78125 220.984375 190.429688 215.777344 190.003906 211.203125 C 191.921875 210.945312 193.746094 210.394531 195.425781 209.589844 C 196.816406 223.769531 197.511719 244.003906 193.425781 262.414062 C 193.414062 262.464844 193.402344 262.511719 193.390625 262.558594 C 192.585938 266.160156 191.621094 269.566406 190.507812 272.769531 C 190.546875 272.878906 190.585938 272.988281 190.625 273.09375 C 191.03125 274.15625 191.460938 275.203125 191.914062 276.234375 C 192.597656 277.773438 193.332031 279.277344 194.125 280.734375 C 194.65625 281.703125 195.210938 282.652344 195.792969 283.578125 C 196.085938 284.042969 196.382812 284.5 196.6875 284.949219 C 196.992188 285.402344 197.304688 285.847656 197.621094 286.285156 C 199.183594 288.429688 200.769531 290.441406 202.375 292.320312 C 203.179688 293.261719 203.988281 294.167969 204.804688 295.042969 C 205.617188 295.917969 206.4375 296.757812 207.261719 297.566406 C 210.96875 301.214844 214.769531 304.210938 218.613281 306.59375 C 219.46875 307.121094 220.324219 307.625 221.183594 308.09375 C 221.609375 308.328125 222.039062 308.554688 222.46875 308.777344 C 227.625 311.417969 232.832031 312.992188 237.96875 313.59375 C 237.972656 313.59375 237.972656 313.59375 237.972656 313.59375 C 238.320312 313.636719 238.664062 313.664062 239.007812 313.683594 C 239.117188 313.691406 239.226562 313.691406 239.339844 313.695312 C 239.570312 313.703125 239.800781 313.714844 240.027344 313.714844 C 240.128906 313.714844 240.226562 313.707031 240.324219 313.703125 C 240.554688 313.699219 240.789062 313.695312 241.019531 313.683594 C 241.148438 313.675781 241.273438 313.660156 241.402344 313.652344 C 241.597656 313.632812 241.796875 313.617188 241.992188 313.59375 C 242.132812 313.582031 242.265625 313.558594 242.402344 313.539062 C 242.585938 313.511719 242.773438 313.488281 242.953125 313.457031 C 243.09375 313.429688 243.234375 313.402344 243.371094 313.371094 C 243.546875 313.335938 243.722656 313.300781 243.894531 313.261719 C 244.035156 313.226562 244.175781 313.191406 244.316406 313.152344 C 244.484375 313.109375 244.652344 313.066406 244.816406 313.015625 C 244.957031 312.972656 245.097656 312.929688 245.234375 312.882812 C 245.398438 312.832031 245.558594 312.777344 245.71875 312.722656 C 245.855469 312.671875 245.992188 312.621094 246.128906 312.566406 C 246.289062 312.507812 246.441406 312.445312 246.59375 312.378906 C 246.734375 312.324219 246.867188 312.261719 247.003906 312.203125 C 247.152344 312.136719 247.300781 312.0625 247.449219 311.992188 C 247.582031 311.925781 247.71875 311.863281 247.847656 311.792969 C 247.996094 311.714844 248.136719 311.636719 248.28125 311.558594 C 248.410156 311.484375 248.539062 311.414062 248.667969 311.335938 C 248.808594 311.253906 248.945312 311.167969 249.085938 311.082031 C 249.207031 311.003906 249.335938 310.925781 249.457031 310.84375 C 249.59375 310.75 249.726562 310.65625 249.859375 310.558594 C 249.980469 310.476562 250.097656 310.394531 250.214844 310.304688 C 250.351562 310.207031 250.476562 310.101562 250.609375 310 C 250.71875 309.910156 250.835938 309.820312 250.945312 309.726562 C 251.078125 309.621094 251.203125 309.507812 251.328125 309.394531 C 251.433594 309.300781 251.539062 309.210938 251.644531 309.113281 C 251.777344 308.992188 251.902344 308.863281 252.035156 308.734375 C 252.125 308.644531 252.21875 308.558594 252.304688 308.464844 C 252.519531 308.246094 252.722656 308.023438 252.921875 307.792969 C 253 307.703125 253.074219 307.609375 253.148438 307.519531 C 253.273438 307.375 253.394531 307.226562 253.511719 307.078125 C 253.597656 306.96875 253.679688 306.855469 253.761719 306.746094 C 253.863281 306.605469 253.964844 306.46875 254.0625 306.328125 C 254.144531 306.210938 254.226562 306.089844 254.304688 305.96875 C 254.394531 305.832031 254.488281 305.691406 254.574219 305.550781 C 254.652344 305.425781 254.726562 305.296875 254.800781 305.171875 C 254.882812 305.03125 254.964844 304.886719 255.042969 304.746094 C 255.117188 304.613281 255.183594 304.484375 255.25 304.351562 C 255.328125 304.207031 255.402344 304.058594 255.472656 303.910156 C 255.539062 303.777344 255.597656 303.640625 255.660156 303.507812 C 255.726562 303.355469 255.792969 303.207031 255.855469 303.054688 C 255.914062 302.914062 255.964844 302.777344 256.019531 302.636719 C 256.078125 302.480469 256.136719 302.328125 256.191406 302.167969 C 256.242188 302.03125 256.289062 301.886719 256.335938 301.746094 C 256.386719 301.585938 256.433594 301.425781 256.480469 301.265625 C 256.523438 301.121094 256.5625 300.980469 256.601562 300.835938 C 256.644531 300.671875 256.683594 300.503906 256.722656 300.339844 C 256.753906 300.195312 256.785156 300.050781 256.816406 299.90625 C 256.847656 299.734375 256.878906 299.5625 256.910156 299.390625 C 256.933594 299.246094 256.957031 299.101562 256.980469 298.957031 C 257.003906 298.78125 257.023438 298.601562 257.042969 298.421875 C 257.0625 298.28125 257.078125 298.136719 257.089844 297.992188 C 257.105469 297.808594 257.113281 297.621094 257.125 297.433594 C 257.132812 297.296875 257.144531 297.15625 257.148438 297.015625 C 257.152344 296.816406 257.152344 296.617188 257.148438 296.417969 C 257.148438 296.289062 257.152344 296.15625 257.148438 296.023438 C 257.140625 295.800781 257.125 295.574219 257.109375 295.351562 C 257.105469 295.238281 257.101562 295.128906 257.089844 295.019531 C 257.0625 294.683594 257.023438 294.34375 256.972656 294.003906 L 256.628906 291.628906 C 256.613281 291.53125 256.609375 291.4375 256.605469 291.34375 C 256.605469 291.3125 256.609375 291.285156 256.609375 291.257812 C 256.613281 291.191406 256.617188 291.125 256.621094 291.0625 C 256.625 291.03125 256.628906 291 256.636719 290.96875 C 256.644531 290.90625 256.660156 290.847656 256.675781 290.785156 C 256.679688 290.761719 256.6875 290.734375 256.695312 290.707031 C 256.71875 290.625 256.75 290.542969 256.785156 290.460938 C 256.785156 290.457031 256.789062 290.457031 256.789062 290.453125 C 256.824219 290.375 256.863281 290.304688 256.90625 290.234375 C 256.917969 290.210938 256.933594 290.191406 256.949219 290.167969 C 256.980469 290.117188 257.015625 290.070312 257.050781 290.023438 C 257.070312 290 257.089844 289.976562 257.109375 289.953125 C 257.148438 289.910156 257.1875 289.863281 257.230469 289.824219 C 257.25 289.804688 257.265625 289.785156 257.285156 289.769531 C 257.347656 289.710938 257.410156 289.65625 257.480469 289.605469 C 257.484375 289.601562 257.492188 289.597656 257.5 289.59375 C 257.5625 289.550781 257.628906 289.507812 257.695312 289.46875 C 257.71875 289.457031 257.742188 289.445312 257.765625 289.433594 C 257.820312 289.40625 257.871094 289.378906 257.925781 289.359375 C 257.953125 289.347656 257.980469 289.335938 258.007812 289.328125 C 258.066406 289.304688 258.125 289.289062 258.183594 289.273438 C 258.207031 289.265625 258.230469 289.257812 258.253906 289.25 C 258.339844 289.230469 258.421875 289.214844 258.507812 289.207031 C 258.519531 289.207031 258.53125 289.207031 258.542969 289.203125 C 258.605469 289.199219 258.664062 289.195312 258.730469 289.195312 C 258.742188 289.195312 258.753906 289.199219 258.769531 289.199219 C 258.796875 289.199219 258.828125 289.199219 258.855469 289.203125 C 258.917969 289.207031 258.976562 289.210938 259.039062 289.21875 C 259.070312 289.226562 259.101562 289.230469 259.132812 289.238281 C 259.195312 289.25 259.257812 289.265625 259.320312 289.285156 C 259.347656 289.292969 259.375 289.296875 259.402344 289.308594 C 259.492188 289.339844 259.582031 289.375 259.667969 289.417969 L 262.007812 290.570312 C 262.015625 290.574219 262.019531 290.574219 262.027344 290.578125 C 262.332031 290.730469 262.640625 290.871094 262.953125 291 C 263.058594 291.046875 263.164062 291.085938 263.273438 291.125 C 263.484375 291.210938 263.691406 291.296875 263.902344 291.371094 C 264.03125 291.414062 264.152344 291.449219 264.28125 291.492188 C 264.476562 291.554688 264.667969 291.625 264.863281 291.679688 C 264.996094 291.71875 265.128906 291.75 265.265625 291.785156 C 265.453125 291.835938 265.640625 291.886719 265.828125 291.929688 C 265.96875 291.960938 266.109375 291.988281 266.246094 292.011719 C 266.429688 292.050781 266.613281 292.089844 266.796875 292.121094 C 266.941406 292.144531 267.085938 292.164062 267.230469 292.183594 C 267.40625 292.207031 267.585938 292.234375 267.761719 292.253906 C 267.910156 292.269531 268.058594 292.28125 268.207031 292.292969 C 268.382812 292.308594 268.554688 292.324219 268.726562 292.332031 C 268.878906 292.339844 269.027344 292.34375 269.175781 292.347656 C 269.351562 292.347656 269.53125 292.355469 269.707031 292.355469 C 269.785156 292.355469 269.859375 292.351562 269.9375 292.347656 C 270.15625 292.347656 270.375 292.339844 270.597656 292.324219 C 270.6875 292.320312 270.777344 292.3125 270.867188 292.308594 C 271.101562 292.289062 271.332031 292.265625 271.5625 292.242188 C 271.621094 292.234375 271.683594 292.230469 271.738281 292.222656 C 272.027344 292.1875 272.3125 292.144531 272.59375 292.089844 C 272.664062 292.078125 272.738281 292.066406 272.808594 292.050781 C 273.023438 292.007812 273.238281 291.964844 273.449219 291.914062 C 273.539062 291.898438 273.628906 291.875 273.71875 291.851562 C 273.9375 291.800781 274.152344 291.738281 274.367188 291.679688 C 274.429688 291.660156 274.496094 291.644531 274.558594 291.625 C 274.832031 291.542969 275.101562 291.453125 275.371094 291.359375 C 275.4375 291.335938 275.5 291.308594 275.566406 291.285156 C 275.773438 291.207031 275.976562 291.128906 276.183594 291.042969 C 276.265625 291.007812 276.351562 290.972656 276.4375 290.9375 C 276.636719 290.851562 276.832031 290.757812 277.03125 290.664062 C 277.097656 290.636719 277.164062 290.605469 277.226562 290.574219 C 277.480469 290.449219 277.734375 290.316406 277.984375 290.179688 C 278.039062 290.148438 278.09375 290.113281 278.152344 290.082031 C 278.347656 289.96875 278.539062 289.855469 278.726562 289.738281 C 278.804688 289.6875 278.886719 289.640625 278.964844 289.589844 C 279.144531 289.472656 279.320312 289.355469 279.496094 289.230469 C 279.558594 289.1875 279.625 289.144531 279.6875 289.097656 C 279.917969 288.929688 280.148438 288.761719 280.371094 288.582031 C 280.417969 288.546875 280.460938 288.507812 280.507812 288.472656 C 280.6875 288.324219 280.863281 288.175781 281.035156 288.027344 C 281.105469 287.964844 281.171875 287.902344 281.242188 287.839844 C 281.398438 287.695312 281.554688 287.550781 281.703125 287.398438 C 281.765625 287.34375 281.824219 287.289062 281.878906 287.226562 C 282.082031 287.027344 282.28125 286.816406 282.472656 286.601562 C 282.503906 286.566406 282.539062 286.527344 282.570312 286.488281 C 282.730469 286.308594 282.886719 286.121094 283.039062 285.933594 C 283.097656 285.863281 283.15625 285.789062 283.210938 285.714844 C 283.34375 285.546875 283.472656 285.375 283.597656 285.199219 C 283.648438 285.132812 283.699219 285.0625 283.746094 284.992188 C 283.914062 284.753906 284.078125 284.511719 284.234375 284.261719 C 284.253906 284.230469 284.273438 284.195312 284.292969 284.164062 C 284.429688 283.945312 284.558594 283.71875 284.683594 283.492188 C 284.730469 283.410156 284.773438 283.328125 284.816406 283.25 C 284.917969 283.054688 285.019531 282.859375 285.117188 282.660156 C 285.15625 282.582031 285.191406 282.5 285.230469 282.421875 C 285.359375 282.148438 285.480469 281.871094 285.59375 281.589844 C 285.601562 281.570312 285.609375 281.550781 285.617188 281.535156 C 285.722656 281.269531 285.820312 281 285.914062 280.730469 C 285.941406 280.640625 285.972656 280.554688 286 280.464844 C 286.070312 280.25 286.136719 280.027344 286.199219 279.808594 C 286.222656 279.71875 286.25 279.628906 286.273438 279.539062 C 286.355469 279.238281 286.429688 278.933594 286.492188 278.621094 C 287.292969 274.796875 287.574219 270.761719 287.285156 266.554688 C 287.222656 265.621094 287.132812 264.675781 287.007812 263.726562 C 286.890625 262.773438 286.738281 261.816406 286.5625 260.847656 C 286.382812 259.878906 286.175781 258.902344 285.9375 257.921875 C 285.699219 256.9375 285.433594 255.945312 285.132812 254.949219 C 282.898438 247.46875 278.953125 239.589844 273.058594 231.476562 C 272.09375 230.148438 271.058594 228.863281 269.949219 227.621094 C 269.210938 226.792969 268.445312 225.984375 267.648438 225.191406 C 266.855469 224.402344 266.03125 223.628906 265.1875 222.871094 C 264.339844 222.117188 263.46875 221.378906 262.574219 220.660156 C 259.445312 218.140625 256.042969 215.835938 252.46875 213.730469 L 252.464844 213.726562 C 237.191406 204.726562 218.824219 199.367188 205.535156 196.378906 C 205.726562 195.3125 205.832031 194.21875 205.832031 193.097656 C 205.832031 192.292969 205.773438 191.503906 205.671875 190.726562 C 219.589844 193.785156 239.042969 199.378906 255.28125 208.945312 C 255.324219 208.972656 255.371094 209 255.410156 209.023438 C 258.582031 210.902344 261.519531 212.867188 264.222656 214.917969 C 264.546875 214.902344 264.875 214.890625 265.199219 214.871094 C 265.394531 214.859375 265.59375 214.847656 265.792969 214.835938 C 266.460938 214.785156 267.125 214.734375 267.789062 214.667969 C 267.832031 214.664062 267.878906 214.660156 267.921875 214.65625 C 268.625 214.585938 269.320312 214.5 270.011719 214.40625 C 270.199219 214.378906 270.386719 214.351562 270.574219 214.324219 C 271.128906 214.246094 271.679688 214.15625 272.226562 214.0625 C 272.386719 214.035156 272.542969 214.007812 272.699219 213.980469 C 273.378906 213.855469 274.050781 213.71875 274.722656 213.570312 C 274.863281 213.539062 275.003906 213.503906 275.144531 213.46875 C 275.6875 213.34375 276.226562 213.210938 276.765625 213.066406 C 276.949219 213.019531 277.132812 212.96875 277.316406 212.917969 C 277.976562 212.734375 278.632812 212.542969 279.28125 212.332031 C 291.894531 208.234375 301.507812 202.464844 308.351562 195.652344 C 312.457031 191.5625 315.5625 187.101562 317.722656 182.398438 C 318.753906 180.152344 319.257812 177.828125 319.296875 175.542969 C 319.308594 174.890625 319.28125 174.242188 319.21875 173.597656 C 319.125 172.632812 318.949219 171.683594 318.695312 170.757812 " fill-opacity="1" fill-rule="nonzero"/></g></svg>