<svg xmlns="http://www.w3.org/2000/svg" xmlns:xlink="http://www.w3.org/1999/xlink" width="500" zoomAndPan="magnify" viewBox="0 0 375 374.999991" height="500" preserveAspectRatio="xMidYMid meet" version="1.0"><defs><clipPath id="f4f626e8d4"><path d="M 0 8.203125 L 375 8.203125 L 375 366.703125 L 0 366.703125 Z M 0 8.203125 " clip-rule="nonzero"/></clipPath></defs><g clip-path="url(#f4f626e8d4)"><path fill="#ffffff" d="M 235.898438 188.507812 C 232.113281 189.738281 228.082031 188.085938 226.183594 184.761719 L 205.242188 191.5625 C 205.519531 192.820312 205.667969 194.121094 205.667969 195.457031 C 205.667969 200.875 203.273438 205.734375 199.488281 209.050781 L 212.445312 226.882812 C 215.9375 225.308594 220.167969 226.339844 222.507812 229.558594 C 225.1875 233.246094 224.371094 238.410156 220.679688 241.089844 C 216.992188 243.769531 211.832031 242.953125 209.152344 239.261719 C 206.808594 236.042969 207.136719 231.699219 209.710938 228.867188 L 196.753906 211.03125 C 194.066406 212.617188 190.9375 213.53125 187.597656 213.53125 C 184.226562 213.53125 181.066406 212.597656 178.363281 210.988281 L 165.410156 228.816406 C 167.984375 231.648438 168.308594 235.992188 165.972656 239.214844 C 163.289062 242.902344 158.128906 243.71875 154.441406 241.039062 C 150.753906 238.359375 149.933594 233.199219 152.617188 229.507812 C 154.953125 226.289062 159.183594 225.257812 162.675781 226.828125 L 175.636719 208.992188 C 171.890625 205.675781 169.523438 200.839844 169.523438 195.457031 C 169.523438 194.09375 169.679688 192.765625 169.972656 191.480469 L 149.035156 184.679688 C 147.132812 188.003906 143.105469 189.65625 139.320312 188.425781 C 134.980469 187.019531 132.609375 182.363281 134.019531 178.027344 C 135.425781 173.6875 140.085938 171.316406 144.417969 172.726562 C 148.203125 173.957031 150.496094 177.664062 150.074219 181.46875 L 171.019531 188.273438 C 173.59375 182.351562 179.25 178.070312 185.949219 177.464844 L 185.949219 155.464844 C 182.199219 154.6875 179.382812 151.367188 179.382812 147.386719 C 179.382812 142.828125 183.078125 139.132812 187.636719 139.132812 C 192.195312 139.132812 195.894531 142.828125 195.894531 147.386719 C 195.894531 151.367188 193.074219 154.6875 189.324219 155.464844 L 189.324219 177.472656 C 196.019531 178.109375 201.660156 182.414062 204.210938 188.347656 L 225.136719 181.546875 C 224.722656 177.742188 227.007812 174.035156 230.796875 172.804688 C 235.132812 171.398438 239.789062 173.769531 241.199219 178.109375 C 242.605469 182.441406 240.234375 187.097656 235.898438 188.507812 Z M 373.886719 163.71875 C 373.289062 161.527344 372.386719 159.425781 371.21875 157.484375 C 370.75 156.707031 370.242188 155.957031 369.6875 155.234375 C 368.589844 153.792969 367.324219 152.464844 365.910156 151.289062 C 365.207031 150.699219 364.46875 150.148438 363.691406 149.636719 C 360.972656 147.851562 357.839844 146.574219 354.378906 145.980469 L 351.015625 145.40625 C 350.417969 145.300781 349.910156 145.042969 349.511719 144.683594 C 349.308594 144.503906 349.140625 144.296875 348.996094 144.074219 C 348.851562 143.855469 348.738281 143.613281 348.660156 143.363281 C 348.578125 143.113281 348.527344 142.851562 348.511719 142.589844 C 348.480469 142.0625 348.589844 141.523438 348.851562 141.027344 C 348.984375 140.78125 349.152344 140.542969 349.367188 140.324219 L 351.949219 137.671875 C 353.695312 135.878906 355.101562 133.90625 356.179688 131.820312 C 357.257812 129.738281 358.011719 127.542969 358.445312 125.304688 C 358.53125 124.855469 358.605469 124.40625 358.667969 123.957031 C 358.789062 123.054688 358.863281 122.152344 358.882812 121.246094 C 358.914062 119.886719 358.835938 118.53125 358.648438 117.191406 C 358.460938 115.847656 358.160156 114.523438 357.753906 113.226562 C 357.347656 111.929688 356.832031 110.667969 356.207031 109.449219 C 355.796875 108.632812 355.332031 107.84375 354.824219 107.074219 C 353.8125 105.542969 352.613281 104.105469 351.230469 102.804688 C 349.851562 101.503906 348.289062 100.339844 346.554688 99.34375 C 345.984375 99.019531 345.40625 98.699219 344.820312 98.390625 C 344.632812 98.289062 344.4375 98.195312 344.25 98.097656 C 343.851562 97.894531 343.453125 97.6875 343.046875 97.492188 C 342.816406 97.378906 342.578125 97.269531 342.34375 97.15625 C 341.976562 96.984375 341.605469 96.808594 341.230469 96.640625 C 340.976562 96.527344 340.722656 96.417969 340.460938 96.308594 C 340.101562 96.152344 339.734375 96 339.367188 95.847656 C 339.101562 95.738281 338.832031 95.632812 338.566406 95.527344 C 338.199219 95.382812 337.824219 95.242188 337.449219 95.101562 C 337.183594 95 336.910156 94.902344 336.640625 94.804688 C 336.257812 94.667969 335.871094 94.539062 335.480469 94.40625 C 335.214844 94.316406 334.945312 94.226562 334.671875 94.136719 C 334.261719 94.007812 333.84375 93.882812 333.421875 93.757812 C 333.175781 93.683594 332.925781 93.605469 332.671875 93.53125 C 332.15625 93.386719 331.636719 93.246094 331.117188 93.113281 C 330.957031 93.070312 330.792969 93.023438 330.632812 92.984375 C 329.949219 92.8125 329.261719 92.652344 328.566406 92.5 C 328.34375 92.453125 328.117188 92.410156 327.890625 92.363281 C 327.410156 92.261719 326.933594 92.160156 326.445312 92.070312 C 326.164062 92.015625 325.878906 91.972656 325.59375 91.921875 C 325.15625 91.847656 324.722656 91.769531 324.28125 91.703125 C 323.976562 91.652344 323.667969 91.609375 323.359375 91.566406 C 322.933594 91.503906 322.503906 91.445312 322.070312 91.390625 C 321.753906 91.351562 321.433594 91.3125 321.113281 91.277344 C 320.679688 91.230469 320.25 91.183594 319.8125 91.144531 C 319.488281 91.109375 319.167969 91.082031 318.84375 91.054688 C 318.394531 91.019531 317.945312 90.984375 317.496094 90.957031 C 317.179688 90.933594 316.859375 90.910156 316.542969 90.894531 C 316.058594 90.867188 315.574219 90.847656 315.085938 90.832031 C 314.792969 90.820312 314.5 90.804688 314.203125 90.796875 C 313.632812 90.785156 313.054688 90.777344 312.476562 90.773438 C 312.257812 90.773438 312.039062 90.765625 311.820312 90.769531 C 311.621094 90.769531 311.421875 90.769531 311.222656 90.773438 C 310.710938 90.777344 310.195312 90.78125 309.675781 90.796875 C 309.40625 90.804688 309.132812 90.8125 308.859375 90.820312 C 308.410156 90.839844 307.957031 90.855469 307.503906 90.875 C 307.203125 90.894531 306.902344 90.910156 306.601562 90.929688 C 306.167969 90.953125 305.730469 90.980469 305.292969 91.011719 C 304.980469 91.035156 304.667969 91.058594 304.355469 91.082031 C 303.917969 91.117188 303.476562 91.160156 303.039062 91.199219 C 302.726562 91.230469 302.414062 91.257812 302.097656 91.292969 C 301.640625 91.339844 301.175781 91.390625 300.714844 91.445312 C 300.417969 91.480469 300.121094 91.515625 299.820312 91.554688 C 299.296875 91.621094 298.773438 91.695312 298.246094 91.769531 C 298.003906 91.800781 297.761719 91.835938 297.515625 91.871094 C 296.75 91.984375 295.976562 92.109375 295.203125 92.238281 C 295.027344 92.269531 294.847656 92.304688 294.671875 92.335938 C 294.0625 92.445312 293.453125 92.550781 292.84375 92.667969 C 292.546875 92.726562 292.25 92.789062 291.953125 92.847656 C 291.453125 92.949219 290.949219 93.050781 290.445312 93.15625 C 290.121094 93.226562 289.792969 93.300781 289.464844 93.371094 C 288.980469 93.480469 288.496094 93.589844 288.011719 93.703125 C 287.675781 93.78125 287.335938 93.863281 286.996094 93.945312 C 286.511719 94.066406 286.023438 94.1875 285.539062 94.308594 C 285.199219 94.394531 284.859375 94.484375 284.515625 94.574219 C 284.015625 94.707031 283.507812 94.84375 283 94.984375 C 282.675781 95.074219 282.347656 95.164062 282.023438 95.257812 C 281.460938 95.417969 280.898438 95.582031 280.332031 95.753906 C 280.058594 95.835938 279.785156 95.914062 279.507812 96 C 278.660156 96.257812 277.8125 96.519531 276.960938 96.796875 C 276.222656 97.039062 275.484375 97.292969 274.75 97.558594 C 268.886719 99.6875 263.203125 102.648438 257.742188 106.21875 C 257.660156 106.273438 257.578125 106.328125 257.5 106.378906 C 256.136719 110.886719 254.457031 115.492188 252.441406 120.183594 C 252.414062 120.253906 252.386719 120.320312 252.355469 120.386719 C 241.683594 145.105469 223.878906 167.921875 210.410156 183.089844 C 209.117188 180.714844 207.460938 178.570312 205.523438 176.714844 C 209.476562 172.21875 213.796875 167.0625 218.175781 161.394531 C 219.117188 160.179688 220.058594 158.941406 220.996094 157.683594 C 224.289062 153.28125 227.578125 148.605469 230.730469 143.734375 C 236.140625 135.382812 241.15625 126.445312 245.121094 117.261719 L 245.121094 117.257812 C 245.445312 116.5 245.761719 115.746094 246.074219 114.988281 C 247.90625 110.515625 249.480469 105.996094 250.722656 101.460938 C 251.191406 99.742188 251.621094 98.023438 251.992188 96.304688 C 252.328125 94.746094 252.625 93.183594 252.871094 91.625 C 253.492188 87.726562 253.828125 83.839844 253.828125 79.988281 C 253.828125 49.84375 244.671875 28.191406 230.257812 14.90625 C 229.921875 14.597656 229.574219 14.300781 229.226562 14.011719 C 229.121094 13.921875 229.007812 13.835938 228.898438 13.75 C 228.648438 13.550781 228.402344 13.359375 228.148438 13.175781 C 228.023438 13.082031 227.898438 12.992188 227.773438 12.902344 C 227.515625 12.722656 227.261719 12.546875 227.003906 12.378906 C 226.886719 12.304688 226.773438 12.226562 226.65625 12.152344 C 226.304688 11.933594 225.949219 11.71875 225.589844 11.519531 C 225.570312 11.507812 225.546875 11.496094 225.527344 11.484375 C 225.144531 11.269531 224.757812 11.074219 224.367188 10.882812 C 224.253906 10.828125 224.144531 10.78125 224.03125 10.726562 C 223.75 10.59375 223.464844 10.46875 223.175781 10.347656 C 223.042969 10.289062 222.910156 10.238281 222.777344 10.183594 C 222.5 10.074219 222.214844 9.964844 221.929688 9.863281 C 221.808594 9.820312 221.6875 9.773438 221.5625 9.734375 C 221.199219 9.613281 220.832031 9.496094 220.464844 9.390625 C 220.421875 9.382812 220.386719 9.367188 220.347656 9.355469 C 219.9375 9.238281 219.523438 9.140625 219.109375 9.046875 C 218.996094 9.023438 218.886719 9 218.773438 8.980469 C 218.472656 8.914062 218.167969 8.855469 217.863281 8.804688 C 217.722656 8.78125 217.582031 8.757812 217.445312 8.738281 C 217.15625 8.695312 216.867188 8.65625 216.578125 8.625 C 216.441406 8.605469 216.308594 8.589844 216.175781 8.578125 C 215.828125 8.542969 215.480469 8.519531 215.132812 8.5 C 215.0625 8.496094 214.996094 8.488281 214.925781 8.484375 C 214.515625 8.464844 214.105469 8.457031 213.699219 8.460938 C 213.195312 8.460938 212.691406 8.476562 212.191406 8.507812 C 212.105469 8.515625 212.019531 8.527344 211.9375 8.535156 C 211.519531 8.5625 211.101562 8.605469 210.683594 8.65625 C 210.523438 8.679688 210.355469 8.703125 210.191406 8.730469 C 209.855469 8.777344 209.515625 8.832031 209.183594 8.898438 C 209.003906 8.929688 208.828125 8.96875 208.648438 9.007812 C 208.324219 9.074219 207.996094 9.152344 207.671875 9.234375 C 207.503906 9.277344 207.332031 9.320312 207.164062 9.367188 C 206.808594 9.464844 206.453125 9.578125 206.105469 9.691406 C 205.976562 9.730469 205.84375 9.769531 205.714844 9.816406 C 205.230469 9.980469 204.757812 10.160156 204.285156 10.355469 C 204.242188 10.375 204.199219 10.394531 204.160156 10.414062 C 203.734375 10.59375 203.316406 10.78125 202.90625 10.984375 C 202.761719 11.058594 202.621094 11.128906 202.480469 11.203125 C 202.167969 11.367188 201.859375 11.53125 201.550781 11.707031 C 201.394531 11.796875 201.238281 11.890625 201.085938 11.984375 C 200.792969 12.15625 200.507812 12.339844 200.222656 12.527344 C 200.070312 12.625 199.921875 12.722656 199.777344 12.824219 C 199.472656 13.035156 199.179688 13.25 198.886719 13.472656 C 198.769531 13.5625 198.644531 13.648438 198.53125 13.746094 C 198.121094 14.066406 197.722656 14.398438 197.335938 14.746094 C 197.316406 14.765625 197.296875 14.785156 197.273438 14.804688 C 196.914062 15.136719 196.5625 15.476562 196.214844 15.832031 C 196.097656 15.953125 195.984375 16.078125 195.871094 16.199219 C 195.625 16.464844 195.382812 16.730469 195.148438 17.007812 C 195.019531 17.152344 194.898438 17.304688 194.773438 17.457031 C 194.554688 17.722656 194.34375 18 194.136719 18.273438 C 194.019531 18.433594 193.898438 18.59375 193.785156 18.753906 C 193.574219 19.058594 193.367188 19.367188 193.167969 19.683594 C 193.070312 19.828125 192.972656 19.96875 192.882812 20.117188 C 192.597656 20.585938 192.320312 21.0625 192.0625 21.554688 L 190.472656 24.574219 C 190.371094 24.765625 190.253906 24.933594 190.125 25.089844 C 190 25.242188 189.863281 25.382812 189.71875 25.503906 C 189.59375 25.605469 189.46875 25.699219 189.332031 25.777344 C 189.324219 25.78125 189.324219 25.785156 189.320312 25.785156 C 189.089844 25.917969 188.84375 26.015625 188.585938 26.085938 C 188.585938 26.085938 188.585938 26.089844 188.585938 26.089844 C 188.496094 26.109375 188.40625 26.125 188.3125 26.140625 C 188.273438 26.148438 188.234375 26.160156 188.195312 26.164062 C 188.128906 26.171875 188.058594 26.171875 187.992188 26.175781 C 187.929688 26.179688 187.863281 26.1875 187.800781 26.1875 C 187.738281 26.1875 187.675781 26.179688 187.613281 26.175781 C 187.542969 26.171875 187.476562 26.171875 187.410156 26.164062 C 187.285156 26.148438 187.167969 26.125 187.046875 26.09375 C 187.039062 26.089844 187.027344 26.089844 187.019531 26.089844 C 186.957031 26.070312 186.894531 26.042969 186.832031 26.027344 C 186.644531 25.960938 186.457031 25.886719 186.285156 25.785156 C 186.28125 25.785156 186.277344 25.78125 186.273438 25.777344 C 185.816406 25.507812 185.414062 25.109375 185.132812 24.574219 L 183.40625 21.296875 C 183.148438 20.804688 182.871094 20.332031 182.585938 19.867188 C 182.492188 19.714844 182.394531 19.570312 182.300781 19.425781 C 182.101562 19.113281 181.898438 18.804688 181.6875 18.507812 C 181.570312 18.339844 181.449219 18.179688 181.332031 18.019531 C 181.128906 17.746094 180.914062 17.472656 180.699219 17.210938 C 180.574219 17.054688 180.449219 16.902344 180.320312 16.75 C 180.089844 16.484375 179.855469 16.222656 179.613281 15.964844 C 179.496094 15.835938 179.378906 15.707031 179.257812 15.582031 C 178.917969 15.234375 178.570312 14.894531 178.214844 14.570312 C 178.1875 14.546875 178.164062 14.523438 178.136719 14.5 C 177.757812 14.15625 177.363281 13.828125 176.964844 13.511719 C 176.832031 13.40625 176.691406 13.304688 176.558594 13.203125 C 176.28125 12.996094 176.003906 12.792969 175.726562 12.597656 C 175.566406 12.484375 175.398438 12.375 175.238281 12.269531 C 174.972656 12.09375 174.699219 11.921875 174.425781 11.757812 C 174.257812 11.65625 174.089844 11.554688 173.917969 11.457031 C 173.628906 11.292969 173.335938 11.136719 173.039062 10.984375 C 172.886719 10.90625 172.734375 10.820312 172.574219 10.746094 C 172.171875 10.546875 171.761719 10.359375 171.34375 10.183594 C 171.296875 10.160156 171.25 10.140625 171.203125 10.117188 C 170.738281 9.925781 170.273438 9.75 169.804688 9.585938 C 169.648438 9.535156 169.492188 9.488281 169.335938 9.4375 C 169.011719 9.332031 168.683594 9.230469 168.359375 9.140625 C 168.175781 9.089844 167.992188 9.042969 167.808594 8.996094 C 167.496094 8.917969 167.1875 8.84375 166.875 8.777344 C 166.6875 8.738281 166.5 8.699219 166.316406 8.664062 C 165.984375 8.601562 165.652344 8.546875 165.320312 8.5 C 165.15625 8.472656 164.992188 8.445312 164.824219 8.425781 C 164.375 8.367188 163.925781 8.324219 163.476562 8.292969 C 163.425781 8.289062 163.378906 8.28125 163.324219 8.277344 C 162.828125 8.246094 162.324219 8.230469 161.820312 8.230469 C 161.417969 8.226562 161.011719 8.234375 160.609375 8.25 C 160.570312 8.25 160.53125 8.257812 160.492188 8.257812 C 160.117188 8.277344 159.742188 8.304688 159.367188 8.339844 C 159.230469 8.355469 159.097656 8.371094 158.964844 8.386719 C 158.679688 8.417969 158.394531 8.457031 158.109375 8.496094 C 157.964844 8.519531 157.820312 8.542969 157.671875 8.566406 C 157.382812 8.613281 157.097656 8.667969 156.8125 8.726562 C 156.683594 8.75 156.554688 8.777344 156.425781 8.804688 C 156.019531 8.894531 155.613281 8.992188 155.207031 9.105469 C 155.171875 9.113281 155.136719 9.125 155.101562 9.136719 C 154.734375 9.238281 154.367188 9.355469 154 9.476562 C 153.867188 9.519531 153.738281 9.570312 153.605469 9.613281 C 153.332031 9.710938 153.0625 9.808594 152.792969 9.917969 C 152.648438 9.972656 152.507812 10.03125 152.363281 10.089844 C 152.089844 10.203125 151.820312 10.320312 151.554688 10.445312 C 151.429688 10.503906 151.304688 10.558594 151.179688 10.617188 C 150.792969 10.804688 150.410156 10.996094 150.03125 11.203125 C 150.007812 11.21875 149.988281 11.230469 149.960938 11.246094 C 149.605469 11.441406 149.253906 11.648438 148.902344 11.867188 C 148.785156 11.9375 148.664062 12.019531 148.542969 12.09375 C 148.289062 12.257812 148.035156 12.425781 147.785156 12.601562 C 147.65625 12.691406 147.527344 12.78125 147.402344 12.875 C 147.152344 13.058594 146.902344 13.246094 146.65625 13.4375 C 146.546875 13.523438 146.429688 13.613281 146.324219 13.703125 C 145.972656 13.984375 145.628906 14.277344 145.289062 14.585938 C 130.667969 27.84375 121.359375 49.59375 121.359375 79.988281 C 121.359375 84.648438 121.847656 89.363281 122.746094 94.089844 C 122.894531 94.875 123.054688 95.664062 123.226562 96.453125 C 124.082031 100.390625 125.210938 104.328125 126.5625 108.242188 C 127.644531 111.371094 128.867188 114.488281 130.207031 117.574219 L 130.207031 117.582031 C 140.246094 140.683594 156.886719 162.1875 169.667969 176.71875 C 167.726562 178.570312 166.070312 180.71875 164.78125 183.09375 C 151.34375 167.957031 133.652344 145.285156 122.980469 120.726562 C 122.953125 120.660156 122.925781 120.589844 122.898438 120.527344 C 120.8125 115.71875 119.082031 111 117.6875 106.382812 C 117.136719 106.019531 116.582031 105.667969 116.03125 105.320312 C 115.085938 104.722656 114.132812 104.140625 113.179688 103.582031 C 111.105469 102.378906 109.007812 101.265625 106.878906 100.257812 C 104.042969 98.910156 101.15625 97.746094 98.222656 96.792969 C 97.371094 96.515625 96.527344 96.253906 95.6875 96 C 95.417969 95.914062 95.148438 95.839844 94.878906 95.757812 C 94.3125 95.589844 93.746094 95.421875 93.179688 95.257812 C 92.863281 95.167969 92.550781 95.082031 92.234375 94.996094 C 91.714844 94.851562 91.199219 94.710938 90.6875 94.574219 C 90.359375 94.488281 90.035156 94.40625 89.710938 94.324219 C 89.210938 94.195312 88.714844 94.070312 88.21875 93.949219 C 87.890625 93.871094 87.566406 93.792969 87.242188 93.71875 C 86.746094 93.597656 86.25 93.488281 85.753906 93.378906 C 85.445312 93.308594 85.132812 93.238281 84.824219 93.171875 C 84.304688 93.058594 83.789062 92.953125 83.273438 92.855469 C 82.996094 92.796875 82.714844 92.738281 82.4375 92.683594 C 81.851562 92.570312 81.269531 92.464844 80.6875 92.363281 C 80.484375 92.328125 80.28125 92.289062 80.082031 92.253906 C 79.292969 92.117188 78.503906 91.992188 77.722656 91.875 C 77.722656 91.875 77.714844 91.875 77.714844 91.875 C 76.949219 91.757812 76.1875 91.652344 75.429688 91.558594 C 75.203125 91.527344 74.980469 91.503906 74.757812 91.476562 C 74.222656 91.414062 73.6875 91.351562 73.160156 91.292969 C 72.886719 91.269531 72.621094 91.242188 72.351562 91.214844 C 71.871094 91.167969 71.394531 91.125 70.917969 91.085938 C 70.632812 91.0625 70.347656 91.039062 70.0625 91.019531 C 69.605469 90.984375 69.152344 90.957031 68.699219 90.929688 C 68.410156 90.910156 68.117188 90.894531 67.832031 90.878906 C 67.382812 90.859375 66.941406 90.839844 66.496094 90.824219 C 66.210938 90.8125 65.929688 90.804688 65.648438 90.796875 C 65.195312 90.785156 64.746094 90.777344 64.296875 90.773438 C 64.03125 90.769531 63.765625 90.761719 63.503906 90.761719 C 63.191406 90.761719 62.886719 90.769531 62.582031 90.769531 C 62.089844 90.773438 61.601562 90.777344 61.113281 90.789062 C 60.804688 90.800781 60.492188 90.8125 60.183594 90.820312 C 59.714844 90.839844 59.253906 90.859375 58.789062 90.882812 C 58.476562 90.898438 58.164062 90.917969 57.855469 90.9375 C 57.398438 90.964844 56.945312 91 56.496094 91.035156 C 56.1875 91.0625 55.886719 91.089844 55.582031 91.117188 C 55.128906 91.160156 54.671875 91.207031 54.21875 91.257812 C 53.933594 91.289062 53.644531 91.320312 53.355469 91.355469 C 52.886719 91.410156 52.421875 91.476562 51.957031 91.542969 C 51.695312 91.578125 51.429688 91.613281 51.171875 91.652344 C 50.660156 91.730469 50.152344 91.816406 49.648438 91.90625 C 49.441406 91.941406 49.230469 91.972656 49.027344 92.007812 C 47.601562 92.269531 46.203125 92.570312 44.828125 92.90625 C 44.65625 92.953125 44.488281 93 44.320312 93.042969 C 43.8125 93.171875 43.304688 93.304688 42.804688 93.441406 C 42.574219 93.507812 42.339844 93.578125 42.109375 93.648438 C 41.679688 93.773438 41.246094 93.902344 40.820312 94.035156 C 40.566406 94.113281 40.320312 94.199219 40.066406 94.28125 C 39.667969 94.410156 39.265625 94.542969 38.875 94.679688 C 38.617188 94.769531 38.359375 94.863281 38.105469 94.957031 C 37.71875 95.097656 37.339844 95.238281 36.960938 95.382812 C 36.707031 95.480469 36.453125 95.582031 36.199219 95.683594 C 35.824219 95.835938 35.453125 95.988281 35.078125 96.148438 C 34.832031 96.25 34.585938 96.355469 34.339844 96.460938 C 33.964844 96.628906 33.589844 96.800781 33.222656 96.96875 C 32.992188 97.078125 32.761719 97.183594 32.53125 97.292969 C 32.128906 97.484375 31.730469 97.683594 31.332031 97.886719 C 31.144531 97.980469 30.953125 98.074219 30.769531 98.167969 C 30.1875 98.46875 29.613281 98.777344 29.046875 99.097656 C 27.738281 99.835938 26.523438 100.667969 25.410156 101.585938 C 24.300781 102.503906 23.289062 103.503906 22.386719 104.574219 C 21.78125 105.285156 21.222656 106.027344 20.714844 106.796875 C 20.199219 107.5625 19.734375 108.355469 19.320312 109.167969 C 19.113281 109.574219 18.914062 109.988281 18.730469 110.402344 C 18.359375 111.234375 18.035156 112.089844 17.765625 112.953125 C 17.492188 113.820312 17.265625 114.699219 17.085938 115.585938 C 16.910156 116.476562 16.78125 117.375 16.703125 118.273438 C 16.664062 118.730469 16.636719 119.179688 16.625 119.632812 C 16.566406 121.445312 16.707031 123.269531 17.054688 125.066406 C 17.226562 125.964844 17.453125 126.855469 17.730469 127.738281 C 18.140625 129.058594 18.675781 130.355469 19.324219 131.613281 C 20.402344 133.703125 21.816406 135.683594 23.566406 137.480469 L 25.945312 139.925781 C 26.371094 140.359375 26.628906 140.867188 26.738281 141.394531 C 26.796875 141.65625 26.816406 141.921875 26.800781 142.1875 C 26.769531 142.714844 26.605469 143.230469 26.320312 143.675781 C 25.890625 144.339844 25.195312 144.847656 24.296875 145.003906 L 20.644531 145.628906 C 17.195312 146.226562 14.070312 147.496094 11.363281 149.273438 C 10.976562 149.523438 10.601562 149.789062 10.230469 150.0625 C 9.492188 150.609375 8.789062 151.199219 8.121094 151.820312 C 7.457031 152.445312 6.824219 153.097656 6.238281 153.789062 C 5.058594 155.164062 4.035156 156.667969 3.1875 158.265625 C 2.765625 159.0625 2.386719 159.882812 2.050781 160.722656 C 1.71875 161.5625 1.429688 162.421875 1.1875 163.296875 C 0.707031 165.046875 0.417969 166.855469 0.335938 168.691406 C 0.3125 169.152344 0.308594 169.613281 0.3125 170.078125 C 0.355469 173.3125 1.046875 176.617188 2.484375 179.808594 C 6.023438 187.6875 11.421875 195.097656 18.800781 201.730469 C 21.433594 204.097656 24.320312 206.367188 27.460938 208.519531 C 28.71875 209.382812 30.019531 210.230469 31.359375 211.050781 C 38.730469 215.589844 47.355469 219.550781 57.289062 222.777344 C 58.210938 223.078125 59.144531 223.347656 60.082031 223.609375 C 60.347656 223.683594 60.613281 223.753906 60.878906 223.828125 C 61.625 224.023438 62.375 224.210938 63.132812 224.386719 C 63.351562 224.4375 63.574219 224.492188 63.792969 224.539062 C 64.742188 224.753906 65.699219 224.949219 66.660156 225.125 C 66.875 225.164062 67.089844 225.195312 67.304688 225.234375 C 68.082031 225.367188 68.867188 225.492188 69.65625 225.609375 C 69.9375 225.652344 70.222656 225.691406 70.503906 225.730469 C 71.425781 225.855469 72.351562 225.964844 73.28125 226.0625 C 73.347656 226.070312 73.417969 226.082031 73.484375 226.085938 C 74.480469 226.1875 75.480469 226.265625 76.488281 226.335938 C 76.769531 226.355469 77.050781 226.371094 77.332031 226.386719 C 78.125 226.4375 78.921875 226.472656 79.71875 226.5 C 79.96875 226.511719 80.21875 226.523438 80.46875 226.53125 C 81.480469 226.5625 82.496094 226.578125 83.515625 226.578125 C 83.769531 226.578125 84.027344 226.574219 84.285156 226.570312 C 84.949219 226.570312 85.617188 226.5625 86.285156 226.546875 C 86.621094 226.539062 86.957031 226.527344 87.292969 226.515625 C 87.902344 226.5 88.515625 226.472656 89.125 226.445312 C 89.46875 226.429688 89.804688 226.414062 90.148438 226.398438 C 90.789062 226.363281 91.4375 226.320312 92.078125 226.277344 C 92.375 226.257812 92.671875 226.238281 92.96875 226.214844 C 93.902344 226.144531 94.835938 226.066406 95.773438 225.976562 L 95.777344 225.980469 C 96.609375 225.898438 97.441406 225.8125 98.273438 225.714844 C 102.433594 225.246094 106.59375 224.59375 110.730469 223.804688 C 112.382812 223.488281 114.03125 223.148438 115.671875 222.789062 C 124.699219 220.816406 133.5 218.234375 141.671875 215.445312 C 142.414062 215.191406 143.152344 214.933594 143.882812 214.679688 C 147.546875 213.398438 151.070312 212.078125 154.417969 210.765625 C 155.089844 210.5 155.75 210.238281 156.40625 209.972656 C 159.148438 208.875 161.757812 207.785156 164.214844 206.726562 C 165.398438 209.164062 166.953125 211.386719 168.800781 213.332031 C 150.25 221.433594 123.207031 231.261719 96.535156 233.824219 C 96.460938 233.832031 96.390625 233.839844 96.320312 233.84375 C 91.976562 234.253906 87.71875 234.464844 83.660156 234.464844 C 82.855469 234.464844 82.0625 234.4375 81.261719 234.421875 C 81.132812 234.527344 81 234.625 80.871094 234.730469 C 78.988281 236.253906 77.171875 237.832031 75.441406 239.46875 C 73.710938 241.101562 72.058594 242.796875 70.503906 244.542969 C 68.949219 246.296875 67.484375 248.105469 66.125 249.976562 C 65.019531 251.5 63.957031 253.015625 62.945312 254.53125 C 59.40625 259.824219 56.453125 265.035156 54.046875 270.148438 C 52.667969 273.070312 51.472656 275.960938 50.453125 278.8125 C 49.175781 282.375 48.167969 285.882812 47.421875 289.324219 C 47.121094 290.699219 46.863281 292.066406 46.644531 293.417969 C 46.320312 295.449219 46.082031 297.457031 45.9375 299.4375 C 45.839844 300.757812 45.78125 302.0625 45.761719 303.359375 C 45.691406 307.894531 46.09375 312.269531 46.9375 316.476562 C 47.027344 316.921875 47.132812 317.359375 47.242188 317.789062 C 47.277344 317.917969 47.3125 318.042969 47.347656 318.171875 C 47.433594 318.488281 47.523438 318.800781 47.621094 319.105469 C 47.660156 319.234375 47.703125 319.363281 47.742188 319.488281 C 47.875 319.875 48.007812 320.253906 48.15625 320.632812 C 48.167969 320.660156 48.175781 320.6875 48.1875 320.71875 C 48.347656 321.117188 48.519531 321.515625 48.699219 321.90625 C 48.75 322.015625 48.804688 322.125 48.855469 322.234375 C 48.996094 322.523438 49.136719 322.808594 49.28125 323.085938 C 49.34375 323.199219 49.402344 323.3125 49.464844 323.425781 C 49.648438 323.757812 49.835938 324.085938 50.03125 324.40625 C 50.054688 324.445312 50.074219 324.484375 50.101562 324.523438 C 50.324219 324.886719 50.554688 325.234375 50.796875 325.582031 C 50.859375 325.671875 50.925781 325.761719 50.992188 325.855469 C 51.175781 326.109375 51.363281 326.367188 51.558594 326.617188 C 51.632812 326.714844 51.710938 326.8125 51.785156 326.90625 C 52.011719 327.1875 52.242188 327.460938 52.476562 327.730469 C 52.515625 327.773438 52.550781 327.820312 52.59375 327.863281 C 52.871094 328.175781 53.15625 328.476562 53.445312 328.773438 C 53.519531 328.847656 53.59375 328.917969 53.667969 328.988281 C 53.894531 329.214844 54.125 329.433594 54.359375 329.648438 C 54.449219 329.730469 54.539062 329.8125 54.628906 329.894531 C 54.886719 330.121094 55.148438 330.34375 55.414062 330.5625 C 55.472656 330.605469 55.523438 330.652344 55.578125 330.695312 C 55.902344 330.953125 56.230469 331.203125 56.566406 331.445312 C 56.640625 331.5 56.722656 331.550781 56.800781 331.605469 C 57.0625 331.792969 57.328125 331.972656 57.597656 332.144531 C 57.703125 332.210938 57.804688 332.277344 57.90625 332.339844 C 58.191406 332.515625 58.476562 332.6875 58.761719 332.851562 C 58.835938 332.890625 58.90625 332.933594 58.976562 332.976562 C 59.332031 333.171875 59.699219 333.363281 60.066406 333.546875 C 60.148438 333.585938 60.230469 333.625 60.3125 333.664062 C 60.605469 333.804688 60.898438 333.9375 61.195312 334.066406 C 61.3125 334.117188 61.425781 334.164062 61.539062 334.210938 C 61.835938 334.332031 62.132812 334.449219 62.4375 334.5625 C 62.523438 334.59375 62.613281 334.628906 62.699219 334.660156 C 63.085938 334.800781 63.476562 334.929688 63.867188 335.046875 C 63.949219 335.070312 64.03125 335.089844 64.113281 335.117188 C 64.429688 335.207031 64.746094 335.292969 65.0625 335.375 C 65.1875 335.402344 65.3125 335.433594 65.4375 335.460938 C 65.738281 335.53125 66.046875 335.597656 66.355469 335.652344 C 66.457031 335.675781 66.558594 335.695312 66.664062 335.714844 C 67.066406 335.785156 67.476562 335.847656 67.882812 335.898438 C 67.960938 335.910156 68.039062 335.917969 68.117188 335.925781 C 68.449219 335.964844 68.785156 335.996094 69.125 336.023438 C 69.253906 336.03125 69.382812 336.039062 69.515625 336.046875 C 69.820312 336.066406 70.132812 336.078125 70.441406 336.082031 C 70.554688 336.085938 70.667969 336.089844 70.78125 336.089844 C 71.03125 336.089844 71.285156 336.082031 71.535156 336.078125 C 71.75 336.070312 71.960938 336.070312 72.175781 336.058594 C 72.421875 336.046875 72.667969 336.023438 72.914062 336.003906 C 73.125 335.984375 73.339844 335.972656 73.554688 335.949219 C 73.804688 335.921875 74.050781 335.882812 74.296875 335.847656 C 74.507812 335.820312 74.722656 335.792969 74.933594 335.757812 C 75.183594 335.714844 75.433594 335.664062 75.679688 335.613281 C 75.890625 335.570312 76.101562 335.535156 76.3125 335.484375 C 76.566406 335.429688 76.816406 335.355469 77.066406 335.292969 C 77.273438 335.238281 77.480469 335.1875 77.6875 335.128906 C 77.945312 335.054688 78.207031 334.964844 78.46875 334.878906 C 78.664062 334.816406 78.855469 334.761719 79.050781 334.6875 C 79.34375 334.585938 79.632812 334.464844 79.925781 334.351562 C 80.085938 334.289062 80.246094 334.234375 80.40625 334.164062 C 80.847656 333.976562 81.285156 333.78125 81.71875 333.566406 C 81.730469 333.558594 81.738281 333.558594 81.75 333.550781 L 84.808594 332.042969 C 84.933594 331.980469 85.058594 331.929688 85.1875 331.886719 C 85.226562 331.871094 85.265625 331.863281 85.308594 331.851562 C 85.394531 331.828125 85.484375 331.800781 85.570312 331.785156 C 85.617188 331.773438 85.660156 331.769531 85.707031 331.761719 C 85.792969 331.75 85.878906 331.738281 85.964844 331.734375 C 86.003906 331.730469 86.046875 331.730469 86.089844 331.730469 C 86.109375 331.730469 86.125 331.726562 86.144531 331.726562 C 86.234375 331.726562 86.324219 331.730469 86.410156 331.738281 C 86.425781 331.738281 86.441406 331.738281 86.457031 331.742188 C 86.582031 331.757812 86.699219 331.777344 86.820312 331.804688 C 86.851562 331.8125 86.886719 331.824219 86.921875 331.832031 C 87.007812 331.855469 87.089844 331.882812 87.167969 331.910156 C 87.207031 331.925781 87.25 331.941406 87.285156 331.957031 C 87.363281 331.988281 87.4375 332.023438 87.511719 332.0625 C 87.546875 332.082031 87.582031 332.097656 87.617188 332.117188 C 87.710938 332.167969 87.800781 332.226562 87.886719 332.289062 C 87.898438 332.296875 87.910156 332.300781 87.917969 332.308594 C 88.015625 332.378906 88.109375 332.457031 88.195312 332.539062 C 88.222656 332.566406 88.246094 332.589844 88.273438 332.617188 C 88.335938 332.675781 88.390625 332.738281 88.449219 332.804688 C 88.476562 332.835938 88.5 332.867188 88.527344 332.902344 C 88.578125 332.96875 88.628906 333.035156 88.675781 333.105469 C 88.695312 333.136719 88.71875 333.171875 88.738281 333.203125 C 88.796875 333.300781 88.851562 333.402344 88.898438 333.507812 C 88.902344 333.511719 88.90625 333.519531 88.90625 333.527344 C 88.960938 333.636719 89 333.753906 89.035156 333.875 C 89.046875 333.910156 89.054688 333.949219 89.066406 333.984375 C 89.085938 334.074219 89.105469 334.15625 89.121094 334.246094 C 89.128906 334.289062 89.132812 334.335938 89.136719 334.378906 C 89.148438 334.46875 89.15625 334.558594 89.15625 334.652344 C 89.15625 334.691406 89.160156 334.734375 89.160156 334.777344 C 89.15625 334.90625 89.148438 335.042969 89.128906 335.179688 L 88.597656 338.847656 C 88.597656 338.855469 88.597656 338.863281 88.59375 338.871094 C 88.527344 339.34375 88.472656 339.816406 88.433594 340.285156 C 88.417969 340.445312 88.414062 340.605469 88.40625 340.765625 C 88.382812 341.082031 88.363281 341.394531 88.351562 341.710938 C 88.34375 341.898438 88.351562 342.085938 88.347656 342.273438 C 88.347656 342.554688 88.34375 342.835938 88.355469 343.117188 C 88.359375 343.3125 88.371094 343.511719 88.382812 343.707031 C 88.398438 343.976562 88.410156 344.242188 88.433594 344.507812 C 88.453125 344.707031 88.472656 344.910156 88.496094 345.105469 C 88.523438 345.363281 88.554688 345.621094 88.589844 345.878906 C 88.621094 346.078125 88.65625 346.277344 88.6875 346.476562 C 88.730469 346.726562 88.773438 346.976562 88.824219 347.226562 C 88.863281 347.421875 88.910156 347.617188 88.953125 347.816406 C 89.011719 348.0625 89.066406 348.304688 89.128906 348.546875 C 89.183594 348.742188 89.234375 348.9375 89.292969 349.128906 C 89.359375 349.367188 89.433594 349.605469 89.511719 349.84375 C 89.570312 350.03125 89.636719 350.222656 89.699219 350.410156 C 89.785156 350.648438 89.867188 350.878906 89.957031 351.109375 C 90.027344 351.296875 90.101562 351.480469 90.179688 351.664062 C 90.273438 351.894531 90.371094 352.121094 90.476562 352.347656 C 90.554688 352.527344 90.636719 352.703125 90.71875 352.878906 C 90.828125 353.105469 90.941406 353.328125 91.058594 353.550781 C 91.144531 353.722656 91.230469 353.890625 91.324219 354.058594 C 91.445312 354.28125 91.574219 354.503906 91.703125 354.722656 C 91.800781 354.882812 91.890625 355.046875 91.988281 355.203125 C 92.128906 355.425781 92.273438 355.644531 92.417969 355.859375 C 92.515625 356.011719 92.613281 356.164062 92.714844 356.308594 C 92.871094 356.535156 93.035156 356.75 93.203125 356.972656 C 93.300781 357.105469 93.398438 357.242188 93.496094 357.371094 C 93.683594 357.605469 93.875 357.835938 94.066406 358.066406 C 94.15625 358.175781 94.242188 358.28125 94.335938 358.390625 C 94.585938 358.675781 94.84375 358.957031 95.109375 359.234375 C 95.148438 359.273438 95.1875 359.316406 95.222656 359.359375 C 95.535156 359.679688 95.847656 359.988281 96.175781 360.289062 C 96.234375 360.347656 96.300781 360.398438 96.363281 360.457031 C 96.625 360.695312 96.890625 360.933594 97.167969 361.160156 C 97.277344 361.253906 97.398438 361.34375 97.511719 361.4375 C 97.738281 361.621094 97.96875 361.800781 98.199219 361.976562 C 98.335938 362.078125 98.480469 362.175781 98.617188 362.273438 C 98.835938 362.433594 99.054688 362.589844 99.28125 362.738281 C 99.433594 362.839844 99.589844 362.933594 99.742188 363.03125 C 99.960938 363.171875 100.179688 363.308594 100.402344 363.441406 C 100.566406 363.539062 100.730469 363.628906 100.894531 363.722656 C 101.117188 363.84375 101.339844 363.96875 101.566406 364.085938 C 101.738281 364.175781 101.910156 364.261719 102.085938 364.34375 C 102.308594 364.457031 102.535156 364.566406 102.761719 364.667969 C 102.941406 364.75 103.125 364.828125 103.304688 364.902344 C 103.535156 365 103.765625 365.09375 103.996094 365.1875 C 104.183594 365.257812 104.371094 365.328125 104.5625 365.394531 C 104.792969 365.480469 105.027344 365.558594 105.265625 365.632812 C 105.457031 365.695312 105.648438 365.757812 105.84375 365.816406 C 106.085938 365.886719 106.324219 365.953125 106.566406 366.015625 C 106.761719 366.070312 106.957031 366.121094 107.15625 366.167969 C 107.402344 366.226562 107.648438 366.277344 107.894531 366.328125 C 108.09375 366.371094 108.296875 366.410156 108.5 366.445312 C 108.75 366.492188 109 366.53125 109.253906 366.566406 C 109.457031 366.597656 109.660156 366.625 109.863281 366.648438 C 110.121094 366.683594 110.378906 366.703125 110.640625 366.730469 C 110.84375 366.746094 111.046875 366.765625 111.253906 366.777344 C 111.519531 366.792969 111.789062 366.800781 112.0625 366.808594 C 112.261719 366.816406 112.457031 366.828125 112.660156 366.828125 C 112.96875 366.828125 113.285156 366.820312 113.597656 366.808594 C 113.753906 366.800781 113.910156 366.804688 114.070312 366.792969 C 114.539062 366.769531 115.015625 366.734375 115.492188 366.683594 C 119.171875 366.285156 122.871094 365.53125 126.578125 364.414062 C 128.433594 363.855469 130.289062 363.203125 132.140625 362.457031 C 133.992188 361.714844 135.847656 360.875 137.691406 359.9375 C 138.308594 359.628906 138.921875 359.304688 139.535156 358.96875 C 140.765625 358.304688 141.996094 357.597656 143.214844 356.84375 C 143.828125 356.464844 144.441406 356.078125 145.050781 355.679688 C 146.882812 354.488281 148.703125 353.191406 150.515625 351.796875 C 152.332031 350.40625 154.132812 348.910156 155.921875 347.3125 C 161.886719 341.984375 167.710938 335.519531 173.289062 327.835938 C 176.03125 324.0625 178.40625 319.960938 180.460938 315.613281 C 181.144531 314.167969 181.792969 312.6875 182.40625 311.1875 C 183.019531 309.6875 183.597656 308.164062 184.148438 306.617188 C 185.484375 302.84375 186.621094 298.941406 187.589844 294.964844 C 187.808594 294.054688 188.023438 293.140625 188.226562 292.226562 L 188.230469 292.222656 C 191.664062 276.738281 192.613281 260.234375 192.394531 245.316406 C 192.382812 244.535156 192.367188 243.75 192.351562 242.976562 C 192.167969 235.074219 191.671875 227.675781 191.066406 221.175781 C 193.789062 220.808594 196.378906 220.027344 198.765625 218.882812 C 200.742188 239.027344 201.730469 267.773438 195.929688 293.925781 C 195.910156 293.996094 195.894531 294.066406 195.875 294.136719 C 194.734375 299.25 193.363281 304.085938 191.777344 308.640625 C 191.835938 308.796875 191.890625 308.949219 191.945312 309.101562 C 192.523438 310.609375 193.136719 312.097656 193.78125 313.558594 C 194.75 315.75 195.792969 317.882812 196.921875 319.949219 C 197.675781 321.332031 198.460938 322.675781 199.289062 323.996094 C 199.703125 324.652344 200.125 325.300781 200.5625 325.941406 C 200.992188 326.582031 201.433594 327.214844 201.890625 327.835938 C 204.105469 330.886719 206.355469 333.742188 208.640625 336.414062 C 209.785156 337.75 210.933594 339.035156 212.089844 340.28125 C 213.246094 341.523438 214.410156 342.714844 215.582031 343.867188 C 220.851562 349.046875 226.25 353.300781 231.710938 356.6875 C 232.921875 357.441406 234.136719 358.152344 235.355469 358.820312 C 235.964844 359.152344 236.578125 359.476562 237.1875 359.789062 C 244.511719 363.539062 251.90625 365.78125 259.207031 366.636719 C 259.210938 366.636719 259.210938 366.636719 259.210938 366.636719 C 259.703125 366.695312 260.191406 366.734375 260.679688 366.765625 C 260.835938 366.773438 260.992188 366.773438 261.152344 366.777344 C 261.480469 366.789062 261.804688 366.804688 262.132812 366.804688 C 262.273438 366.804688 262.410156 366.792969 262.550781 366.792969 C 262.878906 366.785156 263.210938 366.78125 263.539062 366.761719 C 263.71875 366.75 263.898438 366.730469 264.082031 366.714844 C 264.359375 366.691406 264.644531 366.667969 264.921875 366.636719 C 265.117188 366.613281 265.3125 366.582031 265.503906 366.554688 C 265.765625 366.519531 266.027344 366.480469 266.285156 366.4375 C 266.488281 366.402344 266.683594 366.359375 266.882812 366.320312 C 267.128906 366.269531 267.378906 366.21875 267.621094 366.160156 C 267.824219 366.113281 268.023438 366.0625 268.222656 366.007812 C 268.457031 365.945312 268.699219 365.882812 268.929688 365.8125 C 269.132812 365.753906 269.332031 365.691406 269.527344 365.625 C 269.757812 365.554688 269.984375 365.476562 270.214844 365.394531 C 270.410156 365.324219 270.605469 365.25 270.800781 365.175781 C 271.023438 365.089844 271.242188 365 271.460938 364.910156 C 271.65625 364.828125 271.847656 364.742188 272.039062 364.65625 C 272.253906 364.5625 272.464844 364.460938 272.671875 364.359375 C 272.863281 364.265625 273.054688 364.171875 273.242188 364.074219 C 273.449219 363.96875 273.652344 363.855469 273.851562 363.742188 C 274.035156 363.636719 274.222656 363.539062 274.402344 363.429688 C 274.601562 363.3125 274.800781 363.1875 274.996094 363.066406 C 275.171875 362.953125 275.351562 362.84375 275.523438 362.726562 C 275.71875 362.59375 275.90625 362.460938 276.097656 362.324219 C 276.265625 362.203125 276.4375 362.085938 276.601562 361.964844 C 276.792969 361.820312 276.976562 361.671875 277.160156 361.527344 C 277.320312 361.402344 277.484375 361.277344 277.640625 361.144531 C 277.824219 360.992188 278.003906 360.828125 278.183594 360.671875 C 278.332031 360.539062 278.484375 360.40625 278.632812 360.269531 C 278.820312 360.09375 279 359.914062 279.1875 359.730469 C 279.3125 359.601562 279.445312 359.480469 279.570312 359.347656 C 279.871094 359.039062 280.164062 358.71875 280.449219 358.394531 C 280.558594 358.265625 280.664062 358.132812 280.773438 358.003906 C 280.945312 357.796875 281.121094 357.589844 281.285156 357.375 C 281.40625 357.222656 281.519531 357.0625 281.636719 356.902344 C 281.78125 356.707031 281.929688 356.511719 282.070312 356.3125 C 282.1875 356.144531 282.296875 355.972656 282.410156 355.800781 C 282.539062 355.605469 282.671875 355.410156 282.796875 355.210938 C 282.90625 355.03125 283.007812 354.847656 283.117188 354.667969 C 283.234375 354.46875 283.351562 354.265625 283.464844 354.0625 C 283.566406 353.878906 283.660156 353.691406 283.757812 353.503906 C 283.863281 353.296875 283.972656 353.089844 284.070312 352.878906 C 284.164062 352.6875 284.246094 352.496094 284.335938 352.304688 C 284.429688 352.089844 284.523438 351.875 284.613281 351.660156 C 284.695312 351.464844 284.773438 351.265625 284.847656 351.066406 C 284.933594 350.847656 285.011719 350.628906 285.09375 350.40625 C 285.164062 350.207031 285.230469 350.003906 285.296875 349.800781 C 285.367188 349.578125 285.4375 349.347656 285.503906 349.121094 C 285.5625 348.917969 285.621094 348.714844 285.671875 348.507812 C 285.734375 348.277344 285.789062 348.039062 285.84375 347.804688 C 285.890625 347.597656 285.9375 347.394531 285.976562 347.1875 C 286.027344 346.945312 286.070312 346.699219 286.109375 346.457031 C 286.144531 346.253906 286.179688 346.046875 286.210938 345.839844 C 286.246094 345.589844 286.277344 345.335938 286.304688 345.082031 C 286.328125 344.878906 286.351562 344.675781 286.367188 344.472656 C 286.390625 344.207031 286.402344 343.945312 286.421875 343.679688 C 286.429688 343.480469 286.445312 343.28125 286.449219 343.082031 C 286.457031 342.800781 286.457031 342.519531 286.453125 342.234375 C 286.453125 342.046875 286.457031 341.863281 286.449219 341.671875 C 286.4375 341.355469 286.417969 341.035156 286.398438 340.71875 C 286.386719 340.558594 286.382812 340.402344 286.367188 340.246094 C 286.328125 339.765625 286.273438 339.289062 286.203125 338.804688 L 285.710938 335.429688 C 285.691406 335.292969 285.683594 335.15625 285.683594 335.023438 C 285.683594 334.984375 285.683594 334.941406 285.683594 334.902344 C 285.691406 334.808594 285.695312 334.714844 285.703125 334.625 C 285.707031 334.582031 285.714844 334.539062 285.722656 334.492188 C 285.734375 334.40625 285.757812 334.320312 285.78125 334.234375 C 285.789062 334.199219 285.796875 334.160156 285.804688 334.121094 C 285.84375 334.003906 285.882812 333.886719 285.933594 333.773438 C 285.9375 333.769531 285.941406 333.761719 285.941406 333.757812 C 285.992188 333.652344 286.046875 333.550781 286.105469 333.449219 C 286.125 333.417969 286.144531 333.386719 286.167969 333.355469 C 286.214844 333.28125 286.261719 333.214844 286.316406 333.148438 C 286.339844 333.117188 286.367188 333.085938 286.394531 333.050781 C 286.449219 332.988281 286.507812 332.925781 286.570312 332.863281 C 286.59375 332.835938 286.617188 332.8125 286.644531 332.789062 C 286.734375 332.707031 286.824219 332.628906 286.921875 332.558594 C 286.929688 332.550781 286.941406 332.546875 286.949219 332.539062 C 287.039062 332.476562 287.132812 332.417969 287.226562 332.363281 C 287.257812 332.34375 287.292969 332.328125 287.328125 332.308594 C 287.402344 332.273438 287.480469 332.238281 287.554688 332.203125 C 287.59375 332.191406 287.632812 332.175781 287.671875 332.160156 C 287.753906 332.132812 287.839844 332.105469 287.921875 332.082031 C 287.953125 332.070312 287.988281 332.058594 288.023438 332.050781 C 288.140625 332.023438 288.261719 332.003906 288.382812 331.988281 C 288.398438 331.988281 288.414062 331.988281 288.429688 331.988281 C 288.519531 331.980469 288.605469 331.972656 288.695312 331.972656 C 288.714844 331.972656 288.734375 331.976562 288.753906 331.976562 C 288.792969 331.976562 288.835938 331.980469 288.878906 331.984375 C 288.964844 331.988281 289.050781 331.996094 289.136719 332.007812 C 289.179688 332.015625 289.226562 332.023438 289.273438 332.035156 C 289.359375 332.050781 289.445312 332.074219 289.535156 332.101562 C 289.574219 332.113281 289.613281 332.121094 289.65625 332.132812 C 289.78125 332.175781 289.90625 332.230469 290.03125 332.289062 L 293.355469 333.929688 C 293.363281 333.929688 293.371094 333.933594 293.378906 333.941406 C 293.816406 334.152344 294.253906 334.351562 294.695312 334.539062 C 294.847656 334.601562 295 334.65625 295.152344 334.714844 C 295.449219 334.835938 295.75 334.957031 296.046875 335.0625 C 296.226562 335.125 296.402344 335.179688 296.582031 335.238281 C 296.859375 335.328125 297.132812 335.421875 297.410156 335.503906 C 297.601562 335.558594 297.789062 335.601562 297.980469 335.652344 C 298.246094 335.722656 298.511719 335.796875 298.78125 335.855469 C 298.980469 335.902344 299.179688 335.9375 299.378906 335.976562 C 299.636719 336.03125 299.894531 336.085938 300.15625 336.132812 C 300.363281 336.164062 300.566406 336.1875 300.773438 336.21875 C 301.027344 336.253906 301.277344 336.292969 301.53125 336.320312 C 301.742188 336.34375 301.953125 336.355469 302.164062 336.371094 C 302.410156 336.394531 302.65625 336.417969 302.902344 336.429688 C 303.117188 336.441406 303.328125 336.445312 303.539062 336.449219 C 303.789062 336.453125 304.042969 336.460938 304.292969 336.460938 C 304.402344 336.460938 304.507812 336.457031 304.621094 336.453125 C 304.933594 336.449219 305.242188 336.4375 305.554688 336.417969 C 305.683594 336.410156 305.8125 336.402344 305.941406 336.394531 C 306.273438 336.371094 306.601562 336.335938 306.929688 336.300781 C 307.011719 336.292969 307.097656 336.285156 307.179688 336.273438 C 307.585938 336.222656 307.992188 336.160156 308.394531 336.085938 C 308.492188 336.070312 308.597656 336.050781 308.695312 336.03125 C 309.003906 335.972656 309.308594 335.910156 309.609375 335.839844 C 309.738281 335.8125 309.863281 335.78125 309.988281 335.75 C 310.300781 335.671875 310.605469 335.589844 310.914062 335.5 C 311.003906 335.472656 311.09375 335.453125 311.183594 335.425781 C 311.574219 335.308594 311.957031 335.179688 312.339844 335.046875 C 312.429688 335.011719 312.523438 334.972656 312.617188 334.941406 C 312.910156 334.832031 313.199219 334.71875 313.492188 334.597656 C 313.609375 334.550781 313.730469 334.5 313.851562 334.449219 C 314.136719 334.324219 314.417969 334.195312 314.699219 334.0625 C 314.792969 334.019531 314.882812 333.976562 314.976562 333.929688 C 315.335938 333.753906 315.695312 333.566406 316.046875 333.371094 C 316.128906 333.324219 316.207031 333.277344 316.289062 333.230469 C 316.566406 333.074219 316.839844 332.914062 317.109375 332.746094 C 317.21875 332.675781 317.332031 332.605469 317.441406 332.53125 C 317.695312 332.367188 317.949219 332.199219 318.199219 332.023438 C 318.289062 331.960938 318.382812 331.898438 318.472656 331.835938 C 318.800781 331.597656 319.121094 331.355469 319.441406 331.105469 C 319.503906 331.054688 319.566406 331 319.632812 330.945312 C 319.886719 330.738281 320.136719 330.527344 320.382812 330.3125 C 320.484375 330.222656 320.582031 330.136719 320.679688 330.046875 C 320.902344 329.839844 321.121094 329.636719 321.335938 329.421875 C 321.421875 329.34375 321.503906 329.261719 321.585938 329.179688 C 321.875 328.890625 322.152344 328.59375 322.429688 328.289062 C 322.472656 328.238281 322.519531 328.183594 322.566406 328.128906 C 322.792969 327.871094 323.015625 327.605469 323.234375 327.335938 C 323.316406 327.238281 323.398438 327.132812 323.480469 327.03125 C 323.667969 326.789062 323.847656 326.542969 324.027344 326.296875 C 324.097656 326.199219 324.167969 326.105469 324.238281 326.003906 C 324.476562 325.664062 324.710938 325.320312 324.929688 324.964844 C 324.957031 324.917969 324.984375 324.871094 325.011719 324.824219 C 325.207031 324.511719 325.390625 324.191406 325.570312 323.871094 C 325.636719 323.753906 325.699219 323.640625 325.757812 323.523438 C 325.902344 323.246094 326.046875 322.972656 326.183594 322.6875 C 326.238281 322.578125 326.292969 322.464844 326.347656 322.351562 C 326.527344 321.964844 326.699219 321.570312 326.863281 321.171875 C 326.875 321.144531 326.882812 321.117188 326.890625 321.089844 C 327.042969 320.714844 327.183594 320.332031 327.316406 319.945312 C 327.355469 319.820312 327.398438 319.695312 327.4375 319.570312 C 327.539062 319.265625 327.632812 318.953125 327.722656 318.640625 C 327.757812 318.511719 327.792969 318.382812 327.828125 318.257812 C 327.941406 317.828125 328.050781 317.394531 328.140625 316.949219 C 329.273438 311.519531 329.675781 305.789062 329.265625 299.8125 C 329.175781 298.484375 329.046875 297.140625 328.871094 295.792969 C 328.699219 294.441406 328.488281 293.078125 328.238281 291.699219 C 327.980469 290.324219 327.683594 288.941406 327.347656 287.542969 C 327.011719 286.144531 326.632812 284.738281 326.207031 283.320312 C 323.035156 272.695312 317.429688 261.503906 309.054688 249.976562 C 307.683594 248.089844 306.210938 246.265625 304.636719 244.5 C 303.589844 243.324219 302.496094 242.171875 301.371094 241.050781 C 300.242188 239.925781 299.074219 238.828125 297.871094 237.753906 C 296.667969 236.683594 295.429688 235.632812 294.160156 234.609375 C 289.714844 231.035156 284.878906 227.757812 279.800781 224.769531 L 279.800781 224.761719 C 258.101562 211.976562 232.007812 204.359375 213.125 200.117188 C 213.402344 198.601562 213.554688 197.050781 213.554688 195.457031 C 213.554688 194.316406 213.46875 193.191406 213.324219 192.085938 C 233.09375 196.433594 260.730469 204.375 283.800781 217.972656 C 283.863281 218.007812 283.925781 218.042969 283.984375 218.082031 C 288.488281 220.746094 292.660156 223.542969 296.5 226.453125 C 296.960938 226.433594 297.425781 226.417969 297.886719 226.386719 C 298.167969 226.371094 298.449219 226.355469 298.734375 226.335938 C 299.679688 226.269531 300.625 226.195312 301.566406 226.097656 C 301.632812 226.09375 301.695312 226.089844 301.757812 226.082031 C 302.753906 225.984375 303.742188 225.859375 304.722656 225.726562 C 304.992188 225.6875 305.257812 225.652344 305.523438 225.613281 C 306.308594 225.5 307.09375 225.371094 307.871094 225.238281 C 308.097656 225.199219 308.324219 225.164062 308.546875 225.121094 C 309.507812 224.945312 310.464844 224.753906 311.414062 224.539062 C 311.617188 224.496094 311.816406 224.441406 312.019531 224.398438 C 312.789062 224.21875 313.554688 224.027344 314.320312 223.828125 C 314.578125 223.753906 314.84375 223.683594 315.105469 223.613281 C 316.039062 223.355469 316.976562 223.078125 317.894531 222.78125 C 335.8125 216.957031 349.46875 208.761719 359.191406 199.082031 C 365.019531 193.273438 369.4375 186.9375 372.503906 180.253906 C 373.972656 177.066406 374.6875 173.761719 374.742188 170.515625 C 374.757812 169.589844 374.71875 168.667969 374.628906 167.753906 C 374.496094 166.382812 374.246094 165.035156 373.886719 163.71875 " fill-opacity="1" fill-rule="nonzero"/></g></svg>