<svg width="3800" height="3800" viewBox="0 0 3800 3800" fill="none" xmlns="http://www.w3.org/2000/svg">
<rect width="3800" height="3800" fill="white"/>
<path d="M583.854 2202.89C471.028 2202.89 387.463 2170.92 333.162 2106.98C313.855 2084.06 298.168 2053.6 286.101 2015.6C274.034 1977.59 268 1931.45 268 1877.16C268 1822.87 276.749 1774.31 294.246 1731.49C312.346 1688.05 336.782 1654.58 367.553 1631.05C427.285 1587.02 499.385 1565 583.854 1565C607.988 1565 631.519 1567.11 654.446 1571.33C677.374 1574.95 694.569 1578.87 706.033 1583.1L722.323 1589.43L719.608 1598.48C678.58 1582.19 633.329 1574.05 583.854 1574.05C519.899 1574.05 466.502 1594.86 423.665 1636.48C391.084 1667.24 368.156 1712.48 354.883 1772.2C347.039 1805.98 343.117 1847.3 343.117 1896.16C343.117 1945.02 350.056 1990.26 363.933 2031.88C377.81 2072.9 393.497 2103.36 410.994 2123.27C429.095 2143.17 450.815 2159.16 476.156 2171.22C501.497 2182.68 521.709 2189.32 536.793 2191.13C551.877 2192.94 569.977 2193.84 591.094 2193.84C612.815 2193.84 637.251 2191.73 664.401 2187.51C691.552 2183.29 712.066 2179.37 725.943 2175.75L746.759 2169.41L749.474 2178.46C703.619 2194.75 648.413 2202.89 583.854 2202.89Z" fill="#111111"/>
<path d="M1014.34 2202.89C950.984 2202.89 899.397 2184.8 859.576 2148.6C819.755 2112.41 799.844 2056.61 799.844 1981.21C799.844 1905.81 820.358 1847.3 861.386 1805.68C903.017 1764.06 955.509 1743.25 1018.86 1743.25C1082.82 1743.25 1134.7 1761.34 1174.53 1797.54C1214.35 1833.73 1234.26 1889.53 1234.26 1964.93C1234.26 2040.33 1213.44 2098.84 1171.81 2140.46C1130.78 2182.08 1078.29 2202.89 1014.34 2202.89ZM1020.67 1750.49C974.816 1750.49 936.805 1771 906.637 1812.01C876.47 1852.43 861.386 1909.13 861.386 1982.12C861.386 2054.5 875.263 2108.19 903.017 2143.17C930.771 2178.16 967.576 2195.65 1013.43 2195.65C1059.29 2195.65 1097.3 2175.45 1127.46 2135.03C1157.63 2094.01 1172.72 2037.31 1172.72 1964.93C1172.72 1891.94 1158.84 1837.95 1131.08 1802.97C1103.33 1767.98 1066.53 1750.49 1020.67 1750.49Z" fill="#111111"/>
<path d="M1520.76 2202.89C1457.41 2202.89 1405.82 2184.8 1366 2148.6C1326.18 2112.41 1306.27 2056.61 1306.27 1981.21C1306.27 1905.81 1326.78 1847.3 1367.81 1805.68C1409.44 1764.06 1461.93 1743.25 1525.29 1743.25C1589.24 1743.25 1641.13 1761.34 1680.95 1797.54C1720.77 1833.73 1740.68 1889.53 1740.68 1964.93C1740.68 2040.33 1719.87 2098.84 1678.24 2140.46C1637.21 2182.08 1584.72 2202.89 1520.76 2202.89ZM1527.1 1750.49C1481.24 1750.49 1443.23 1771 1413.06 1812.01C1382.9 1852.43 1367.81 1909.13 1367.81 1982.12C1367.81 2054.5 1381.69 2108.19 1409.44 2143.17C1437.2 2178.16 1474 2195.65 1519.86 2195.65C1565.71 2195.65 1603.72 2175.45 1633.89 2135.03C1664.06 2094.01 1679.14 2037.31 1679.14 1964.93C1679.14 1891.94 1665.26 1837.95 1637.51 1802.97C1609.76 1767.98 1572.95 1750.49 1527.1 1750.49Z" fill="#111111"/>
<path d="M1887.33 2199.27C1862.59 2199.27 1843.59 2193.84 1830.32 2182.99C1817.65 2172.13 1811.01 2161.27 1810.4 2150.41L1809.5 2135.03V1746.87H1872.85V2135.03C1872.85 2152.52 1876.17 2166.1 1882.81 2175.75C1890.05 2184.8 1896.99 2189.62 1903.62 2190.22L1914.48 2192.03H1942.54V2199.27H1887.33ZM1814.93 1645.53C1807.69 1638.29 1804.07 1629.24 1804.07 1618.38C1804.07 1607.53 1807.69 1598.48 1814.93 1591.24C1822.17 1583.4 1831.22 1579.48 1842.08 1579.48C1852.94 1579.48 1861.99 1583.4 1869.23 1591.24C1877.08 1598.48 1881 1607.53 1881 1618.38C1881 1629.24 1877.08 1638.29 1869.23 1645.53C1861.99 1652.77 1852.94 1656.39 1842.08 1656.39C1831.22 1656.39 1822.17 1652.77 1814.93 1645.53Z" fill="#111111"/>
<path d="M2373 2199.27C2348.26 2199.27 2329.26 2193.84 2315.98 2182.99C2303.31 2172.13 2296.67 2161.27 2296.07 2150.41L2295.17 2135.03V1850.92C2295.17 1803.27 2282.8 1772.81 2258.06 1759.53C2245.39 1753.5 2229.7 1750.49 2211 1750.49C2172.39 1750.49 2137.69 1765.87 2106.92 1796.63C2076.15 1826.79 2060.76 1853.94 2060.76 1878.06V2199.27H1997.41V1746.87H2060.76V1850.02C2071.02 1824.08 2090.03 1799.95 2117.78 1777.63C2145.54 1754.71 2176.01 1743.25 2209.19 1743.25C2242.37 1743.25 2269.22 1746.57 2289.74 1753.2C2310.85 1759.23 2326.24 1767.98 2335.89 1779.44C2350.98 1798.14 2358.52 1822.27 2358.52 1851.83V2135.03C2358.52 2152.52 2361.84 2166.1 2368.47 2175.75C2375.71 2184.8 2382.95 2189.62 2390.19 2190.22L2400.15 2192.03H2428.21V2199.27H2373Z" fill="#111111"/>
<path d="M2460.43 1989.36C2460.43 1910.94 2479.43 1850.32 2517.44 1807.49C2555.45 1764.66 2612.47 1743.25 2688.49 1743.25C2744.6 1743.25 2801.62 1753.2 2859.54 1773.11V2210.13C2858.94 2353.69 2796.19 2425.48 2671.3 2425.48C2602.52 2425.48 2543.69 2403.16 2494.82 2358.52L2501.15 2353.09C2553.04 2396.52 2609.76 2418.24 2671.3 2418.24C2754.56 2418.24 2796.19 2348.87 2796.19 2210.13V2120.55C2784.73 2141.67 2765.72 2160.37 2739.17 2176.65C2712.63 2192.94 2681.25 2201.08 2645.05 2201.08C2521.97 2198.07 2460.43 2127.49 2460.43 1989.36ZM2645.96 2193.84C2686.38 2193.84 2721.07 2182.99 2750.03 2161.27C2779 2139.56 2794.38 2118.14 2796.19 2097.03V1777.63C2752.75 1759.53 2715.95 1750.49 2685.78 1750.49C2632.08 1750.49 2591.65 1771.6 2564.5 1813.82C2537.35 1855.44 2523.78 1913.96 2523.78 1989.36C2523.78 2125.68 2564.5 2193.84 2645.96 2193.84Z" fill="#111111"/>
<path d="M3144.39 1758.63C3166.11 1764.06 3181.8 1770.69 3191.45 1778.54L3195.98 1772.2C3167.02 1752.9 3126.59 1743.25 3074.71 1743.25C3043.93 1743.25 3013.16 1748.38 2982.39 1758.63C2964.29 1764.66 2949.81 1775.22 2938.95 1790.3C2928.09 1804.78 2922.66 1823.78 2922.66 1847.3C2922.66 1870.83 2931.41 1891.64 2948.91 1909.73C2966.4 1927.23 2987.82 1941.1 3013.16 1951.35C3038.5 1961.01 3063.54 1970.96 3088.28 1981.21C3113.62 1990.86 3135.04 2004.74 3152.54 2022.83C3170.04 2040.33 3178.78 2063.85 3178.78 2093.41C3178.78 2122.36 3167.02 2146.79 3143.49 2166.7C3120.56 2186 3091.3 2195.65 3055.7 2195.65C3033.38 2195.65 3010.15 2192.03 2986.01 2184.8C2962.48 2177.56 2944.68 2168.21 2932.62 2156.75L2927.19 2162.18C2957.96 2189.32 3004.11 2202.89 3065.66 2202.89C3094.01 2202.89 3120.26 2199.57 3144.39 2192.94C3169.13 2186.3 3191.45 2173.03 3211.36 2153.13C3231.28 2133.22 3241.23 2109.09 3241.23 2080.74C3241.23 2052.39 3234.9 2028.87 3222.23 2010.17C3209.55 1990.86 3193.57 1976.39 3174.26 1966.74C3155.55 1956.48 3135.04 1946.53 3112.72 1936.88C3091 1927.23 3070.48 1918.78 3051.18 1911.54C3032.47 1903.7 3016.78 1893.14 3004.11 1879.87C2991.44 1866 2985.11 1849.11 2985.11 1829.2C2985.11 1809.3 2992.35 1791.5 3006.83 1775.82C3021.31 1759.53 3044.84 1751.09 3077.42 1750.49H3096.43C3107.29 1750.49 3123.28 1753.2 3144.39 1758.63Z" fill="#111111"/>
<circle cx="3415.3" cy="2080.75" r="116.702" fill="#F69DA3"/>
</svg>
