<?xml version="1.0" encoding="UTF-8"?>
<!-- Generated by Pixelmator Pro 3.7 -->
<svg width="500" height="500" viewBox="0 0 500 500" xmlns="http://www.w3.org/2000/svg">
    <g id="Group">
        <path id="Path" fill="#606090" stroke="none" d="M 311.991638 251.13237 C 307.113037 252.720428 301.919678 250.588699 299.466034 246.303818 L 272.476227 255.073883 C 272.833893 256.690552 273.027039 258.371613 273.027039 260.08844 C 273.027039 267.07016 269.936768 273.336548 265.058136 277.614288 L 281.761353 300.598206 C 286.260834 298.573761 291.718903 299.897156 294.730499 304.053284 C 298.185577 308.803162 297.134033 315.455811 292.376984 318.910919 C 287.619995 322.366028 280.967316 321.314453 277.512207 316.557434 C 274.4935 312.408447 274.915527 306.807343 278.234711 303.159119 L 261.531525 280.16806 C 258.069244 282.206787 254.034729 283.387085 249.728378 283.387085 C 245.386261 283.387085 241.308823 282.185303 237.825119 280.11084 L 221.129059 303.087585 C 224.448227 306.742981 224.863144 312.344086 221.851547 316.493042 C 218.396439 321.250061 211.743774 322.301636 206.986771 318.846527 C 202.229752 315.39859 201.178192 308.73877 204.633301 303.98175 C 207.652039 299.832764 213.102936 298.502258 217.602417 300.533813 L 234.31279 277.535583 C 229.484238 273.265015 226.429733 267.027222 226.429733 260.08844 C 226.429733 258.328674 226.63002 256.619019 227.009155 254.966583 L 200.019348 246.196518 C 197.565735 250.4814 192.37236 252.613129 187.493713 251.02507 C 181.906921 249.208099 178.845245 243.213562 180.662216 237.619598 C 182.479187 232.032776 188.480896 228.97113 194.067719 230.788086 C 198.946335 232.368958 201.900696 237.154602 201.364197 242.054688 L 228.36116 250.831924 C 231.680328 243.199249 238.96965 237.676819 247.603806 236.897064 L 247.603806 208.540985 C 242.768112 207.532349 239.141342 203.254608 239.141342 198.118439 C 239.141342 192.245514 243.905502 187.481354 249.778458 187.481354 C 255.658569 187.481354 260.422699 192.245514 260.422699 198.118439 C 260.422699 203.254608 256.788788 207.532349 251.960236 208.540985 L 251.960236 236.904236 C 260.58728 237.726898 267.855133 243.277924 271.145691 250.924911 L 298.121216 242.161987 C 297.584686 237.254761 300.53186 232.476257 305.417694 230.888214 C 311.004456 229.07843 317.006195 232.132904 318.823151 237.726898 C 320.640106 243.31369 317.585632 249.315399 311.991638 251.13237 Z M 489.868317 219.178101 C 489.095764 216.352509 487.93689 213.641357 486.427521 211.137695 C 485.82663 210.136169 485.168549 209.170471 484.460358 208.24054 C 483.043976 206.380646 481.405823 204.67099 479.588867 203.15448 C 478.680389 202.389038 477.728973 201.680847 476.727509 201.022736 C 473.222321 198.726501 469.187805 197.081238 464.72406 196.308655 L 460.389099 195.571838 C 459.616516 195.435913 458.965607 195.099731 458.450562 194.634766 C 458.185852 194.405823 457.971252 194.141174 457.785278 193.855042 C 457.599274 193.568878 457.456207 193.261322 457.348907 192.939423 C 457.241608 192.617493 457.184387 192.281281 457.162933 191.937897 C 457.120026 191.258331 457.25592 190.564453 457.599274 189.927795 C 457.770966 189.605896 457.985565 189.30545 458.264526 189.019318 L 461.590881 185.600006 C 463.844208 183.289429 465.654022 180.75 467.04895 178.060303 C 468.436676 175.370605 469.402405 172.545013 469.960358 169.65506 C 470.074829 169.082764 470.174957 168.503326 470.246521 167.92392 C 470.4039 166.757935 470.504028 165.591919 470.532654 164.425903 C 470.56842 162.673309 470.468292 160.927887 470.225037 159.196777 C 469.981812 157.465668 469.59552 155.755951 469.073364 154.089233 C 468.551147 152.422516 467.885895 150.791534 467.077576 149.217773 C 466.548187 148.166199 465.954468 147.150421 465.296356 146.163239 C 463.994415 144.181763 462.44928 142.329041 460.66095 140.655121 C 458.886871 138.97406 456.869629 137.471863 454.637756 136.191406 C 453.90097 135.776489 453.157013 135.361633 452.405884 134.96817 C 452.16272 134.832245 451.905182 134.710663 451.661957 134.58905 C 451.154083 134.324371 450.639038 134.059662 450.116821 133.809326 C 449.816376 133.659088 449.508759 133.516052 449.208313 133.372955 C 448.736206 133.151215 448.256958 132.929443 447.777649 132.707672 C 447.448578 132.564636 447.119568 132.42157 446.783325 132.278473 C 446.318359 132.078217 445.846222 131.877899 445.374115 131.684753 C 445.030731 131.541718 444.680206 131.405762 444.336853 131.269836 C 443.864716 131.083862 443.385468 130.905029 442.899017 130.726227 C 442.555664 130.597443 442.20517 130.468689 441.854645 130.339935 C 441.361053 130.168243 440.867462 129.996552 440.366699 129.832001 C 440.016205 129.710419 439.672852 129.595947 439.322327 129.481506 C 438.785828 129.316956 438.249298 129.152435 437.712799 128.995056 C 437.3909 128.894928 437.069 128.7948 436.739929 128.701782 C 436.081818 128.515808 435.409393 128.336975 434.737 128.165283 C 434.529541 128.108063 434.322083 128.050812 434.107483 127.993591 C 433.234802 127.77182 432.347748 127.564392 431.453583 127.371246 C 431.160278 127.306885 430.867004 127.249664 430.580841 127.192413 C 429.958496 127.063629 429.343323 126.934875 428.713806 126.820465 C 428.348969 126.748901 427.984161 126.691681 427.619324 126.627319 C 427.05423 126.52713 426.496277 126.427002 425.923981 126.341156 C 425.530579 126.276794 425.137115 126.226685 424.736542 126.169464 C 424.185699 126.083649 423.634888 126.012085 423.069763 125.940582 C 422.669189 125.890503 422.254272 125.840393 421.839417 125.797485 C 421.281433 125.733093 420.730591 125.675903 420.165497 125.618683 C 419.75061 125.575745 419.328552 125.539978 418.913635 125.504211 C 418.334229 125.461304 417.761963 125.418365 417.175385 125.382629 C 416.767639 125.354004 416.359894 125.325348 415.952148 125.303894 C 415.322632 125.268158 414.700287 125.246704 414.070801 125.218048 C 413.69165 125.203766 413.319702 125.189484 412.933411 125.17514 C 412.196594 125.160858 411.452667 125.146545 410.708679 125.146545 C 410.422577 125.146545 410.143585 125.132233 409.864594 125.139374 C 409.607086 125.139374 409.349548 125.139374 409.092041 125.146545 C 408.426758 125.146545 407.768616 125.153687 407.096222 125.17514 C 406.752869 125.182312 406.395172 125.196594 406.044678 125.210938 C 405.46524 125.232391 404.885834 125.246704 404.299225 125.27533 C 403.912964 125.296783 403.519501 125.318237 403.133209 125.346832 C 402.575256 125.375458 402.010162 125.411194 401.452179 125.454132 C 401.044434 125.482758 400.643829 125.511383 400.236084 125.547119 C 399.67099 125.590057 399.105865 125.640137 398.540741 125.697357 C 398.140137 125.733093 397.732391 125.76889 397.331818 125.811829 C 396.738068 125.87619 396.144348 125.940582 395.543457 126.012085 C 395.164337 126.062164 394.778076 126.105103 394.391785 126.155182 C 393.71933 126.233856 393.046906 126.333984 392.36734 126.427002 C 392.052612 126.46991 391.737823 126.512848 391.423096 126.562927 C 390.435944 126.705994 389.441589 126.870514 388.440125 127.035065 C 388.211243 127.070801 387.9823 127.120911 387.753387 127.163818 C 386.973663 127.299713 386.186798 127.435638 385.399933 127.585846 C 385.013672 127.66452 384.634491 127.743256 384.255371 127.82193 C 383.604401 127.950684 382.960602 128.079437 382.309662 128.215363 C 381.887604 128.308319 381.465546 128.401337 381.043518 128.494354 C 380.421173 128.63739 379.798828 128.773346 379.169312 128.923553 C 378.732941 129.023682 378.2966 129.130981 377.860229 129.23111 C 377.237885 129.388519 376.608368 129.545898 375.978912 129.703247 C 375.542542 129.817719 375.106171 129.925018 374.662659 130.0466 C 374.01886 130.218292 373.360748 130.389984 372.709778 130.575989 C 372.294861 130.69043 371.872833 130.804901 371.450806 130.926483 C 370.728271 131.133972 369.998627 131.348572 369.268982 131.563171 C 368.918488 131.670471 368.560791 131.770599 368.203125 131.877899 C 367.115845 132.214081 366.028473 132.550323 364.92688 132.90799 C 363.975464 133.222717 363.024048 133.544617 362.079803 133.888 C 354.511505 136.634888 347.193573 140.454834 340.154633 145.054474 C 340.047333 145.126038 339.940002 145.19754 339.839874 145.261902 C 338.080139 151.077637 335.912659 157.007813 333.315979 163.059601 C 333.280182 163.145447 333.244415 163.231293 333.208679 163.317139 C 319.452667 195.178406 296.497345 224.600372 279.136017 244.150635 C 277.469299 241.088989 275.337585 238.320618 272.833893 235.931366 C 277.934265 230.137115 283.499634 223.484436 289.150818 216.180847 C 290.359741 214.614227 291.568665 213.019012 292.784729 211.402344 C 297.026733 205.722534 301.268677 199.699371 305.331848 193.418671 C 312.306427 182.652802 318.76593 171.128662 323.880615 159.289764 L 323.880615 159.282593 C 324.302673 158.309723 324.703247 157.336884 325.110992 156.364014 C 327.471619 150.598389 329.496063 144.768341 331.10556 138.924011 C 331.706451 136.706451 332.257263 134.488892 332.736542 132.278473 C 333.172882 130.268372 333.552032 128.251129 333.873932 126.241028 C 334.67511 121.21933 335.104309 116.204773 335.104309 111.240326 C 335.104309 72.382996 323.301178 44.47757 304.723785 27.352295 C 304.287415 26.951691 303.843903 26.565399 303.39325 26.193451 C 303.250214 26.078979 303.107117 25.97168 302.971222 25.857208 C 302.649323 25.599701 302.327423 25.356506 302.005493 25.113281 C 301.840942 24.99881 301.676422 24.877197 301.519043 24.762756 C 301.190002 24.533844 300.860931 24.304962 300.52475 24.090363 C 300.374542 23.997345 300.231445 23.890045 300.081207 23.797028 C 299.623413 23.518036 299.165588 23.239075 298.700623 22.981537 C 298.679169 22.967255 298.650543 22.952972 298.629089 22.938629 C 298.135498 22.659637 297.634735 22.409271 297.126862 22.158936 C 296.983826 22.087372 296.840729 22.030182 296.697662 21.958618 C 296.332825 21.786926 295.968018 21.622437 295.596039 21.472198 C 295.424347 21.400665 295.252655 21.329102 295.080963 21.257599 C 294.716156 21.114502 294.351318 20.978607 293.986511 20.849854 C 293.829163 20.792603 293.671783 20.735382 293.514374 20.678162 C 293.042267 20.520782 292.570129 20.370575 292.097992 20.241791 C 292.047974 20.227509 291.997864 20.206055 291.947784 20.191711 C 291.418457 20.041504 290.881927 19.91272 290.3526 19.791138 C 290.209503 19.762512 290.066467 19.733917 289.916229 19.705292 C 289.529938 19.619446 289.136505 19.547913 288.743073 19.47641 C 288.56424 19.447784 288.385376 19.4263 288.206573 19.397675 C 287.834595 19.340485 287.455475 19.290375 287.090637 19.247467 C 286.911804 19.226013 286.740112 19.204559 286.568451 19.190247 C 286.117767 19.147339 285.674286 19.111572 285.223602 19.090118 C 285.130615 19.082947 285.044769 19.075775 284.958923 19.068665 C 284.429565 19.047211 283.900208 19.032867 283.378021 19.040039 C 282.727051 19.040039 282.07608 19.061493 281.432281 19.104401 C 281.324982 19.111572 281.210541 19.118713 281.103241 19.133026 C 280.566742 19.168793 280.030243 19.226013 279.493744 19.290375 C 279.279114 19.319 279.064514 19.354767 278.857056 19.383392 C 278.420715 19.447784 277.984344 19.519318 277.555145 19.605164 C 277.326233 19.64093 277.097321 19.69101 276.868408 19.741058 C 276.446381 19.826904 276.024292 19.934204 275.602264 20.034363 C 275.387665 20.091583 275.165894 20.148804 274.951294 20.206055 C 274.4935 20.334808 274.035675 20.477875 273.584991 20.620911 C 273.420471 20.678162 273.24881 20.72821 273.084259 20.785461 C 272.461914 21.000092 271.84671 21.228973 271.24585 21.47934 C 271.188629 21.507965 271.131378 21.529419 271.081329 21.558044 C 270.530487 21.786926 269.993988 22.030182 269.46463 22.29483 C 269.278656 22.387817 269.099823 22.480835 268.913849 22.573792 C 268.513214 22.781281 268.11264 22.99588 267.719177 23.224762 C 267.511749 23.339233 267.318604 23.460846 267.118317 23.575317 C 266.739197 23.804199 266.367188 24.040253 266.009552 24.276337 C 265.809235 24.40509 265.616089 24.533844 265.430115 24.662598 C 265.036652 24.934418 264.657532 25.213409 264.278442 25.499573 C 264.128204 25.614014 263.970825 25.728455 263.820587 25.850098 C 263.29837 26.264954 262.783325 26.694153 262.282623 27.144836 C 262.253998 27.16629 262.232544 27.187744 262.203918 27.21637 C 261.738953 27.645569 261.281128 28.08194 260.837616 28.539734 C 260.687408 28.697144 260.544342 28.854523 260.394135 29.011871 C 260.072235 29.355225 259.764618 29.698608 259.464172 30.056305 C 259.299652 30.242279 259.142273 30.442566 258.977753 30.635712 C 258.698761 30.979095 258.42691 31.329559 258.162262 31.687286 C 258.004883 31.894714 257.854645 32.102142 257.704437 32.309631 C 257.432587 32.695892 257.167938 33.096466 256.9104 33.504211 C 256.781647 33.690186 256.660034 33.876221 256.545593 34.069366 C 256.173615 34.670258 255.815933 35.278259 255.479721 35.922058 L 253.433853 39.813538 C 253.305084 40.056763 253.14772 40.271362 252.983185 40.47879 C 252.825821 40.671936 252.654129 40.8508 252.460983 41.008148 C 252.303604 41.136902 252.139084 41.258545 251.967407 41.358673 C 251.960236 41.365845 251.953094 41.365845 251.953094 41.365845 C 251.652649 41.544647 251.337891 41.673401 251.008835 41.759247 C 251.008835 41.759247 251.001694 41.759247 251.001694 41.759247 C 250.887222 41.787872 250.772781 41.809326 250.651169 41.83078 C 250.601105 41.837952 250.551025 41.852264 250.500946 41.859406 C 250.4151 41.866547 250.329254 41.866547 250.236267 41.873718 C 250.157578 41.88089 250.071732 41.888 249.993057 41.888 C 249.914368 41.888 249.828522 41.88089 249.749832 41.873718 C 249.663986 41.866547 249.570999 41.866547 249.485168 41.859406 C 249.327805 41.837952 249.177582 41.809326 249.020187 41.766418 C 249.013046 41.766418 248.998734 41.766418 248.984436 41.759247 C 248.89859 41.737793 248.827042 41.702026 248.741211 41.680573 C 248.498001 41.594727 248.261932 41.501709 248.040176 41.365845 C 248.03302 41.365845 248.03302 41.365845 248.025864 41.358673 C 247.432129 41.015289 246.909943 40.500244 246.552261 39.813538 L 244.32756 35.585876 C 243.991348 34.949219 243.633667 34.341187 243.268845 33.740295 C 243.147247 33.54715 243.025635 33.361176 242.904022 33.16803 C 242.6465 32.767395 242.381836 32.373993 242.110001 31.987701 C 241.959778 31.773102 241.802399 31.565643 241.652176 31.358215 C 241.387512 31.00766 241.115677 30.657166 240.8367 30.320953 C 240.679321 30.120667 240.514786 29.92038 240.35025 29.727234 C 240.04982 29.376678 239.749374 29.040497 239.441772 28.711426 C 239.284409 28.546906 239.134186 28.375244 238.976807 28.217834 C 238.540451 27.767181 238.089783 27.330841 237.631973 26.915924 C 237.596207 26.880188 237.567596 26.851563 237.531815 26.822937 C 237.04538 26.379425 236.537506 25.957397 236.022461 25.549652 C 235.850769 25.413727 235.671921 25.284943 235.500244 25.149017 C 235.142593 24.884369 234.784912 24.61969 234.427231 24.369324 C 234.219803 24.226227 234.005203 24.083191 233.797745 23.947266 C 233.454376 23.725525 233.103867 23.503754 232.746185 23.289154 C 232.538727 23.1604 232.316986 23.031647 232.09523 22.902863 C 231.723251 22.688263 231.344131 22.487946 230.964996 22.287689 C 230.764709 22.187531 230.571564 22.080231 230.364105 21.980072 C 229.841919 21.729736 229.312546 21.486511 228.776047 21.257599 C 228.718811 21.228973 228.654434 21.200348 228.597214 21.171753 C 227.996338 20.928528 227.395447 20.699646 226.787399 20.492157 C 226.594254 20.427765 226.38681 20.363403 226.186508 20.299011 C 225.771622 20.163116 225.349564 20.034363 224.927521 19.91272 C 224.691452 19.848358 224.455399 19.783966 224.21933 19.726746 C 223.818741 19.626617 223.418137 19.53363 223.017563 19.447784 C 222.774338 19.397675 222.531128 19.347656 222.295059 19.297546 C 221.86586 19.218872 221.443802 19.147339 221.014587 19.090118 C 220.799988 19.054321 220.585388 19.018585 220.370789 18.989929 C 219.798523 18.918427 219.211929 18.861176 218.639679 18.818268 C 218.56813 18.818268 218.51091 18.803955 218.439362 18.803955 C 217.795563 18.761047 217.151749 18.739594 216.500793 18.739594 C 215.978607 18.739594 215.45639 18.746765 214.934204 18.768219 C 214.891281 18.768219 214.841217 18.77533 214.791122 18.77533 C 214.304703 18.796814 213.818268 18.839722 213.339005 18.882629 C 213.160156 18.904114 212.988464 18.925568 212.816788 18.947021 C 212.451965 18.982819 212.087143 19.032867 211.715164 19.082947 C 211.529175 19.111572 211.343201 19.140167 211.150055 19.175964 C 210.785233 19.233185 210.413239 19.304718 210.048416 19.383392 C 209.87674 19.412018 209.712219 19.440613 209.547684 19.483521 C 209.018326 19.597992 208.49614 19.726746 207.981094 19.869812 C 207.931015 19.884155 207.888107 19.898438 207.838013 19.91272 C 207.365891 20.041504 206.893768 20.191711 206.421646 20.349091 C 206.249954 20.406311 206.078278 20.463562 205.906586 20.527954 C 205.556076 20.649536 205.205566 20.77832 204.862213 20.914246 C 204.676208 20.985748 204.497391 21.064453 204.311386 21.135956 C 203.960876 21.279053 203.610352 21.436401 203.266983 21.593811 C 203.102478 21.672485 202.945084 21.744019 202.780563 21.815582 C 202.286987 22.058746 201.793396 22.309143 201.299805 22.573792 C 201.271179 22.588135 201.242584 22.609589 201.213974 22.623901 C 200.756134 22.881409 200.298325 23.146088 199.847656 23.425079 C 199.697449 23.525208 199.54007 23.625366 199.389847 23.725525 C 199.060776 23.932953 198.731735 24.147552 198.409821 24.376465 C 198.245285 24.490936 198.08078 24.605408 197.916245 24.72699 C 197.594345 24.963043 197.27243 25.206268 196.950531 25.456635 C 196.807465 25.563934 196.664398 25.678406 196.521332 25.792847 C 196.070663 26.157654 195.627151 26.536804 195.190796 26.930237 C 195.190796 26.930237 195.190796 26.930237 195.190796 26.937408 C 176.341568 44.019745 164.345306 72.061096 164.345306 111.240326 C 164.345306 117.249207 164.974792 123.329559 166.133652 129.417145 C 166.319641 130.432892 166.527084 131.4487 166.748856 132.464478 C 167.850464 137.543396 169.309769 142.615173 171.048035 147.658325 C 172.442947 151.699982 174.023865 155.713043 175.747833 159.690338 L 175.747833 159.704651 C 188.695496 189.484314 210.141418 217.203766 226.615707 235.931366 C 224.119171 238.320618 221.980301 241.096161 220.320724 244.150635 C 202.995163 224.636169 180.190094 195.414459 166.434097 163.75351 C 166.398315 163.667664 166.362564 163.581818 166.326797 163.495972 C 163.644257 157.301086 161.405258 151.220734 159.609741 145.269073 C 158.90155 144.796967 158.186218 144.346283 157.470856 143.89563 C 156.254791 143.130219 155.03157 142.37912 153.794022 141.656586 C 151.125809 140.10434 148.421814 138.666504 145.674911 137.371704 C 142.019501 135.633453 138.299728 134.138397 134.515594 132.90799 C 133.421112 132.550323 132.333786 132.20697 131.253632 131.877899 C 130.903107 131.770599 130.552597 131.677582 130.209229 131.570282 C 129.479584 131.348572 128.742783 131.133972 128.020294 130.926483 C 127.605392 130.812042 127.204796 130.697601 126.79705 130.590271 C 126.13179 130.404297 125.466522 130.218292 124.801254 130.0466 C 124.38636 129.93219 123.964302 129.832001 123.549416 129.71759 C 122.905609 129.55304 122.261803 129.395691 121.625137 129.238281 C 121.203079 129.138153 120.781044 129.037994 120.366135 128.937836 C 119.722328 128.787628 119.085686 128.644562 118.449028 128.501465 C 118.048431 128.408508 117.64785 128.322662 117.247253 128.236816 C 116.574837 128.093719 115.909576 127.957855 115.25145 127.829071 C 114.886627 127.750366 114.528954 127.678864 114.171295 127.6073 C 113.413017 127.464264 112.661911 127.328339 111.910805 127.199554 C 111.653282 127.149475 111.39576 127.099426 111.131088 127.056519 C 110.115311 126.877655 109.099518 126.720276 108.098053 126.562927 C 108.090881 126.562927 108.08374 126.562927 108.08374 126.562927 C 107.096565 126.41272 106.116539 126.276794 105.136543 126.155182 C 104.843246 126.119385 104.557114 126.083649 104.270966 126.055023 C 103.584236 125.969177 102.890366 125.890503 102.210785 125.818939 C 101.860275 125.783203 101.516907 125.747437 101.173546 125.718811 C 100.551201 125.654419 99.935997 125.597229 99.320816 125.547119 C 98.94883 125.518494 98.584007 125.489929 98.219177 125.461304 C 97.625458 125.418365 97.046036 125.382629 96.459442 125.346832 C 96.087471 125.325348 95.7155 125.303894 95.343506 125.28244 C 94.764084 125.253845 94.191826 125.232391 93.619545 125.210938 C 93.254723 125.196594 92.8899 125.182312 92.52507 125.17514 C 91.945648 125.160858 91.366219 125.146545 90.786797 125.146545 C 90.443428 125.139374 90.100067 125.132233 89.763847 125.132233 C 89.363274 125.132233 88.969826 125.139374 88.576393 125.139374 C 87.939728 125.146545 87.310242 125.153687 86.680748 125.16803 C 86.280151 125.182312 85.879547 125.196594 85.486122 125.210938 C 84.885231 125.232391 84.284348 125.253845 83.683464 125.28244 C 83.28286 125.303894 82.882286 125.33252 82.481689 125.361145 C 81.895103 125.396912 81.308533 125.439819 80.729103 125.482758 C 80.335663 125.518494 79.942223 125.554291 79.555939 125.582886 C 78.962212 125.640137 78.382782 125.704529 77.796204 125.76889 C 77.424232 125.811829 77.052254 125.847565 76.680267 125.897675 C 76.079384 125.969177 75.4785 126.055023 74.877609 126.133728 C 74.541405 126.183777 74.198044 126.226685 73.86898 126.276794 C 73.203712 126.384094 72.552757 126.491394 71.901794 126.605865 C 71.637115 126.648773 71.365288 126.691681 71.100609 126.734619 C 69.262192 127.070801 67.459526 127.464264 65.692635 127.893463 C 65.470886 127.950684 65.256287 128.015045 65.034523 128.072266 C 64.376411 128.236816 63.725449 128.408508 63.081642 128.587311 C 62.7812 128.673157 62.480759 128.759003 62.187469 128.85202 C 61.629505 129.009399 61.071541 129.181091 60.520721 129.352753 C 60.198814 129.452881 59.876911 129.560181 59.547863 129.66748 C 59.032818 129.832001 58.517773 130.003693 58.017029 130.182526 C 57.680824 130.296997 57.351765 130.41861 57.022701 130.533081 C 56.529118 130.719055 56.035534 130.897888 55.549103 131.091034 C 55.220043 131.212646 54.890995 131.348572 54.561935 131.477325 C 54.082653 131.670471 53.603382 131.870728 53.1241 132.071045 C 52.802197 132.20697 52.48745 132.335724 52.172691 132.47879 C 51.686264 132.69339 51.206982 132.915161 50.727711 133.136871 C 50.434414 133.272827 50.133972 133.408752 49.840683 133.544617 C 49.318481 133.795013 48.803436 134.052551 48.295547 134.310059 C 48.05233 134.438843 47.801964 134.553253 47.565899 134.674896 C 46.814793 135.068298 46.077988 135.468933 45.348339 135.876678 C 43.660137 136.828033 42.093544 137.901062 40.662865 139.088531 C 39.232174 140.26886 37.923103 141.556458 36.757103 142.937073 C 35.977379 143.852692 35.262035 144.811249 34.603924 145.798431 C 33.945812 146.785583 33.344929 147.808563 32.808422 148.852936 C 32.536587 149.382263 32.286221 149.911652 32.042999 150.448151 C 31.570875 151.521179 31.155985 152.622772 30.805464 153.738708 C 30.447796 154.854645 30.161657 155.984894 29.925594 157.129425 C 29.69669 158.273987 29.532154 159.432831 29.432009 160.598846 C 29.381931 161.178284 29.346169 161.764832 29.331865 162.344238 C 29.260328 164.683411 29.439167 167.036926 29.889832 169.354614 C 30.11158 170.513458 30.397718 171.65799 30.755386 172.79538 C 31.291891 174.497894 31.978619 176.171814 32.808422 177.788483 C 34.203335 180.485321 36.027454 183.039063 38.280781 185.356781 L 41.34959 188.504272 C 41.893242 189.062225 42.229462 189.720367 42.372524 190.399933 C 42.444061 190.736145 42.472672 191.079498 42.45121 191.422852 C 42.408291 192.102448 42.200844 192.767731 41.828861 193.339996 C 41.278053 194.198395 40.383881 194.849365 39.225029 195.049622 L 34.518082 195.858002 C 30.068659 196.623413 26.041294 198.261536 22.550434 200.5578 C 22.056849 200.8797 21.57041 201.223053 21.091139 201.573547 C 20.13973 202.281738 19.231245 203.040009 18.372835 203.841217 C 17.514427 204.642365 16.698938 205.486481 15.940684 206.373505 C 14.424154 208.147552 13.107934 210.093262 12.013463 212.146301 C 11.4698 213.176392 10.976215 214.235077 10.54701 215.315247 C 10.117805 216.395447 9.745825 217.504211 9.431079 218.63443 C 8.815889 220.887756 8.436751 223.219788 8.336607 225.587524 C 8.30799 226.181305 8.300843 226.775024 8.30799 227.375916 C 8.358068 231.546356 9.25224 235.802612 11.104977 239.922974 C 15.661701 250.073654 22.629118 259.623474 32.135998 268.171814 C 35.533871 271.226288 39.253635 274.152039 43.302471 276.927551 C 44.926292 278.043518 46.600189 279.130798 48.324165 280.189514 C 57.831043 286.041016 68.947441 291.148529 81.752037 295.311829 C 82.939499 295.690948 84.141273 296.041443 85.350212 296.377686 C 85.693573 296.477844 86.036942 296.570801 86.380302 296.656677 C 87.346016 296.914185 88.311722 297.15741 89.284576 297.37915 C 89.570709 297.450684 89.849693 297.515076 90.135841 297.579468 C 91.359077 297.851288 92.596603 298.108826 93.834145 298.330566 C 94.113129 298.380615 94.384964 298.423523 94.663948 298.473633 C 95.665413 298.645325 96.681213 298.809814 97.696991 298.952881 C 98.061813 299.010132 98.419487 299.067352 98.784309 299.117432 C 99.97892 299.274811 101.166397 299.417877 102.368172 299.546631 C 102.45401 299.553772 102.539856 299.568115 102.625694 299.575256 C 103.913307 299.70401 105.20092 299.804169 106.502831 299.897156 C 106.860504 299.91861 107.225327 299.940063 107.590149 299.961548 C 108.613098 300.025909 109.636017 300.075989 110.666107 300.104614 C 110.988014 300.118896 111.309914 300.133209 111.631821 300.147522 C 112.933746 300.183289 114.242821 300.204742 115.559044 300.204742 C 115.888115 300.204742 116.217163 300.204742 116.553383 300.197601 C 117.411789 300.197601 118.270195 300.183289 119.13575 300.169006 C 119.564957 300.154663 119.994164 300.140381 120.430511 300.126068 C 121.217392 300.104614 122.00428 300.075989 122.791138 300.040222 C 123.234657 300.018768 123.671005 299.997314 124.107376 299.97583 C 124.937164 299.932922 125.76696 299.875671 126.596764 299.818481 C 126.983047 299.789856 127.362167 299.768372 127.741302 299.739807 C 128.950226 299.64679 130.151993 299.546631 131.360931 299.43219 L 131.368088 299.439331 C 132.441101 299.332031 133.506958 299.21759 134.587112 299.095978 C 139.945023 298.487915 145.310089 297.65097 150.639359 296.635193 C 152.771072 296.220306 154.89563 295.791107 157.013046 295.326111 C 168.644501 292.77951 179.989807 289.453186 190.526779 285.855042 C 191.485321 285.52594 192.436737 285.196899 193.380981 284.867859 C 198.102234 283.215393 202.644638 281.512878 206.958145 279.824707 C 207.823715 279.481323 208.674957 279.145111 209.519073 278.801758 C 213.052841 277.385376 216.414963 275.983337 219.591064 274.617004 C 221.114746 277.757324 223.117691 280.625854 225.499786 283.129578 C 201.585938 293.573547 166.727386 306.242249 132.340942 309.547119 C 132.247955 309.55426 132.162109 309.568573 132.061951 309.575714 C 126.468002 310.105072 120.97419 310.369751 115.745041 310.369751 C 114.707802 310.369751 113.684853 310.341125 112.654762 310.319672 C 112.490227 310.455566 112.31855 310.584351 112.15403 310.713104 C 109.721863 312.680298 107.382698 314.711853 105.150833 316.822144 C 102.918968 318.925232 100.794403 321.114166 98.784309 323.367493 C 96.781342 325.62796 94.892845 327.959961 93.140274 330.370667 C 91.716728 332.330688 90.350441 334.290771 89.041367 336.23645 C 84.484634 343.060822 80.671875 349.785034 77.574455 356.373322 C 75.8004 360.135986 74.255264 363.862946 72.939041 367.539795 C 71.293755 372.132263 69.998993 376.653229 69.033279 381.088318 C 68.646996 382.862396 68.310783 384.629272 68.031799 386.367554 C 67.609749 388.985687 67.309311 391.575256 67.116165 394.128998 C 66.99456 395.831512 66.915871 397.512573 66.894409 399.179321 C 66.801422 405.030792 67.323608 410.674835 68.410934 416.097137 C 68.525383 416.662231 68.661301 417.227356 68.797218 417.785339 C 68.84729 417.94986 68.890205 418.11438 68.933128 418.278931 C 69.047585 418.686646 69.162041 419.08725 69.290802 419.480682 C 69.340874 419.645203 69.390953 419.809753 69.448174 419.974274 C 69.612709 420.475006 69.791534 420.961426 69.977531 421.447876 C 69.991837 421.483643 70.006142 421.519409 70.020454 421.562317 C 70.227898 422.077393 70.449661 422.585266 70.678566 423.09314 C 70.742943 423.229065 70.814484 423.372131 70.87886 423.515198 C 71.057693 423.887177 71.243683 424.252014 71.429672 424.616821 C 71.508354 424.759888 71.587051 424.902954 71.665733 425.046021 C 71.901794 425.482391 72.145012 425.897278 72.395378 426.312195 C 72.423996 426.362274 72.452606 426.419495 72.48838 426.469574 C 72.774506 426.93454 73.074951 427.385193 73.382553 427.828735 C 73.468391 427.950317 73.547073 428.064789 73.632919 428.17923 C 73.86898 428.508301 74.112198 428.837341 74.362564 429.159241 C 74.462723 429.288025 74.562866 429.416779 74.66301 429.538391 C 74.94915 429.896057 75.242432 430.253723 75.550034 430.597076 C 75.600113 430.654297 75.650177 430.718689 75.700256 430.775909 C 76.057922 431.176514 76.422745 431.562805 76.801888 431.949097 C 76.894875 432.042053 76.987869 432.127899 77.080864 432.220917 C 77.374153 432.514191 77.674599 432.793182 77.975037 433.072144 C 78.0895 433.179443 78.203949 433.279602 78.325562 433.386902 C 78.65461 433.680206 78.990829 433.966339 79.33419 434.252472 C 79.412872 434.302551 79.477257 434.366943 79.54879 434.424164 C 79.963684 434.753204 80.385742 435.075134 80.82209 435.389862 C 80.922249 435.454254 81.022392 435.525787 81.122536 435.597321 C 81.458755 435.833374 81.802116 436.069458 82.152641 436.291199 C 82.281403 436.377045 82.417305 436.462891 82.553215 436.541565 C 82.910889 436.770477 83.28286 436.992249 83.654854 437.199677 C 83.740692 437.249756 83.833679 437.306976 83.926666 437.364197 C 84.391647 437.614563 84.856628 437.864929 85.335899 438.093842 C 85.43605 438.151093 85.54335 438.201141 85.650658 438.24408 C 86.02977 438.430054 86.401764 438.601746 86.788048 438.766266 C 86.938271 438.830658 87.081322 438.887878 87.231544 438.952271 C 87.61068 439.10965 87.996964 439.259857 88.390396 439.410095 C 88.504868 439.445862 88.612167 439.495911 88.726616 439.531677 C 89.2202 439.71051 89.728096 439.875061 90.228828 440.03244 C 90.336128 440.061035 90.443428 440.089661 90.550735 440.118286 C 90.958473 440.239868 91.366219 440.347168 91.773964 440.454468 C 91.938499 440.490234 92.095871 440.526001 92.253235 440.561768 C 92.64669 440.654785 93.040115 440.740601 93.44072 440.812164 C 93.569481 440.840759 93.705383 440.869385 93.834145 440.890839 C 94.356339 440.983826 94.885696 441.062531 95.40789 441.134064 C 95.508041 441.148376 95.6082 441.155518 95.708336 441.162659 C 96.137535 441.212738 96.573906 441.255676 97.010262 441.291412 C 97.174797 441.298584 97.346481 441.312897 97.510994 441.320038 C 97.904442 441.348663 98.305023 441.355804 98.70562 441.362976 C 98.855843 441.370117 98.998917 441.377258 99.149139 441.377258 C 99.471039 441.377258 99.792946 441.362976 100.114845 441.355804 C 100.393829 441.348663 100.665642 441.348663 100.944626 441.334351 C 101.259384 441.320038 101.574142 441.291412 101.888878 441.262817 C 102.167862 441.241364 102.446846 441.21991 102.718681 441.191284 C 103.040581 441.162659 103.355339 441.11261 103.677246 441.062531 C 103.949059 441.026764 104.220894 440.998138 104.499878 440.948059 C 104.821785 440.890839 105.143684 440.826447 105.458443 440.762085 C 105.730255 440.704865 106.002098 440.661926 106.273933 440.597565 C 106.602982 440.526001 106.924889 440.433014 107.246788 440.347168 C 107.511459 440.275635 107.783295 440.211273 108.047966 440.13974 C 108.384178 440.039581 108.720398 439.92514 109.056595 439.81781 C 109.306969 439.731995 109.557343 439.660461 109.807701 439.567444 C 110.179695 439.43869 110.558807 439.281311 110.930801 439.138245 C 111.138237 439.052429 111.345688 438.980865 111.553146 438.89505 C 112.118263 438.651825 112.683372 438.394287 113.241341 438.122467 C 113.255653 438.115295 113.269966 438.108154 113.284256 438.101013 L 117.225792 436.155273 C 117.390327 436.076599 117.547699 436.012207 117.712234 435.954987 C 117.769447 435.940674 117.819534 435.926361 117.869598 435.912048 C 117.984047 435.883453 118.098518 435.847687 118.205818 435.826233 C 118.270195 435.81192 118.327408 435.804749 118.384644 435.797607 C 118.499092 435.776154 118.606392 435.768982 118.713692 435.761841 C 118.770927 435.7547 118.828163 435.7547 118.878227 435.7547 C 118.899689 435.7547 118.928299 435.747559 118.94976 435.747559 C 119.064224 435.747559 119.178673 435.7547 119.293121 435.768982 C 119.314583 435.768982 119.328896 435.768982 119.350357 435.768982 C 119.507721 435.790466 119.665115 435.819061 119.822479 435.854858 C 119.858253 435.862 119.908325 435.876312 119.951241 435.890594 C 120.05854 435.91922 120.165848 435.947815 120.273148 435.990753 C 120.316063 436.012207 120.373299 436.02652 120.42337 436.047974 C 120.516357 436.090912 120.616508 436.13382 120.709496 436.183899 C 120.759583 436.212524 120.802505 436.233978 120.845428 436.255432 C 120.967018 436.319824 121.08149 436.398499 121.195938 436.477173 C 121.210251 436.484344 121.224541 436.491486 121.238853 436.505798 C 121.360474 436.591644 121.482063 436.691803 121.596535 436.799103 C 121.632286 436.834839 121.660912 436.863464 121.696671 436.899231 C 121.77536 436.977905 121.846886 437.05661 121.918434 437.142456 C 121.954193 437.178223 121.982819 437.22113 122.01857 437.264069 C 122.090118 437.349915 122.147331 437.43573 122.211716 437.528748 C 122.240341 437.571655 122.268944 437.614563 122.290405 437.657501 C 122.369102 437.779114 122.440628 437.907867 122.497864 438.050934 C 122.505013 438.050934 122.505013 438.065247 122.512154 438.072388 C 122.576538 438.215454 122.626625 438.365692 122.676689 438.523071 C 122.691002 438.565979 122.698151 438.616058 122.712463 438.666138 C 122.741074 438.773438 122.769676 438.880737 122.783989 439.00235 C 122.791138 439.052429 122.798309 439.116791 122.80545 439.174011 C 122.819763 439.288483 122.826912 439.402924 122.834061 439.524536 C 122.834061 439.574615 122.834061 439.624695 122.834061 439.681915 C 122.834061 439.853577 122.819763 440.025269 122.798309 440.19696 C 122.798309 440.19696 122.798309 440.204102 122.798309 440.204102 L 122.11158 444.932526 C 122.11158 444.939667 122.11158 444.953979 122.11158 444.961121 C 122.01857 445.569153 121.954193 446.177216 121.896973 446.785248 C 121.88266 446.992706 121.875519 447.192993 121.861198 447.407593 C 121.832596 447.808197 121.80397 448.215942 121.796822 448.616516 C 121.789673 448.859741 121.796822 449.102936 121.789673 449.346161 C 121.789673 449.710999 121.789673 450.075806 121.796822 450.433472 C 121.80397 450.69101 121.818283 450.941376 121.832596 451.198914 C 121.854057 451.542267 121.868347 451.88562 121.896973 452.221832 C 121.925583 452.486511 121.954193 452.744049 121.982819 453.001556 C 122.01857 453.330627 122.054344 453.66684 122.104408 453.99588 C 122.140182 454.253418 122.183105 454.510925 122.226028 454.761292 C 122.283257 455.083191 122.340477 455.40509 122.404854 455.72702 C 122.454941 455.984528 122.512154 456.234894 122.569389 456.492432 C 122.640915 456.807159 122.719612 457.121918 122.798309 457.436676 C 122.862686 457.687042 122.934212 457.937408 123.005737 458.180634 C 123.098747 458.48822 123.191734 458.802979 123.284721 459.103424 C 123.363419 459.346619 123.449257 459.596985 123.535103 459.833069 C 123.642403 460.140656 123.749702 460.441101 123.864151 460.741547 C 123.957161 460.9776 124.050148 461.213684 124.150299 461.449738 C 124.271896 461.750183 124.400658 462.043457 124.529419 462.336761 C 124.62957 462.565674 124.73687 462.787415 124.844177 463.016327 C 124.987251 463.309631 125.130302 463.595764 125.280525 463.889038 C 125.394997 464.103638 125.509438 464.325409 125.623886 464.540009 C 125.781281 464.826141 125.945793 465.112274 126.11747 465.398407 C 126.23909 465.598724 126.360703 465.813324 126.4823 466.013611 C 126.661148 466.299744 126.847122 466.578735 127.04026 466.864868 C 127.16188 467.058014 127.290642 467.25116 127.419403 467.437134 C 127.61969 467.730408 127.83429 468.009399 128.048889 468.295532 C 128.170502 468.467224 128.299271 468.638916 128.428024 468.810577 C 128.664093 469.111023 128.914474 469.411469 129.164825 469.704773 C 129.279297 469.847839 129.386597 469.983734 129.508194 470.119659 C 129.830093 470.491638 130.166306 470.849304 130.502533 471.20697 C 130.552597 471.264221 130.602661 471.321442 130.652756 471.371521 C 131.053329 471.786407 131.461075 472.17984 131.875977 472.573303 C 131.954651 472.644806 132.040497 472.709198 132.119186 472.787903 C 132.462555 473.09549 132.805923 473.403076 133.156433 473.69635 C 133.2995 473.817993 133.456863 473.932434 133.599945 474.046875 C 133.89325 474.2901 134.186523 474.519012 134.486969 474.747925 C 134.665817 474.876678 134.851791 474.998291 135.03064 475.134216 C 135.309616 475.334503 135.595749 475.53479 135.881882 475.727936 C 136.082184 475.856689 136.282471 475.978302 136.475616 476.107056 C 136.761749 476.285919 137.040726 476.464722 137.326874 476.636414 C 137.541473 476.758026 137.756088 476.879639 137.963516 476.99408 C 138.249664 477.151459 138.535797 477.31601 138.829102 477.466217 C 139.050842 477.580658 139.272598 477.687958 139.494354 477.795258 C 139.787643 477.938354 140.080933 478.081421 140.374237 478.217316 C 140.603119 478.317474 140.839188 478.424774 141.075256 478.517761 C 141.368546 478.646545 141.66185 478.760986 141.96228 478.882599 C 142.20549 478.975586 142.441559 479.068573 142.69194 479.154419 C 142.992371 479.261719 143.292816 479.361877 143.593262 479.462036 C 143.843613 479.54071 144.093994 479.619385 144.344376 479.69809 C 144.651962 479.783936 144.959549 479.876923 145.274307 479.955597 C 145.524689 480.019989 145.782211 480.084381 146.032562 480.148743 C 146.354462 480.227417 146.66922 480.291809 146.983978 480.356201 C 147.241501 480.406281 147.506165 480.463501 147.763702 480.506409 C 148.085602 480.570801 148.414642 480.613708 148.736557 480.663788 C 149.001236 480.699554 149.258759 480.735321 149.523438 480.771088 C 149.85965 480.814026 150.188705 480.842621 150.524918 480.871246 C 150.789581 480.8927 151.047104 480.921326 151.311783 480.935608 C 151.655136 480.957092 152.005676 480.964233 152.356186 480.978546 C 152.62085 480.985687 152.871231 481 153.128754 481 C 153.529343 481 153.937088 480.985687 154.337677 480.971375 C 154.537979 480.964233 154.738266 480.971375 154.945724 480.957092 C 155.553757 480.921326 156.168961 480.878387 156.776993 480.814026 C 161.519699 480.298981 166.298187 479.326111 171.076645 477.888275 C 173.465897 477.165771 175.855133 476.328827 178.24437 475.363129 C 180.633621 474.404541 183.015701 473.324402 185.397781 472.115479 C 186.191818 471.714874 186.98584 471.299988 187.772705 470.870789 C 189.360764 470.01236 190.941666 469.096741 192.515411 468.131012 C 193.309433 467.644592 194.096329 467.14386 194.883209 466.628815 C 197.243835 465.09082 199.590134 463.424072 201.929306 461.621399 C 204.268463 459.825928 206.593323 457.901642 208.896729 455.841461 C 216.586639 448.974182 224.090576 440.640472 231.286896 430.740143 C 234.820679 425.868683 237.882324 420.582306 240.529099 414.981201 C 241.408981 413.114166 242.245926 411.211334 243.039948 409.272766 C 243.826813 407.34137 244.577927 405.374146 245.278961 403.385498 C 247.00293 398.52121 248.469391 393.49234 249.714081 388.363342 C 250.000214 387.190216 250.27919 386.009888 250.536713 384.82959 L 250.543869 384.822418 C 254.971832 364.871582 256.195068 343.590179 255.916092 324.361816 C 255.894623 323.35318 255.88031 322.344543 255.858856 321.35022 C 255.622787 311.156616 254.978989 301.621124 254.199265 293.244476 C 257.711578 292.772339 261.052216 291.763733 264.128204 290.2901 C 266.674805 316.256989 267.94812 353.311646 260.465637 387.025665 C 260.444183 387.118652 260.422699 387.204498 260.401245 387.290344 C 258.927673 393.885803 257.160767 400.123566 255.122055 405.98938 C 255.193588 406.189636 255.265106 406.389954 255.336655 406.583069 C 256.080597 408.528809 256.867493 410.445923 257.697296 412.334412 C 258.949127 415.152893 260.293945 417.906921 261.746124 420.575165 C 262.718964 422.349213 263.734741 424.087463 264.800598 425.782837 C 265.337097 426.634094 265.880768 427.471039 266.438751 428.293701 C 266.996704 429.123474 267.56897 429.938965 268.148407 430.740143 C 271.009766 434.667358 273.914063 438.351379 276.854126 441.792175 C 278.327698 443.516144 279.808472 445.17572 281.303528 446.778107 C 282.791443 448.380463 284.29364 449.918427 285.80304 451.3992 C 292.591583 458.080475 299.55188 463.567139 306.59082 467.930725 C 308.15741 468.896423 309.72403 469.819214 311.297791 470.677643 C 312.077484 471.106842 312.86438 471.521729 313.651245 471.929474 C 323.09375 476.765167 332.629242 479.64801 342.03595 480.749634 C 342.043121 480.749634 342.043121 480.749634 342.043121 480.749634 C 342.679749 480.828308 343.309265 480.878387 343.938782 480.914154 C 344.139069 480.928467 344.339355 480.928467 344.546814 480.935608 C 344.968872 480.949921 345.39093 480.971375 345.805817 480.971375 C 345.991791 480.971375 346.170654 480.957092 346.349457 480.949921 C 346.771545 480.94278 347.200745 480.935608 347.622772 480.914154 C 347.858856 480.899841 348.087738 480.871246 348.323792 480.856934 C 348.681488 480.821167 349.046326 480.792542 349.403992 480.749634 C 349.661499 480.72818 349.904724 480.685242 350.15509 480.649475 C 350.491272 480.599426 350.834656 480.556488 351.163727 480.499268 C 351.421234 480.449188 351.678772 480.399109 351.929108 480.341888 C 352.251007 480.277496 352.572937 480.213135 352.887695 480.141602 C 353.145233 480.077209 353.40274 480.012817 353.660278 479.941284 C 353.967834 479.86261 354.275452 479.783936 354.575897 479.690918 C 354.833405 479.612244 355.090942 479.533539 355.341278 479.447693 C 355.641724 479.354706 355.935059 479.254578 356.228333 479.154419 C 356.478699 479.061432 356.729095 478.968445 356.979431 478.868286 C 357.272705 478.760986 357.551697 478.646545 357.830688 478.524902 C 358.088196 478.424774 358.331421 478.310303 358.581787 478.203003 C 358.853638 478.081421 359.125458 477.945496 359.397278 477.816742 C 359.640503 477.695129 359.890869 477.580658 360.126923 477.451904 C 360.398773 477.308838 360.656311 477.165771 360.920959 477.022705 C 361.157013 476.88678 361.393066 476.758026 361.62915 476.61496 C 361.886658 476.464722 362.137054 476.307373 362.394592 476.149994 C 362.616302 476.006927 362.852386 475.863861 363.074127 475.713623 C 363.324493 475.541931 363.567719 475.37027 363.810944 475.191437 C 364.032684 475.041199 364.247284 474.890991 364.461884 474.726471 C 364.71228 474.547638 364.941193 474.354492 365.184418 474.168488 C 365.384674 474.003967 365.599274 473.839447 365.799591 473.667755 C 366.042816 473.474609 366.271729 473.267151 366.50061 473.059723 C 366.693756 472.888031 366.886902 472.723511 367.080048 472.544678 C 367.323273 472.322906 367.552155 472.086853 367.79538 471.8508 C 367.9599 471.686249 368.131592 471.52887 368.288971 471.357208 C 368.682434 470.956604 369.054382 470.548859 369.419189 470.126831 C 369.562286 469.96228 369.698181 469.790619 369.834106 469.626068 C 370.063019 469.361389 370.28479 469.089569 370.49939 468.817749 C 370.656769 468.617462 370.806976 468.410004 370.957214 468.209717 C 371.143188 467.952179 371.329163 467.701813 371.507996 467.444305 C 371.658234 467.229675 371.808441 467.007935 371.951508 466.786163 C 372.116058 466.535797 372.28775 466.27829 372.445099 466.020752 C 372.588196 465.79187 372.724091 465.555786 372.860016 465.326874 C 373.010223 465.069366 373.160461 464.804688 373.303497 464.54718 C 373.439423 464.303955 373.561035 464.067871 373.682648 463.824646 C 373.825714 463.559998 373.961639 463.288147 374.090393 463.016327 C 374.212006 462.773102 374.319305 462.522736 374.433777 462.279541 C 374.555359 462.000549 374.676941 461.728729 374.791412 461.449738 C 374.898712 461.1922 374.99173 460.941833 375.091858 460.684326 C 375.199158 460.398193 375.306458 460.119202 375.406616 459.825928 C 375.499603 459.575531 375.585449 459.310852 375.671295 459.053345 C 375.764313 458.76004 375.850128 458.466766 375.935974 458.173462 C 376.014648 457.908813 376.086212 457.651276 376.157715 457.386597 C 376.23642 457.086151 376.307922 456.778564 376.379486 456.478119 C 376.436707 456.21344 376.493958 455.948761 376.551178 455.684082 C 376.608368 455.369324 376.665619 455.054596 376.722839 454.739838 C 376.765778 454.475159 376.808685 454.21048 376.851593 453.945801 C 376.894531 453.623901 376.930267 453.294861 376.966064 452.96579 C 377.001831 452.708252 377.030457 452.443604 377.05191 452.178925 C 377.080505 451.842712 377.094849 451.499359 377.116302 451.155975 C 377.130585 450.905609 377.152039 450.648071 377.15921 450.390564 C 377.166351 450.025726 377.166351 449.660919 377.15921 449.296082 C 377.15921 449.060028 377.166351 448.816833 377.15921 448.573608 C 377.144867 448.165863 377.116302 447.750946 377.087677 447.343201 C 377.080505 447.135773 377.073364 446.935455 377.05191 446.735168 C 377.001831 446.119965 376.930267 445.49762 376.837311 444.875275 L 376.207794 440.526001 C 376.179169 440.347168 376.172058 440.175507 376.164886 440.003815 C 376.164886 439.946594 376.172058 439.896515 376.172058 439.846436 C 376.179169 439.724823 376.18634 439.60321 376.193512 439.48877 C 376.200623 439.431549 376.207794 439.374329 376.222107 439.317078 C 376.23642 439.202637 376.265015 439.095337 376.29364 438.980865 C 376.300812 438.937958 376.315094 438.887878 376.329407 438.83783 C 376.372314 438.687592 376.429565 438.537354 376.493958 438.387146 C 376.493958 438.380005 376.501068 438.380005 376.501068 438.372833 C 376.56546 438.229767 376.636993 438.101013 376.715668 437.97226 C 376.737152 437.929321 376.765778 437.893555 376.794403 437.850647 C 376.851593 437.757629 376.915985 437.671814 376.980377 437.585968 C 377.016113 437.54303 377.05191 437.500122 377.087677 437.457214 C 377.15921 437.37851 377.230713 437.292664 377.309448 437.22113 C 377.345184 437.185364 377.37381 437.149597 377.409576 437.121002 C 377.524048 437.013702 377.638458 436.913544 377.767242 436.820557 C 377.774384 436.813385 377.788696 436.806244 377.803009 436.799103 C 377.91745 436.720398 378.039093 436.641724 378.160675 436.57019 C 378.203613 436.548706 378.246521 436.527252 378.289429 436.505798 C 378.389587 436.455719 378.482574 436.40564 378.582703 436.369873 C 378.632813 436.348419 378.682892 436.326965 378.732941 436.312653 C 378.84024 436.269745 378.94754 436.241119 379.05484 436.212524 C 379.097748 436.198212 379.140686 436.183899 379.183594 436.169586 C 379.341003 436.13382 379.491211 436.105194 379.64859 436.090912 C 379.670074 436.090912 379.691528 436.090912 379.712982 436.08374 C 379.827423 436.076599 379.934723 436.069458 380.056335 436.069458 C 380.07782 436.069458 380.099274 436.076599 380.127869 436.076599 C 380.177948 436.076599 380.235168 436.076599 380.285248 436.08374 C 380.399719 436.090912 380.507019 436.098053 380.621429 436.112366 C 380.67868 436.126678 380.735901 436.13382 380.793121 436.148132 C 380.907593 436.169586 381.022064 436.198212 381.136475 436.233978 C 381.186584 436.24826 381.236664 436.255432 381.286713 436.276886 C 381.451263 436.334106 381.615784 436.398499 381.773163 436.477173 L 386.058044 438.587433 C 386.072327 438.594604 386.079498 438.594604 386.093811 438.601746 C 386.651764 438.880737 387.216888 439.138245 387.789154 439.374329 C 387.9823 439.460144 388.175446 439.531677 388.375732 439.60321 C 388.762024 439.76059 389.141144 439.917969 389.527435 440.053894 C 389.763489 440.132568 389.98526 440.19696 390.221313 440.275635 C 390.578979 440.390106 390.929504 440.51886 391.28717 440.619019 C 391.530396 440.690552 391.773621 440.747772 392.023987 440.812164 C 392.36734 440.905151 392.710724 440.998138 393.054077 441.076813 C 393.311584 441.134064 393.569122 441.184113 393.819489 441.227051 C 394.155701 441.298584 394.491913 441.370117 394.828094 441.427338 C 395.092804 441.470276 395.357483 441.506042 395.622131 441.541809 C 395.944031 441.584717 396.273102 441.634796 396.595001 441.670563 C 396.866821 441.699158 397.138672 441.720642 397.410492 441.742096 C 397.732391 441.770691 398.04715 441.799316 398.361908 441.813629 C 398.6409 441.827942 398.91272 441.835083 399.18454 441.842255 C 399.506439 441.842255 399.83551 441.856537 400.15741 441.856537 C 400.300476 441.856537 400.436401 441.849396 400.579437 441.842255 C 400.980072 441.842255 401.380646 441.827942 401.788391 441.799316 C 401.952911 441.792175 402.117462 441.777863 402.281982 441.770691 C 402.711182 441.734955 403.133209 441.692017 403.555298 441.649109 C 403.662598 441.634796 403.777008 441.627655 403.877197 441.613342 C 404.406525 441.54895 404.928741 441.470276 405.443787 441.370117 C 405.572571 441.348663 405.708435 441.327209 405.837219 441.298584 C 406.230652 441.21991 406.624115 441.141205 407.010376 441.048218 C 407.174896 441.019592 407.339417 440.976685 407.503967 440.933746 C 407.904541 440.840759 408.298004 440.726318 408.691406 440.619019 C 408.805878 440.583252 408.92749 440.554626 409.041931 440.51886 C 409.542694 440.368652 410.036285 440.204102 410.529877 440.03244 C 410.651459 439.989502 410.76593 439.939423 410.887512 439.896515 C 411.266632 439.753448 411.638641 439.610382 412.017761 439.453003 C 412.167969 439.388611 412.325348 439.324249 412.482758 439.259857 C 412.847565 439.102478 413.205231 438.930786 413.570038 438.759125 C 413.69165 438.709045 413.813293 438.651825 413.927704 438.594604 C 414.3927 438.365692 414.857666 438.122467 415.315491 437.872101 C 415.415619 437.81488 415.515778 437.750488 415.623077 437.693268 C 415.980774 437.485809 416.331268 437.278351 416.674622 437.063751 C 416.817719 436.970764 416.967926 436.884949 417.110992 436.791931 C 417.440063 436.577332 417.761963 436.362732 418.083862 436.13382 C 418.198303 436.055115 418.319916 435.97644 418.434357 435.890594 C 418.856445 435.583008 419.278473 435.275421 419.686218 434.94635 C 419.772064 434.881958 419.850739 434.810425 419.936584 434.746063 C 420.265656 434.474243 420.587555 434.202393 420.902283 433.930573 C 421.031036 433.816132 421.152679 433.70166 421.281433 433.587219 C 421.567535 433.32254 421.853699 433.057861 422.125519 432.77887 C 422.23999 432.678711 422.34729 432.578583 422.447418 432.464111 C 422.819397 432.099304 423.184235 431.713013 423.53476 431.31958 C 423.59198 431.255188 423.656372 431.183655 423.713562 431.112122 C 424.006897 430.783081 424.292999 430.439697 424.571991 430.096344 C 424.679291 429.96759 424.786591 429.831665 424.886749 429.69574 C 425.129944 429.388153 425.365997 429.073425 425.59494 428.751526 C 425.687927 428.629883 425.780914 428.501129 425.86676 428.372375 C 426.174377 427.936035 426.474823 427.492493 426.760925 427.034698 C 426.796722 426.977448 426.832458 426.913086 426.868225 426.855835 C 427.118622 426.455261 427.354675 426.040344 427.583588 425.625458 C 427.669434 425.47522 427.748108 425.325012 427.826813 425.181946 C 428.012787 424.82428 428.198761 424.466614 428.377594 424.101776 C 428.449158 423.95871 428.51355 423.808502 428.585052 423.665436 C 428.821106 423.164673 429.042877 422.656799 429.250305 422.141754 C 429.264648 422.105988 429.278931 422.070221 429.293243 422.041595 C 429.486359 421.555176 429.665222 421.061584 429.836914 420.567993 C 429.886993 420.403473 429.944214 420.246094 429.994293 420.081573 C 430.123047 419.688141 430.244659 419.280396 430.359131 418.879822 C 430.402039 418.715271 430.452087 418.550751 430.494995 418.38623 C 430.645233 417.835388 430.781158 417.277435 430.89563 416.70517 C 432.36203 409.701965 432.877075 402.3125 432.347748 394.608276 C 432.233276 392.898621 432.068756 391.16748 431.839874 389.429199 C 431.625275 387.683777 431.346283 385.931213 431.024384 384.157166 C 430.695313 382.383118 430.316193 380.594757 429.879822 378.799255 C 429.443451 376.996582 428.957031 375.179626 428.40625 373.355499 C 424.314453 359.656738 417.089539 345.228302 406.295044 330.370667 C 404.528137 327.938538 402.632507 325.585022 400.600922 323.310242 C 399.248901 321.793732 397.846863 320.312988 396.387573 318.86084 C 394.935394 317.415833 393.426056 315.999451 391.88092 314.611725 C 390.328613 313.231079 388.733398 311.879089 387.095306 310.562866 C 381.365417 305.948944 375.134796 301.728424 368.589417 297.872742 L 368.582245 297.865601 C 340.612457 281.384125 306.977112 271.569641 282.641205 266.09729 C 282.99176 264.144409 283.184875 262.141479 283.184875 260.08844 C 283.184875 258.614807 283.077576 257.169861 282.891571 255.746323 C 308.379181 261.347443 344.003174 271.591125 373.739868 289.109802 C 373.818542 289.159912 373.904388 289.209961 373.975922 289.252869 C 379.784485 292.693665 385.163879 296.29184 390.114014 300.047363 C 390.707733 300.018768 391.308624 299.997314 391.902405 299.961548 C 392.26004 299.940063 392.624878 299.91861 392.989685 299.897156 C 394.212921 299.804169 395.428986 299.711151 396.645111 299.589569 C 396.723785 299.582397 396.809631 299.575256 396.888275 299.568115 C 398.175903 299.439331 399.449219 299.281952 400.715363 299.110291 C 401.058746 299.060211 401.4021 299.010132 401.745483 298.960052 C 402.761261 298.817017 403.769897 298.652466 404.771362 298.480774 C 405.064636 298.430725 405.3508 298.380615 405.636932 298.330566 C 406.881622 298.101624 408.112 297.851288 409.342377 297.579468 C 409.599915 297.522217 409.857422 297.457825 410.11496 297.393433 C 411.109283 297.164551 412.096466 296.921326 413.083649 296.656677 C 413.41983 296.570801 413.756042 296.477844 414.092255 296.384827 C 415.301178 296.048645 416.50293 295.69809 417.69043 295.311829 C 440.788788 287.807922 458.393311 277.24231 470.926056 264.766785 C 478.444305 257.277161 484.131287 249.107941 488.087128 240.49527 C 489.975616 236.382019 490.898407 232.125793 490.96991 227.94104 C 490.991394 226.746399 490.941345 225.55896 490.826874 224.378632 C 490.655182 222.611725 490.333282 220.873444 489.868317 219.178101"/>
    </g>
</svg>
