<svg xmlns="http://www.w3.org/2000/svg" width="250" height="249" fill="none" viewBox="0 0 250 249">
<!-- SVG created with Arrow, by QuiverAI (https://quiver.ai) -->
  <g clip-path="url(#clip0_93:1089)">
    <path d="m249.9 247.9h-249.8v0.76h249.8v-0.76z" fill="#F1F2F2"/>
    <path d="m46.93-0.27c-0.57 7.4 0.95 15.33 10.8 22.13 7.25 5.16 11 8.03 10.94 15.2" stroke="#998DD9" stroke-miterlimit="10" stroke-width=".75"/>
    <path d="m58.95-0.42c-2.78 6.21-1.87 15.29 8.66 27.04" stroke="#998DD9" stroke-miterlimit="10" stroke-width=".75"/>
    <path d="m77.32-0.42c-1.52 7.13-7.86 10.83-10.24 17.61-0.91 2.87-0.76 6.6 1.18 10.53" stroke="#998DD9" stroke-miterlimit="10" stroke-width=".75"/>
    <path d="m180-0.28c-0.63 4.97 1.52 8.03 2.95 10.1-8.74 5.99-8.04 15.44-6.87 20.39" stroke="#998DD9" stroke-miterlimit="10" stroke-width=".75"/>
    <path d="m199.1-0.62c-2.43 8.03-8.09 11.77-14.19 16.08-6.09 4.31-9.69 9.01-8.78 17.48l0.98 5.62" stroke="#998DD9" stroke-miterlimit="10" stroke-width=".75"/>
    <path d="m120-0.39c-5.19 12.27-12.91 20.45-25.11 21.91-13.26 1.67-24.75 12.39-26.42 25.2l-0.47 2.18" stroke="#998DD9" stroke-miterlimit="10" stroke-width=".75"/>
    <path d="m159.7-0.47c-0.56 10.42 1.51 22.42 9.24 25.79 4.46 1.96 6.89 7.54 7.17 12.31" stroke="#998DD9" stroke-miterlimit="10" stroke-width=".75"/>
    <path d="m212.4 23.85c-4.53 1.06-8.69 5.79-8.69 12.12 0 7.71-4.8 11.11-7.23 12" stroke="#998DD9" stroke-miterlimit="10" stroke-width=".75"/>
    <path d="m249.9 46.13c-5.8 5.39-11.13 11.33-20.97 10.67-8.02-0.55-10.76-1.84-17.04-0.55" stroke="#998DD9" stroke-miterlimit="10" stroke-width=".75"/>
    <path d="m249.9 68.12c-7.72 2.87-16.13 1.96-24.53-5.32-5.29-4.74-8.09-6.24-13.96-6.24" stroke="#998DD9" stroke-miterlimit="10" stroke-width=".75"/>
    <path d="m249.9 83.36c-13.73-1.19-19.71-5.43-24.92-14.64-4.55-7.91-9.16-10.87-14.88-11.61" stroke="#998DD9" stroke-miterlimit="10" stroke-width=".75"/>
    <path d="m0.05 53.53c9.32-0.41 15.15 3.03 20.92 9.22 5.16 5.56 10.85 9.75 20.08 8.59l4.67-0.83" stroke="#998DD9" stroke-miterlimit="10" stroke-width=".75"/>
    <path d="m0.05 76.76c6.84-1.95 10.3-7.5 18.21-8.64 6.18-0.87 9.11 2.87 17.68 3.74" stroke="#998DD9" stroke-miterlimit="10" stroke-width=".75"/>
    <path d="m0.05 113.4c11.57-6.7 18-13.18 20.87-22.17 2.44-7.89 12.79-15.19 25.8-17.14" stroke="#998DD9" stroke-miterlimit="10" stroke-width=".75"/>
    <path d="m34.02 29.73c5.26 1.39 7.2 6.06 6.02 11.45-1.88 8.74 0.71 12.13 8.7 13.48" stroke="#998DD9" stroke-miterlimit="10" stroke-width=".75"/>
    <path d="m163.7 51.65c-9.04 0.97-13.99-2.48-18.54-11.03-3.85-7.29-12.01-13.35-22.68-13.21" stroke="#998DD9" stroke-miterlimit="10" stroke-width=".75"/>
    <path d="m115.6 29.31c-4.95 2.42-7.38 7.61-7.38 13.7 0 9.61-10.93 17.01-25.23 18.78" stroke="#998DD9" stroke-miterlimit="10" stroke-width=".75"/>
    <path d="m155.3 57.85c-6.38-3.93-11.35-4.73-20.5-4.45-10.96 0.31-17.8 3.78-24.17 10.42-4.43 2.87-8.61 5.44-20.55 5.09l-6.38-0.87" stroke="#998DD9" stroke-miterlimit="10" stroke-width=".75"/>
    <path d="m113.1 64.22c-5.36-2.74-10.23-2.64-17.1-1.26-3.56 0.75-7.16 0.93-11.92 0.23" stroke="#998DD9" stroke-miterlimit="10" stroke-width=".75"/>
    <path d="m157.5 58.37c-6.13-1.26-12.91 0.84-14.6 8.64-1.45 6.96-6.55 8.47-13.28 8.02" stroke="#998DD9" stroke-miterlimit="10" stroke-width=".75"/>
    <path d="m192.4 73.26c-0.35 7.03 4.11 15.95 13.53 19.42 2.38 0.87 11.26 0.73 16.79 7.9" stroke="#998DD9" stroke-miterlimit="10" stroke-width=".75"/>
    <path d="m189.9 74.61c-1.67 7.5 0.96 13.41 5.04 16.91 9.43 7.4 9.97 20.29 7.77 32.49-2.43 12.88-8.68 27.1-15.93 37.01" stroke="#998DD9" stroke-miterlimit="10" stroke-width=".75"/>
    <path d="m169.8 76.08c-3.09 6.64-9.8 10.26-10.78 19-1.67 13.19 0.09 25.23 11.75 33.36 8.13 5.35 14.16 13.99 14.54 29.33" stroke="#998DD9" stroke-miterlimit="10" stroke-width=".75"/>
    <path d="m223.6 114.5c-1.67 8.02-6.34 14.58-18.38 16.9-11.24 2.38-18.49 8.03-19.59 26.31" stroke="#998DD9" stroke-miterlimit="10" stroke-width=".75"/>
    <path d="m175.5 109.8c-7.25-0.14-16.67-2.68-21.83-8.71-4.53-5.22-12.1-5.63-14.53-5.49" stroke="#998DD9" stroke-miterlimit="10" stroke-width=".75"/>
    <path d="m122 113.5c1.21-9.25 8.65-17.89 17.61-17.93 5.09-0.04 10.19-1.55 15.85-5.56" stroke="#998DD9" stroke-miterlimit="10" stroke-width=".75"/>
    <path d="m249.9 173.4c-7.97 0.28-12.18 5.67-15.18 8.83-5.8 5.39-8.24 2.43-14-0.86-5.27-3.03-9.94-1.89-16.92-1.54" stroke="#998DD9" stroke-miterlimit="10" stroke-width=".75"/>
    <path d="m249.9 192.5c-7.72 1.81-14.42-0.07-23.38-6.33l-5.8-3.93" stroke="#998DD9" stroke-miterlimit="10" stroke-width=".75"/>
    <path d="m0.05 167.5c11.07 0.8 21.77 4.61 27.16 12.5 5.37 7.66 7.12 12.85 19.51 12.54" stroke="#998DD9" stroke-miterlimit="10" stroke-width=".75"/>
    <path d="m0.05 181.1c6.38-3.81 15-4.51 21.07-0.54 6.09 3.97 10.32 12.17 20.75 12.97" stroke="#998DD9" stroke-miterlimit="10" stroke-width=".75"/>
    <path d="m167 188.5c-9.04 4-18.19 2.86-24.78-4.18-3.27-3.57-8.73-3.6-13.26-3.19" stroke="#998DD9" stroke-miterlimit="10" stroke-width=".75"/>
    <path d="m199.4 195c4.23 2.64 6.32 7.69 6.32 13.68 0 7.4 5.14 12.28 11.42 12.18" stroke="#998DD9" stroke-miterlimit="10" stroke-width=".75"/>
    <path d="m188.1 198.6c3.52 5.39 5.95 16.28-0.67 24.55-5.36 5.94-13.96 9.64-12.24 15.26 1.18 4.17 5.03 6.01 7.01 10.49" stroke="#998DD9" stroke-miterlimit="10" stroke-width=".75"/>
    <path d="m157.9 248.7c2.25-12.95 9.97-20.35 20.09-28.52 4.97-4.75 7.02-11.18 1.9-20.34" stroke="#998DD9" stroke-miterlimit="10" stroke-width=".75"/>
    <path d="m173.9 240.9c-1.42 4.1-1 5.17 0 8.02" stroke="#998DD9" stroke-miterlimit="10" stroke-width=".75"/>
    <path d="m49.8 248.8c0.64-7.21 6.59-11.65 8.34-14.48 2.99-4.81-0.21-12.32 1.67-24.29" stroke="#998DD9" stroke-miterlimit="10" stroke-width=".75"/>
    <path d="m59.76 210.2c-2.68 8.1 1.45 16.6 7.55 25.98 3.84 5.15 5.05 7.72 4.8 12.67" stroke="#998DD9" stroke-miterlimit="10" stroke-width=".75"/>
    <path d="m47.37 201.1c-5.76-0.41-9.9 2.38-11.16 8.29-1.18 5.56-4.1 7.58-7.34 8.38" stroke="#998DD9" stroke-miterlimit="10" stroke-width=".75"/>
    <path d="m119.7 222.9c-8.84-0.14-12.92-7.07-14.39-13.75-2.09-9.61-8.32-14.06-19.6-15.97" stroke="#998DD9" stroke-miterlimit="10" stroke-width=".75"/>
    <path d="m84.28 191.5c9.94 0.7 19.49 1.7 28.04-5.23 3.95-3.97 5.39-6.06 11.15-6.06" stroke="#998DD9" stroke-miterlimit="10" stroke-width=".75"/>
    <path d="m85.48 198c19.94 4.6 33.24 6.17 48.6 5.4 13.61-0.7 25.7-5.85 32.05-12.2" stroke="#998DD9" stroke-miterlimit="10" stroke-width=".75"/>
    <path d="m228.2 154c-2.43 6.32-4.66 13.82-14.53 15.52-5.53 0.55-7.96 1.14-10.06 5.04" stroke="#998DD9" stroke-miterlimit="10" stroke-width=".75"/>
    <path d="m164.3 172.4c-8.31-2.15-15.15-7.3-15.15-14.8 0-5.45 0.83-7.12 0.83-13.21 0-7.78-7.1-10.11-16.89-12.75" stroke="#998DD9" stroke-miterlimit="10" stroke-width=".75"/>
    <path d="m148.5 150.3c-1.59 3.32-4.94 6.03-9.91 8.76-6.87 4-9.79 12.18-9.79 17.8" stroke="#998DD9" stroke-miterlimit="10" stroke-width=".75"/>
    <path d="m106.5 119.1c-11.84-1.95-19.86-7.3-19.86-19.3" stroke="#998DD9" stroke-miterlimit="10" stroke-width=".75"/>
    <path d="m41.77 125.1c-3.53-7.43-4.96-14.89 4.47-18.82 10.27-4.31 16.01-9.16 15.68-18.11" stroke="#998DD9" stroke-miterlimit="10" stroke-width=".75"/>
    <path d="m45.69 125.1c2.04-7.74 5.09-10.16 11.21-12.99 9.38-4 12.43-14.39 11.22-25.97" stroke="#998DD9" stroke-miterlimit="10" stroke-width=".75"/>
    <path d="m40.1 137.4c-5.17 11.01-14.18 21.53-40.05 22.95" stroke="#998DD9" stroke-miterlimit="10" stroke-width=".75"/>
    <path d="m42.25 141c-1.94 6.64-0.94 13.01 5.28 18.12 7.48 5.29 8.53 8.61 7.48 15.71" stroke="#998DD9" stroke-miterlimit="10" stroke-width=".75"/>
    <path d="m110 144.4c-1.94 8.89-6.26 13.35-17.27 14.54-8.55 0.8-15.39 5.81-15.87 14.9" stroke="#998DD9" stroke-miterlimit="10" stroke-width=".75"/>
    <path d="m66.22 170.3-18.74 7.68c-3.1 1.36-3.76 4.95-2.63 8.73l1.97 13.96c0 2.48 1.11 4.51 3.73 5.7l18.24 8.59c2.22 1.16 5.02 0.96 6.6-1.06l6.69-4.63c1.37-1.36 1.83-2.82 1.99-4.56l4.71-22.51c0.47-3.1-0.2-5.95-3.17-6.92l-15.82-6.58c-1.3-0.25-2.33 0.25-3.57 0.6z" fill="#5751A7"/>
    <path d="m54.27 45.56c-2.15 0.56-3.49 3.43-4.97 5.8l-6.48 9.05c-1.81 2.7-1.27 4.7-0.2 8.1l6.6 17.96c1.1 3.34 4.07 4.31 7.07 3.65l11.7-4.34c4.94-1.48 11.56-5.06 16.53-7.67 2.97-1.73 3.29-4.7 2.37-7.6l-4.18-18.09c-0.75-2.51-2.75-3.81-5.52-4.12l-21.26-3.16c-0.42 0.1-1.01 0.15-1.66 0.42z" fill="#5751A7"/>
    <path d="m187.1 34.61-19.57 4.58c-3.58 0.59-4.38 2.97-5.08 6.03l-4.07 18.8c-0.91 3.81 0.7 5.83 3.47 7.67l11.58 8.17c2.13 1.6 3.77 1.37 5.7 0.29l20.82-8.1c3.57-1.32 4.7-5.29 3.95-7.42l-10.17-27c-1.38-2.8-3.97-3.67-6.63-3.02z" fill="#5751A7"/>
    <path d="m178.1 157.2-16.65 15.82c-2.25 1.73-2.7 4.36-1.18 7.23l8.63 18.16c0.81 1.84 2.18 2.64 4.33 2.64l16.93 1.29c1.86 0 3.02-0.79 4.3-2.49l8.93-9.62c1.67-1.73 2.07-3.57 1.42-6.2l-3.04-18.94c-0.28-2.03-1.6-3.09-3.6-3.54l-15.95-4.98c-1.93-0.62-3.07-0.34-4.12 0.63z" fill="#5751A7"/>
    <path d="m112.9 110c-2.25 0-3.67 2.09-5.42 3.94l-8.65 9.62c-1.67 1.81-1.99 3.48-1.19 6.75l1.37 8.62c0.2 2.09 1.31 3.38 3.92 4.25l18.18 4.64c2.02 0.41 3.46-0.2 4.89-1.9l7.15-7.3c1.08-1.17 1.24-2.31 0.96-3.91l-1.3-15.54c-0.28-2.28-1.65-3.35-3.77-4.05l-13.1-4.91c-0.91-0.35-2.01-0.44-3.04-0.21z" fill="#5751A7"/>
    <path d="m215.9 18.11 5.67-1.56c2.31-0.49 3.17 1.36 3.17 4.49v4.73c0 2.93-1.14 4.19-3.57 3.71l-6.07-1.42c-2.38-0.7-3.08-2.05-2.38-6.05 0.28-2.57 0.98-3.54 3.18-3.9z" fill="#5751A7"/>
    <path d="m226.5 144.5 6.58-1.26c1.67-0.35 2.53 0.85 2.86 2.94l1.45 3.97c0.35 1.09 0.08 2.24-0.52 3.31l-1.86 3c-0.7 1.38-1.8 1.18-3.17 0.9l-6.13-1.52c-1.67-0.55-2.21-1.75-1.67-3.65l1.42-5.64c0.15-1.06 0.31-1.76 1.04-2.05z" fill="#5751A7"/>
    <path d="m222.3 214.8 2.53-0.59c2.25-0.45 3.16 1.15 3.46 3.42l0.59 5.19c0.16 1.66-0.3 2.86-1.53 3.73l-1.76 1.73c-0.91 0.7-1.91 0.5-3.14 0.08l-5.39-2.1c-1.83-0.8-3.16-1.86-1.93-4.99l1.47-4.24c0.59-1.46 2.53-1.78 5.7-2.23z" fill="#5751A7"/>
    <path d="m123.8 214-4.53 3.74c-1.75 1.06-1.78 2.66-0.61 5.3l2.53 5.65c0.71 1.6 2.08 2.05 3.75 1.35l6.28-2.09c1.67-0.35 2.13-1.15 2.13-3.24l0.37-5.78c0.16-1.84-1.01-2.74-2.85-3.44l-3.95-1.88c-1.17-0.52-2.09-0.32-3.12 0.39z" fill="#5751A7"/>
    <path d="m22.02 217.2c0.57-1.24 1.22-1.35 2.25-1.8l0.98-0.52c1.16-0.55 2.32-0.2 3.48 1.02l2.43 2.7-0.25-0.14c2.97 2.28 1.3 4.65 0.5 5.45l-2.97 4.14c-0.65 0.7-1.3 0.56-2.43 0.5l-4.28-0.28c-2.25-0.14-2.95-1.01-2.75-3.88-0.1-2.99 0.35-5.56 1.11-6.64l1.93-0.55z" fill="#5751A7"/>
    <path d="m23.82 23.86 5.95-3.26c2.05-1.39 3.84-1.26 4.93 0.44l0.91 2.51 0.15 0.38 0.4 1.03c1.03 2.1 0.35 3.7-1.03 5.22l-2.97 3.83c-0.96 1.1-2.15 0.75-3.58 0l-4.46-1.7c-1.67-0.87-2.37-1.83-1.97-4.25-0.08-2.09 0.2-3.45 1.67-4.2z" fill="#5751A7"/>
    <path d="m116.2 21.29-0.63 0.34-3.85 5.52c-1.05 1.46-0.77 2.46 0.45 4.3l2.04 2.66c0.91 1.29 1.91 1.09 3.48 0.61l3.85-1.19c1.93-0.55 2.39-1.75 2.11-3.59l-0.91-6.18c-0.35-1.39-1.26-2.13-3.02-2.33l-2.43-0.7c-0.61-0.08-0.89 0.15-1.09 0.56z" fill="#5751A7"/>
    <path d="m124.9 65.81-1.24 0.35-5.71 3.47c-1.76 0.8-2.18 2.53-1 4.91l3.09 6.53c0.7 1.53 1.75 2.12 3.62 1.25l5.27-1.95c1.42-0.59 1.82-1.56 1.82-3.46l0.47-6.16c0.16-1.38-0.47-1.97-1.7-2.63l-3.4-2.02c-0.35-0.29-0.77-0.49-1.22-0.29z" fill="#5751A7"/>
    <path d="m42.93 123.3-2.69 3.64-4.63 4.95c-1.23 1.6 0.3 3.88 1.67 5.41l4 3.61c1.04 0.87 2.06 0.39 3.33-0.36l6.09-3.74c1.37-0.8 1.62-1.32 1.27-3.52l-1.27-7.1c-0.45-1.32-1.51-1.39-3.02-1.67l-2.97-1.06c-0.73-0.29-1.32-0.39-1.78-0.16z" fill="#5751A7"/>
    <path d="m124.8 174.1c-1.87 0-2.52 1.56-3.33 3.71-1.06 2.09-0.41 3.55 0.96 6.25l1.42 2.1c0.91 1.35 2.28 1.25 4.09-0.07l5.07-3.86c1.52-1.06 1.42-2.36 0.51-4.81l-0.56-1.35c-0.53-1.46-1.44-1.66-3.11-1.66l-4.18-0.45c-0.28 0-0.56 0-0.87 0.14z" fill="#5751A7"/>
    <path d="m175.6 105.6 6.01-1.56c1.54-0.55 2.5-0.13 3.36 1.71l2.04 3.96c0.66 1.2 0.1 2.34-1.12 3.73l-3.22 3.19c-1.01 1-2.01 0.55-3.58 0.13l-2.69-0.7c-1.16-0.49-1.66-1.53-1.84-3.23l-0.3-4.47c-0.1-1.56 0.2-2.43 1.34-2.76z" fill="#5751A7"/>
    <path d="m216.8 105 1.94-1.52 6.79-3.16c1.67-0.8 2.92-0.35 4.2 1.39l3.22 4.1c1.06 1.36 0.71 2.71-0.33 5.16l-1.86 4.67c-0.54 1.46-1.77 1.18-3.53 0.9l-6.79-0.96c-1.43-0.29-2.13-1.16-2.51-3.07l-1.3-5.89c-0.3-0.8-0.28-1.25 0.17-1.62z" fill="#5751A7"/>
    <path d="m132.1 46.04c-2.64 3-2.04 5.37-0.31 6.38l1.46-2.38c1.06-1.77 0.41-2.84-1.15-4z" fill="#699938" opacity=".3"/>
    <path d="m137.3 48.2c-1.23 0.41-3.48 1.91-3.59 3.81l1.94-0.45c1.47-0.7 1.77-1.79 1.65-3.36z" fill="#699938" opacity=".3"/>
    <path d="m140 25.6c-2.64 3-1.27 5.42 0.8 6.22l1.76-2.09c1.06-1.77-0.53-3.19-2.56-4.13z" clip-rule="evenodd" fill="#699938" fill-rule="evenodd" opacity=".3"/>
    <path d="m144.7 30.18c-1.52-0.35-3.55 0.06-4.58 1.64l1.38 0.7c1.63 0.49 2.74-0.86 3.2-2.34z" clip-rule="evenodd" fill="#699938" fill-rule="evenodd" opacity=".3"/>
    <path d="m177.1-0.01c0.27 3.34 1.84 4.79 4.53 5.07l0.63-1.19c-1.11-2.58-2.63-4-5.16-3.88z" clip-rule="evenodd" fill="#699938" fill-rule="evenodd" opacity=".3"/>
    <path d="m206.9 35.2c1.22-2.48 3.25-2.89 5.29-2.14l0.53 0.45-0.4 0.45 0.3 0.15c-1.67 1.84-3.49 2.04-5.72 1.09z" clip-rule="evenodd" fill="#699938" fill-rule="evenodd" opacity=".3"/>
    <path d="m229.6 49.04c-2.38 2.1-1.47 4.9 0.05 6.32l1.67-1.26c1.42-1.36 0.31-3.64-1.72-5.06z" clip-rule="evenodd" fill="#699938" fill-rule="evenodd" opacity=".3"/>
    <path d="m182.1 131.1c-2.05 2.02-2.25 4.12-1.29 5.64l2.25-0.97c2.03-1.03 2.25-2.87-0.96-4.67z" clip-rule="evenodd" fill="#699938" fill-rule="evenodd" opacity=".3"/>
    <path d="m186.1 135c-2.05-0.2-4.48 0.94-5.4 2.97l1.93 0.13c2.38 0 3.34-1.29 3.47-3.1z" clip-rule="evenodd" fill="#699938" fill-rule="evenodd" opacity=".3"/>
    <path d="m211.8 121.6c-0.81 2.38 0.3 4.47 1.68 5.13l0.8-1.84c0.71-1.77-0.45-2.96-2.48-3.29z" clip-rule="evenodd" fill="#699938" fill-rule="evenodd" opacity=".3"/>
    <path d="m216.4 121.6c-1.16 1-1.87 2.46-1.44 4.19l0.81-0.7c1.59-1.16 1.69-2.3 0.63-3.49z" clip-rule="evenodd" fill="#699938" fill-rule="evenodd" opacity=".3"/>
    <path d="m211.9 164.4c-0.59 1.95-0.43 3.4 0.37 4.4l2.03-1.2c1.52-1.19 0.97-2.92-2.4-3.2z" clip-rule="evenodd" fill="#699938" fill-rule="evenodd" opacity=".3"/>
    <path d="m236.5 173.2c-2.03 1.46-2.18 3.22-1.27 4.82l0.91-0.8c1.52-1.29 1.32-2.43 0.36-4.02z" clip-rule="evenodd" fill="#699938" fill-rule="evenodd" opacity=".3"/>
    <path d="m233.1 191.6c-1.86 2.3-0.49 5.17 1.18 6.14l0.65-1.46c0.76-1.94 0.11-3.54-1.83-4.68z" clip-rule="evenodd" fill="#699938" fill-rule="evenodd" opacity=".3"/>
    <path d="m208.1 205.8c0.76 2.28 1.62 3.08 2.78 3.22l0.35-0.75 0.4 0.55c0.41-0.49 0.46-1.05 0-1.8-0.9-1.1-2.14-1.45-3.53-1.22z" clip-rule="evenodd" fill="#699938" fill-rule="evenodd" opacity=".3"/>
    <path d="m174.1 218.2c1.76 1.13 3.43 1.33 4.8 0.28l0.13-0.55 0.53-0.14c-2.15-1.84-4.29-1.71-5.46 0.41z" clip-rule="evenodd" fill="#699938" fill-rule="evenodd" opacity=".3"/>
    <path d="m175 214c1.76-0.55 3.13 0.25 3.59 2.53l-1.22 0.56c-1.47-0.36-2.27-1.42-2.37-3.09z" clip-rule="evenodd" fill="#699938" fill-rule="evenodd" opacity=".3"/>
    <path d="m137.1 196.5c-0.57 2.73 0 4.46 2.13 5.12l1.67-2.15c0.35-1.77-1.17-2.84-3.8-2.97z" clip-rule="evenodd" fill="#699938" fill-rule="evenodd" opacity=".3"/>
    <path d="m142.6 197.4c-1.38 1.46-1.93 2.52-1.28 3.71l1.28-0.8c1.23-1 1.15-2 0-2.91z" clip-rule="evenodd" fill="#699938" fill-rule="evenodd" opacity=".3"/>
    <path d="m95.01 161.7c-0.91 1.95-1.45 3.4-0.38 4.6l1.22-1.2c1.67-1.06 2.53-1.51 2.81-0.6l1.47 0.6c-0.12-2.42-2.56-4.02-5.12-3.4z" clip-rule="evenodd" fill="#699938" fill-rule="evenodd" opacity=".3"/>
    <path d="m152.1 158.8c1.52 2.02 2.89 2.96 5.03 1.76l0.35-1.41c-1.22-1.53-3.25-1.88-5.38-0.35z" clip-rule="evenodd" fill="#699938" fill-rule="evenodd" opacity=".3"/>
    <path d="m157.2 157.6c-1.86-0.45-4.12-0.17-5.69 1.49l1.27 0.7c2.25 0.35 3.62-0.45 4.42-2.19z" clip-rule="evenodd" fill="#699938" fill-rule="evenodd" opacity=".3"/>
    <path d="m10.96 93.09c1.66 1.06 4.09 1.19 6.22-0.33l-0.45-0.93c-2.03-1.3-3.85-1.16-5.77 1.26z" clip-rule="evenodd" fill="#699938" fill-rule="evenodd" opacity=".3"/>
    <path d="m15.21 89.32c1.52-0.41 2.74 0.19 3.39 2.47l-0.7 0.75c-1.76-0.2-2.67-1.34-2.69-3.22z" clip-rule="evenodd" fill="#699938" fill-rule="evenodd" opacity=".3"/>
    <path d="m42.22 101.3c-1.16 2.48 0.1 4.08 1.76 4.81l1.37-2.21c0.91-1.95-0.56-3.14-3.13-2.6z" clip-rule="evenodd" fill="#699938" fill-rule="evenodd" opacity=".3"/>
    <path d="m46.72 101.8c-1.47 0.2-2.5 1.3-3 3.32l1.22-0.07c2.03-0.55 2.23-1.75 1.78-3.25z" clip-rule="evenodd" fill="#699938" fill-rule="evenodd" opacity=".3"/>
    <path d="m70.22 120.7c1.23 2.64 2.69 4.06 4.94 4.16l0.46-1.46c-0.96-2.48-2.99-3.38-5.4-2.7z" clip-rule="evenodd" fill="#699938" fill-rule="evenodd" opacity=".3"/>
    <path d="m76.08 120.1c-1.16 1.2-1.62 2.39-1.27 3.68l1.48-0.8c1.47-1.29 1.34-2.48-0.21-2.88z" clip-rule="evenodd" fill="#699938" fill-rule="evenodd" opacity=".3"/>
    <path d="m70.17 22.01c1.57 0 2.94-1.01 3.59-2.85l-1.66-0.7c-2.38-0.55-3.76 0.25-4.41 1.7l0.7 1.13c0.46 0.75 1.05 0.95 1.78 0.72z" clip-rule="evenodd" fill="#699938" fill-rule="evenodd" opacity=".3"/>
    <path d="m82.11 30.01c-1.47 2.02-1.14 3.62 0.38 5.01l1.76-1.84c1.06-1.46 0.53-2.82-2.14-3.17z" clip-rule="evenodd" fill="#699938" fill-rule="evenodd" opacity=".3"/>
    <path d="m85.11 27.63c-1.52 1.13-2.32 2-2.32 3.29l1.16 0.27c1.86-0.27 3.08-1.07 3.74-2.59-0.53-0.87-1.33-1.24-2.58-0.97z" clip-rule="evenodd" fill="#699938" fill-rule="evenodd" opacity=".3"/>
    <path d="m92.31 99.11c-3.07 0.55-4.2 1.84-3.93 4l1.76 0.2c2.03-0.55 3.09-2.01 2.17-4.2z" clip-rule="evenodd" fill="#699938" fill-rule="evenodd" opacity=".3"/>
    <path d="m88.22 104c1.17 0.97 2.84 1.63 4.41 1.04v-0.9c-1.52-1.14-2.9-1.2-4.41-0.14z" clip-rule="evenodd" fill="#699938" fill-rule="evenodd" opacity=".3"/>
    <path d="m202.1 106.6c-1.37 0.65-3.04 1.25-5.17 3.2l1.47 0.65c2.35 0.2 3.4-1.32 3.7-3.85z" clip-rule="evenodd" fill="#699938" fill-rule="evenodd" opacity=".3"/>
    <path d="m197.7 106c1.22 0.7 2.13 1.15 3.16 0.4v-0.7c-1.16-1-2.19-0.92-3.16 0.3z" clip-rule="evenodd" fill="#699938" fill-rule="evenodd" opacity=".3"/>
    <path d="m213.9 92.89c0.57-2.42 1.63-3.58 3.49-3.03l1.47 0.45c-1.22 2.45-2.89 3.41-4.96 2.58z" clip-rule="evenodd" fill="#699938" fill-rule="evenodd" opacity=".3"/>
    <path d="m145.2 86.14c-0.91 2.09-1.36 3.62-0.3 4.82l1.86-1.84c0.86-1.52 0.3-2.39-1.56-2.98z" clip-rule="evenodd" fill="#699938" fill-rule="evenodd" opacity=".3"/>
    <path d="m19.01 148.5c0.76 3.27 1.71 4.63 3.64 4.28l0.26-1.01c0.58-2.64-0.94-4.13-3.9-3.27z" clip-rule="evenodd" fill="#699938" fill-rule="evenodd" opacity=".3"/>
    <path d="m231.4 174.5c0.45 2.35 1.16 3.45 2.73 3l0.55-1.1c-0.45-1.76-1.51-2.45-3.28-1.9z" clip-rule="evenodd" fill="#699938" fill-rule="evenodd" opacity=".3"/>
    <path d="m104.7 218.8c-0.28 2.09 0.37 3.19 1.64 3.89l0.96-2.16c0.86-1.94-0.21-2.81-2.6-1.73z" clip-rule="evenodd" fill="#699938" fill-rule="evenodd" opacity=".3"/>
    <path d="m49.5 233c1.22 2.15 2.13 3.34 3.89 3.34l0.66-2.15c-0.1-1.73-1.86-2.43-4.55-1.19z" clip-rule="evenodd" fill="#699938" fill-rule="evenodd" opacity=".3"/>
    <path d="m54.66 231.5c-0.96 1.2-1.31 2.26-0.71 3.46l1.16-0.7c1.23-1.2 0.95-2.4-0.45-2.76z" clip-rule="evenodd" fill="#699938" fill-rule="evenodd" opacity=".3"/>
    <path d="m34.38 205.5c0.9 2.27 1.76 2.68 2.9 2.51l-0.35-1.59c-0.77-1.06-1.42-1.66-2.55-0.92z" clip-rule="evenodd" fill="#699938" fill-rule="evenodd" opacity=".3"/>
    <path d="m33.85 207.9c1.38 0.2 2.41 0.75 2.87 1.55l-0.71 0.1c-1.22-0.2-2.13-0.66-2.16-1.65z" clip-rule="evenodd" fill="#699938" fill-rule="evenodd" opacity=".3"/>
    <path d="m33.53 39.45c1.28 1.66 1.93 2.99 3.49 3.51l0.66-1c-0.46-1.84-1.83-2.7-4.15-2.51z" clip-rule="evenodd" fill="#699938" fill-rule="evenodd" opacity=".3"/>
    <path d="m35.11 43.81c0.8 0.65 1.81 0.75 2.6 0l-0.15-0.7c-1.33-0.35-2.19 0-2.45 0.7z" clip-rule="evenodd" fill="#699938" fill-rule="evenodd" opacity=".3"/>
    <path d="m45.84 155.1c-0.13 1.66 1.39 2.26 3.2 1.53l0.76-1.45c-1.42-1.73-3.18-1.6-3.96-0.08z" clip-rule="evenodd" fill="#699938" fill-rule="evenodd" opacity=".3"/>
    <path d="m49.24 153.9c-0.65 1.07-1.11 1.52-0.75 2.42l0.55-0.45c0.91-0.7 0.81-1.57 0.2-1.97z" clip-rule="evenodd" fill="#699938" fill-rule="evenodd" opacity=".3"/>
  </g>
  <defs>
    <clipPath id="clip0_93:1089">
      <rect width="250" height="249" fill="#fff"/>
    </clipPath>
  </defs>
</svg>
