<svg xmlns="http://www.w3.org/2000/svg" width="200" height="200" fill="none" viewBox="0 0 200 200">
<!-- SVG created with Arrow, by QuiverAI (https://quiver.ai) -->
  <path d="m75.99 6.26c31.03 0 54.82 26.05 55.04 54.25 0.13 17.43-8.22 26.73-13.21 34.27 11.27 10.01 20.43 20.43 20.43 48.55 0 30.35-26.99 50.33-54.61 46.49-10.83-1.53-15.79-5.65-21.53-12.22-6.18 3.75-11.03 5.35-17.67 5.35-21.64 0-38.1-21.34-38.1-35.62 0-16.98 5.86-26.28 9.7-29.9-3.16-4.71-10.95-12.09-10.95-15.41 0-10.91 3.74-19.03 14.69-27.86 0.33-6.15-0.72-10.3 0.44-18.09 2.8-20.4 19.94-49.81 55.77-49.81z" fill="#F2C5CE"/>
  <path d="m143.1 12.71c29.77 0 54.69 22.88 54.69 52.3 0 12.54-5.39 22.89-11.32 31.18 8.35 9.74 11.51 22.64 11.51 36.79 0 28.57-24.33 60.76-64.53 60.76-26.52 0-40.4-14.69-45.41-20.22 6.07-7.44 12.64-16.43 13.15-28.21 0.45-10.12-1.21-15.69 0.26-22.87 8.85-2.06 15.6-7.24 20.59-19.53 2.13-5.26 4.63-12.05 6.61-21.87-2.88-10.26-2.6-9.85 0.49-10.92 4.54-0.84 8.23-0.35 12.8 0l6.64-0.34-6.64-10.44 1.16-46.63z" fill="#FAF2E6"/>
  <path d="m133.9 69.91c-21.16 0-31.25 7.8-36.97 13.33l3.06 9.15-5.06 3.61c5.72 7.18 10.15 13.43 11.42 23.79l2.51 8.19 4.08-2.76 8.78 0.55 13.88 3.89 6.35 6.04 5.71 0.87 11.72 7.89 28.87 0.52c1.5-15.8 0.7-34.9-8.15-64.46-3.31-9.48-6.18-16.5-16.51-21.9l-4.11-0.68-3.54-0.63-8.85 9.49-4.2 3.32-8.99-0.21z" fill="#F2C0D1"/>
  <path d="m57.12 76.89c-0.16-4.6 1.64-10.68 2.95-14.09-2.59 2.45-5.18 3.36-7.16 2.95 1.47 1.21 3.22 4.54 4.21 6.67v4.47z" fill="#F9E8F3" stroke="#002B41" stroke-linecap="round" stroke-linejoin="round" stroke-width="1.2"/>
  <path d="m6.82 134.2c-5.75-18.56-5.64-38.62-0.17-52.87 6.23-15.99 17.24-22.58 27.46-25.12 3.61-1.91 7.91-5.92 9.5-11.74 2.01-7.65 6.19-11.21 11.72-11.07 8.08 0.23 13.69 5.64 13.69 11.88 0 8.2-8.73 19.7-15.89 20.07-3.06 0.16-4.92-1.69-5.92-3.16-0.96 2.13-1.38 4.7-4.76 4.58-5.22-0.19-7.84-5.05-7.84-9.61-12.99 2.53-19.89 9.57-24.71 19.47-8.72 18.4-7.09 34.2-3.08 53.06v4.51z" fill="#F9E8F3" stroke="#002B41" stroke-linecap="round" stroke-linejoin="round" stroke-width="1.2"/>
  <path d="m8.71 103.9c6.65 19.32 22.99 29.85 45.16 30.35l1.55-8.66c-13.06-3.62-29.4-10.39-28.84-36.77" stroke="#002B41" stroke-linecap="round" stroke-linejoin="round" stroke-width="1.2"/>
  <path d="m45.33 55.42c0.13 3.49 2.48 8.99 6.4 9.69" stroke="#002B41" stroke-linecap="round" stroke-linejoin="round" stroke-width="1.2"/>
  <path d="m69.03 46.8c4.98-4.58 8.22-6.61 14.04-6.2 7.34 0.51 12.79 5.71 14.14 14.31 1.13 7.31-3.23 15.1-1.43 19.3 1.47 3.82 2.13 6.6 2.44 8.51l-28.03-1.72-2.08-7.28 0.92-26.92z" fill="#6061B8" stroke="#002B41" stroke-linecap="round" stroke-linejoin="round" stroke-width="1.2"/>
  <path d="m52.07 133.7c1.63 16.23 10.99 31.12 25.24 32.52h33.08l49.12-21.21c-4.29-5.99-15.4-9.57-16.37-9.37l-3.68-0.94c-0.26-2.73-1.55-4.35-4.48-5.39-5.18-1.87-12.61-3.96-17.62-4.26-4.63-0.27-8.35 2.7-8.94 2.56-1.24-5.87-1.51-6.76-1.73-7.51l-6.88-1.89-13.5-1.76-7.6-1.59-23.9 11.19-2.74 7.65z" fill="#6061B8" stroke="#002B41" stroke-linecap="round" stroke-linejoin="round" stroke-width="1.2"/>
  <path d="m138.9 134.9c9.16 1.32 17.19 6.15 20.53 10.12h27.37c2.52 0 3.01 1.48 3.01 3.48v2.17c0 2.33-2.49 4-2.49 4 2.14 0.95 3.73 2.94 3.73 10.38-0.37 4.23-4.1 7.02-6.34 7.02h-52.03c-2.55 0-3.75-2.04-3.75-3.36 0-2.04 0.78-3.32 2.82-3.82-2.52-0.15-3.42-1.97-3.42-3.79 0-2 1.44-3.35 3.32-3.8-2.34-0.83-3.36-3.1-3.32-6.35 0.05-3.68 3.08-5.93 6.76-5.93h23.85c-3.35-3.97-10.95-8.12-19.8-9.84l-0.24-0.28z" fill="#EA9BA6" stroke="#002B41" stroke-linecap="round" stroke-linejoin="round" stroke-width="1.2"/>
  <path d="m137 151.6h49.73c2.42 0 3.63 1.33 3.63 3.64 0 2.25-2.07 3.61-3.93 3.61h-53.82c-2.25 0-3.78 1.19-3.78 3.25 0 1.83 1.33 3.22 3.43 3.22h50.06" stroke="#002B41" stroke-linecap="round" stroke-linejoin="round" stroke-width="1.2"/>
  <path d="m77.13 172.1h31.48c4.48-18.02 16.01-32.04 30.3-37.46-0.73-2.74-2.2-4.56-5.72-5.57-5.52-1.64-11.44-3.52-16.42-3.73-5.75-0.26-25.56 10.13-36.16 30.55-2.52 4.89-4.5 14.56-5 16.21h1.52z" fill="#FCEFF6" stroke="#002B41" stroke-linecap="round" stroke-linejoin="round" stroke-width="1.2"/>
  <path d="m23.59 156.2h31c0.37 4.64-3.29 10.4-6.87 12.45v3.5h-16.69v-3.55c-4.32-2.15-7.44-7.33-7.44-12.4z" fill="#6063B2" stroke="#002B41" stroke-linecap="round" stroke-linejoin="round" stroke-width="1.2"/>
  <path d="m137.9 35.06c4.58-4.73 8.57-6.54 13.44-6.34 8.06 0 12.3 7.44 12.3 13.14v0.38c0.46-0.37 1.57-0.53 2.69-0.25 3.9 1 5.1 4.03 4.98 7.12-0.21 4.81-4.23 7.15-6.77 7.01-2.61-0.14-4.51-1.96-5.87-5.1-2.24-0.34-2.56-5-5.99-6.39-2.61-0.84-10.05-0.84-12.59-5.89-1.89 1.21-3.75 4.8-2.95 7.04-2.96-2.77-2.6-7.26 0.76-10.72z" fill="#6061B8" stroke="#002B41" stroke-linecap="round" stroke-linejoin="round" stroke-width="1.2"/>
  <path d="m140.1 39.26c-3 3.45-1.24 12.17 3.02 17.84 2.37 2.87 5.64 3.28 8.02 2.17l3.55 3.75 7.95-4.24-1.57-6.72c-2.15-1.15-3.33-4.73-5.17-6.75-2.14-1.93-6.74-1.03-10.21-2.6-3.15-1.33-4.55-3.18-5.59-3.45z" fill="#FAC2AE" stroke="#002B41" stroke-linecap="round" stroke-linejoin="round" stroke-width="1.2"/>
  <path d="m155.2 54.66c-1.25 3.32-3.72 4.61-4.08 4.61-0.4 1.55-0.05 3.71 0.77 5.74l4.49 0.87 6.29-4.94c-0.3-1.55-1.02-3.35-1.99-4.87" fill="#FAC2AE"/>
  <path d="m155.2 54.66c-1.25 3.32-3.72 4.61-4.08 4.61-0.4 1.55-0.05 3.71 0.77 5.74l4.49 0.87 6.29-4.94c-0.3-1.55-1.02-3.35-1.99-4.87" stroke="#002B41" stroke-linecap="round" stroke-linejoin="round" stroke-width="1.2"/>
  <path d="m163.1 58.83c7.3 2.32 12.74 7.85 15.5 16.33 8.72 23.55 11.1 43.83 9.51 70.02-0.48 2.03-2.04 2.21-2.73 2.15l-25.1-2.3-7.68-0.57-8.13-9.25 2.27-20.75-6.69-7.55 2.71-16.74c0.24-5.79 2.85-16.88 6.53-24.85 0.98-1.51 2.41-2.94 3.31-3.21-0.17 2.13 0.32 3.11 1.55 3.61 3.55 0.97 7.99-2.6 8.95-6.89z" fill="#5959B6" stroke="#002B41" stroke-linecap="round" stroke-linejoin="round" stroke-width="1.2"/>
  <path d="m150.1 64.15c-1.98 4.58-0.92 12.51-0.22 15.64 3.94-4.25 12.91-14.41 13.12-18.99" fill="#FEF9F9"/>
  <path d="m150.1 64.15c-1.98 4.58-0.92 12.51-0.22 15.64 3.94-4.25 12.91-14.41 13.12-18.99" stroke="#002B41" stroke-linecap="round" stroke-linejoin="round" stroke-width="1.2"/>
  <path d="m117 83.96c0.26 0.65 2.12 1.21 3.18 1.58-2.31 0.84-6.41 1.72-8.94 1.38-0.83 0.37-1.2 2.09 0.37 2.98 2.41 1.71 4.14 3.81 11.29 3.7 1.86-0.04 3.22-0.39 4.18-0.66l1.17-5.22c-2.11-0.64-4.44-2.99-9.4-3.76-1.21-0.35-2.2-0.72-1.85 0z" fill="#FAC2AE" stroke="#002B41" stroke-linecap="round" stroke-linejoin="round" stroke-width="1.2"/>
  <path d="m128.1 88.04c3.18 0.57 9.01 0.8 14.38 0 2.68 5.14 4.27 9.75 4.27 14.78-5.34-0.24-12.45-3.94-20.05-7.32l1.4-7.46z" fill="#605BA7" stroke="#002B41" stroke-linecap="round" stroke-linejoin="round" stroke-width="1.2"/>
  <path d="m176.8 89.11c-2.59 14.55-12.2 26.4-31.61 27.82-2.57 0.28-5.04 0.18-6.77-0.33l-1.03-8.78c8.48-1.55 14.51-5.7 18.66-10.87 3.35-4.29 4.78-12.15 4.78-18.24" fill="#5A59B5"/>
  <path d="m176.8 89.11c-2.59 14.55-12.2 26.4-31.61 27.82-2.57 0.28-5.04 0.18-6.77-0.33l-1.03-8.78c8.48-1.55 14.51-5.7 18.66-10.87 3.35-4.29 4.78-12.15 4.78-18.24" stroke="#002B41" stroke-linecap="round" stroke-linejoin="round" stroke-width="1.2"/>
  <path d="m128.1 106.6c1.7 0.13 4.7 1.63 7.67 1.47l1.09 5.97c-3.74 1.54-6.67 3.22-10.79 2.67-3.35-0.68-5.85-2.43-6.71-4.82-0.45-1.65 0.94-2.21 2.07-1.89 2.46 0.7 5.88 0.74 7.62-0.64 0.84-0.7-1.51-1.25-2.01-2.28-0.54-0.84 0.15-0.55 1.06-0.48z" fill="#FAC2AE" stroke="#002B41" stroke-linecap="round" stroke-linejoin="round" stroke-width="1.2"/>
  <path d="m69.28 72.59c-12.21 2.48-25.52 12.95-25.52 29.83 0 14.22 11.01 28.99 26.05 28.99 8.15 0 15.11-4.13 20.03-7.59l-1.76-10.45-9.71 0.25c-7.74-0.43-15.56-5.18-15.4-16.61" fill="#5A59B5"/>
  <path d="m69.28 72.59c-12.21 2.48-25.52 12.95-25.52 29.83 0 14.22 11.01 28.99 26.05 28.99 8.15 0 15.11-4.13 20.03-7.59l-1.76-10.45-9.71 0.25c-7.74-0.43-15.56-5.18-14.79-16.64" stroke="#002B41" stroke-linecap="round" stroke-linejoin="round" stroke-width="1.2"/>
  <path d="m70.24 72.16 3.59-10.14c-1.21-1.97-0.94-6.09 1.48-6.09 1.33 0 1.21 1.55 2.5 1.7 4.3 0.44 11.2-0.12 14.18-4.66 2.28 1.21 1.66 7.62-1.05 12.96-2.93 5.85-6.12 7.98-10.12 7.91-0.46 2.3-0.83 4.67-4.93 4.67-3.27-0.29-5.77-2.92-5.65-6.35z" fill="#FAC2AE" stroke="#002B41" stroke-linecap="round" stroke-linejoin="round" stroke-width="1.2"/>
  <path d="m75.31 67.92c0.84 3.44 3.14 5.47 4.8 5.56" stroke="#002B41" stroke-linecap="round" stroke-linejoin="round" stroke-width="1.2"/>
  <path d="m95.78 89.83c2.18-3.7 4.89-5.05 7.94-4.76 5.05 0.55 9.09 3.63 9.65 8.06 0.41 3.62-2.16 7.63-6.26 10.95 3.61 3.25 8.17 5.87 7 9.43-1.98 5.44-7.05 7.43-11.09 5.91-2.97-1.01-3.88-1.31-5.11-2.21l-9.53-1.77-2.47-4.54c4.04-4.89 7.01-5.68 8.48-5.08 1.23 0.65-0.24 2.89-0.33 4.12 3.22-0.66 5.56-3.93 7.76-4.72 1.29-0.54 2.99 0.39 2.57 2.69-1.07 4.89-5.33 9.71-13.9 12.16l-2.84-6.25c1.29-0.56 2.34-3.92 4.64-6.41 2.93-3.18 4.45-1.82 3.49-0.18" fill="#FCEFF6"/>
  <path d="m95.78 89.83c2.18-3.7 4.89-5.05 7.94-4.76 5.05 0.55 5.91 6.74 2.01 11.55-4.29 5.3-9.11 3.4-10.4 0.69-1.12-2.28-0.88-5.3 0.45-7.48z" fill="#FAC2AE" stroke="#002B41" stroke-linecap="round" stroke-linejoin="round" stroke-width="1.2"/>
</svg>
