<svg xmlns="http://www.w3.org/2000/svg" width="200" height="200" viewBox="0 0 200 200">
<!-- SVG created with Arrow, by QuiverAI (https://quiver.ai) -->
  <path d="m110 162.9c-4.22-3.99-11.59-5.71-17.74-3.03-8.32 3.6-9.31 14.38-6.19 18.33 1.74 2.42-1.03 4.78-2.93 1.99-4.08-5.7-3.2-16.43 6.36-21.34 7.57-3.46 15.8-1.11 20.5 4.05z" fill="#CBB3FF"/>
  <path d="m116.9 155c-2.66 3.11-4.09 6.48-2.25 11.21 1.26 3.52 2.49 8.26 1.48 13.43l2.92-4.42c0.74-3.66 6.53-5.56 6.64-12.41-3.55 1.61-7.09 4.2-7.55 8.99-0.1-1.31 1.71-5.57 1.21-9.82-0.27-2.49-0.91-5.16-2.2-6.98h-0.25z" fill="#ABC4A9"/>
  <path d="m123.1 178.9c-3.99-1.37-6.54 2.78-8.04 5.21-3.54 5.7-9.92 11.06-18.06 12.01l0.15 0.83c7.79-0.8 14.99-5.54 19.03-11.87 1.93-2.74 4-4.69 5.74-4.03 2.08 0.76 2.73 3.65 0.68 3.7-0.85 0.03-1.73-1.62-2.46-0.24-0.67 1.33 1.08 2.2 2.15 1.86 4.53-0.84 4.44-6.41 0.81-7.47z" fill="#ABC4A9"/>
  <path d="m96.61 157.7c-10.14-0.01-16.34 8.11-19.35 15.28-3.45 9.96 4.78 24.64 19.53 24.64 10.43 0 19.6-8.59 19.6-19.8 0-10.45-9.09-20.12-19.78-20.12zm2.43 4.71c8.14-0.18 14.99 6.15 14.89 14.33-0.14 7.44-6.21 15.05-14.67 15.43-6.47 0.32-9.15-2.37-10.49-2.65 2.37 0.74 5.14 0.68 7.18 0.06 6.01-1.87 10.11-6.55 9.76-12.65-0.48-4.25-3.3-5.57-7.02-5.25 1.2 0.45 4.02 1.89 3.48 5.47-0.65 4.29-4.86 5.62-7.77 4.81-5.04-1.46-6.29-6.15-6-9.32 0.75-6.27 5.52-10.1 10.64-10.23z" fill="#554EA0"/>
  <path d="m111.2 180c1.36 0.55-0.02 4.05-2.34 7.79-2.18 3.22-5.79 7.25-13.12 6.7l-1.87-0.14c5.79-0.65 9.09-3.67 12.04-7.15 2.48-2.91 2.95-8.15 5.29-7.2z" fill="#9778E0"/>
  <path d="m111.3 175c1.42-0.28 1.76 1.51 1.31 2.56-0.54 1.28-2.45 0.84-2.5-0.49-0.04-1.02 0.22-1.83 1.19-2.07z" fill="#A596E0"/>
  <path d="m69.17 166.5c-2.04-0.03-3.06 1.89-2.82 3.76 0.29 1.82 1.57 4.52 3.92 6.44l1.2 0.9 1.29-3.02c1.43-3.47 0.43-7.56-2.25-8.11l-1.34 0.03z" fill="#A488E0"/>
  <path d="m63.46 170.2c-1.07 0.91 1.03 5.89 3.91 7.67 2.24 1.31 4.06 1.2 5.07 0.96 2.19 3.16 4.11 7.28 4.48 8.97-1.81-2-4.53-4.49-7.83-4.82-1.86-0.18-3.42-0.13-5.47 0.83 1.81 1.46 3.57 4.11 6.55 4.61 3.07 0.59 5.25-1.29 8.02 0.37 2.08 1.22 4.85 4.59 8.5 6.07-3.21-3.12-8.23-8.65-10.28-16.4 0.58-1.19 0.58-2.37 0.18-4.21-0.73-3.16-2.33-6.58-3.76-6.52-1.59 0.05-2.43 4.25-2.21 5.42-1.33-1.27-4.68-4.04-7.16-2.95z" fill="#ABC4A9"/>
  <path d="m165 81c-1.03 6.78-3.62 8.86-11.89 12.1l0.7-2.01c2.49-2.21 3.07-3.81 3.13-4.03-2.81 1.7-8.6 9.77-10.67 11.65 5.55-3.42 9.02-3.92 16.34-1.23-4.69 4.04-8.97 6.47-15.3 3.72l-2.48-0.54-3.44 1.91c3.47-0.79 5.61 0.06 7.84 4.31-2.83 0.82-5.25 0.3-6.9-2.06 1.65-1.49 2.93-2.19 3.78-2.94-6.06 1.87-10.15 4.83-21.02 5.74l2.21-1.52c10.81-2.49 20.66-8.47 26.71-20.36 2.07-3.7 5.12-4.54 10.99-4.74z" fill="#ABC4A9"/>
  <path d="m159.8 28.38c-5.8-1.03-7.44 5.46-7.39 8.64l-0.96-3.81-1.41-6.48c1.11-2.21 3.5-2.35 2.69-8.11-0.44-2.4-3.39-6.89-3.55-9.86-6.07 4.6-6.98 9.19-5.55 13.65 0.78 2.7 3.5 5.23 4.11 6.64l-0.53-12.83 0.84 7.74 7.49 24.64 0.7 4.72c-2.08-6.93-5.18-10.16-11-13.59-5.17-3.06-5.93-7.72-4.45-16.54 1.29 4.3 5.36 6.12 8.42 10.9l0.82-3.78c-0.34-3.16-0.99-4.18 1.09-6.05l-2.11 0.69c-1.65-2.79-1.76-8.21-1.11-9.76l0.28 3.37c1.15 3.16 1.77 4.72 3.16 5.45 1.39-1.72 2.43-3.74 0.95-7.73" fill="#ABC4A9"/>
  <path d="m157.1 30.42c2.9-1.96 6.27 0.34 6.19 3.98-0.06 2.81-3.09 4.08-4.74 2.55-1.32-1.24-0.7-3.93 1.24-3.81 1.36 0.08 1.42 1.8 0.33 2.15 1.03 1.13 2.64-0.28 2.01-2.36-0.91-2.92-4.7-2.5-5.83 0.45-1.66 4.63-1.94 8.55-1.47 13.82l-1.57-5.5c0.15-4.22 0.66-9.08 3.84-11.28z" fill="#ABC4A9"/>
  <path d="m55.29 81.11c-5.17-2.21-15.07-5.89-18.08-20.69l-0.18-11.24c-4.1 12.44 0.18 26.6 10.7 34.31 4.46 3.12 7.93 2.17 7.93 0 0.25-0.98 0.01-1.88-0.37-2.38z" fill="#CBB3FF"/>
  <path d="m116.8 26.11c-6.09-8.83-18.8-18.21-46.77-13.95 8.09-3.15 15.84-4.97 26.32-4.63 10.42 0.34 18.88 2.5 22.62 4.69-2.62 2.17-2.73 9.5-2.17 13.89z" fill="#554EA0"/>
  <path d="m92.21 8.89c3.56-0.48 8.51-0.18 11.6 0.84 2.44 0.92 1.71 4.18-0.64 3.46-4.95-1.65-6.1-3.16-12.89-3.84l1.93-0.46z" fill="#A488E0"/>
  <path d="m135.9 9.16c3.09 1.94 4.38 4.64 4.28 7-0.16 2.3-1.49 3.76-2.5 2.65-1.39-1.65-3.13-2.8-2.51-6.7l0.73-2.95z" fill="#ABC4A9"/>
  <path d="m128.2 15.71c-8.01-0.12-10.54 5.5-11.78 10.2-7.48-9.96-21.52-13.8-34.08-12.52-19.29 0.17-27.49 6.86-35.16 15.49-1.96 0.9-3.89-0.21-6.09-0.21-3.45 0.34-5.99 3.5-7.95 6.93 3.2 1.32 6.65 0.31 10.87-1.93l1.93-2.6 1.56-0.45c-7.19 7.49-9.51 18.1-8.06 27.31 1.54 9.14 7.81 19.87 21.31 21.48 11.32 0.66 19.38-7.98 19.2-16.5-0.48-9.9-6.86-15.18-14.25-14.3-6.61 0.98-9.35 6.16-9.61 9.52-0.17 4.98 3.21 8.72 7.37 8.72 4.34-0.07 6.15-3.23 6.09-5.66-0.14-4.05-2.5-4.78-4.43-5.18 3.23-0.88 6.52 1.81 6.42 6.27-0.29 5.58-6.08 8.28-10.3 7.5-8.14-1.7-12.16-8.41-11.97-17.05 0.24-11.61 8.89-26.44 23.77-30.92l3.27-1.03-0.25 1.03c-5.79 4.3-7.77 8.04-7.89 13.34-0.05 4.92 2.58 9.06 7.95 9.06 4.41-0.09 6.27-4.05 6.22-6.5-0.19-2.82-2.27-4.57-4.2-4.35-3.3 0.4-4.03 2.91-3.7 5.12-2.18-2.35-1.54-7.35 3.02-10.93 5.72-3.89 12.86-5.43 20.68-1.53 4.71 2.43 8.98 5.85 11.73 8.49-3.87-2.27-16.65-4.2-26.02 8.8 7.46-4.34 14.12-5.88 21.61-2.87 8.38 3.44 12.88 11.67 13.08 20.43-0.3 10.16-6.6 21.05-17.39 28.95-8.51 5.95-19.09 13.95-21.94 24.68 7.19-10.55 18.5-13.44 33.83-15.39 16.44-2.05 26.9-6.01 36.45-17.6 5.6-6.71 7.55-13.42 7.23-18.85-0.94-10.89-7.39-20.36-17.96-20.02-8.74 0.34-13.24 7.49-13.17 13.6 0.24 6.84 5.27 10.58 10.88 10.58 5.31-0.06 7.99-4.24 7.47-8.6-0.48-3.47-3.15-5.59-5.7-5.45-3.3 0.19-4.94 2.12-4.88 4.66 0.15 2.55 1.89 3.21 3.75 3.29-2.42 1.26-5.25-0.91-5.36-3.7-0.06-3.21 2.94-6.58 7.29-6.61 6.8-0.06 10.97 5.75 10.94 12.43-0.17 8.34-5.29 16.29-13.83 22.4-7.32 5.32-15.41 6.45-35.93 10.39 9.1-5.36 26.02-19.56 25.55-44.61-0.23-8.61-3.97-17.61-6.28-20.96 1.65-4.25 4.55-8.33 9.95-7.8 4.53 0.5 5.41 4.59 4.75 6.69-0.78 2.43-2.87 2.88-4.31 2.43-2.57-0.87-1.79-3.47-0.66-3.75-0.98-1.37-4.02-0.42-4.26 2.12-0.32 3.7 2.78 6.56 6.8 6.37 5.87-0.39 7.39-5.81 6.73-10.07-0.95-5.32-4.86-10.22-10.29-10.34z" fill="#55479C"/>
  <path d="m145.3 31.21c1.54 0.98 2.59 2.9 3.05 5.26 0.34 1.82-0.6 2.43-2.04 0.71-1.47-1.92-3.12-5.01-2.37-6.22 0.34-0.4 0.9-0.2 1.36 0.25z" fill="#A488E0"/>
  <path d="m152.9 66.7c1.18-0.09 1.65 3.38-0.26 4.12-2.08 0.84-2.6-3.75 0.26-4.12z" fill="#C4A7EC"/>
  <path d="m150.1 73.11c-5.29 10.82-14.87 19-23.07 20.05 9.1-3.06 17-10 18.75-14.6 1.19-2.55 3-8.48-0.74-10.65-2.35-0.59-3.36 2.05-4.46 5.62-2.95 9.33-10.44 15.6-26.99 18.62 6.38-3.83 9.76-6.04 12.61-12.05 3.41-1.79 6.77-3.32 7.96-5.3 0.72-1.19-0.43-2.58-1.91-1.56-1.01 0.65-1.92 1.51-2.36 0.49-0.59-1.25 0.19-2.45-0.48-3.63-0.73-1.3-1.99-1.39-1.87 0 0.06 0.79 1.14 1.31 0.13 2.86-0.71 0.93-1 0.07-1.67-1.11-1.26-1.82-2.1-1.15-2.04 0.67 0.06 2.64-0.78 3.69-0.61 5.68 0.34 3.06 2.65 4.66 4.43 3.54-1.81 3.3-5.9 5.87-8.91 7.37-1.43-0.49-2.16-2.8-1.5-5.49-2.62 1.59-2.38 5.12-5.11 7.55-4.99 3.89-8.29 3.14-12.19 4.65 7.85-3.47 17.57-11.21 20.91-23.76 2.9-10.35 1.09-24.95-5.7-36.02-5.03-7.95-15.21-16.78-28.81-16.72-7.49 0-12.39 3.7-15.24 6.4 2.85-4.57 8.4-6.51 11.59-6.8 11.95-0.95 24.05 5.76 31.04 14.4l4.12 6.6-1.24-6.19c1.52-8.55 6.44-13.67 11.99-13.42 5.22 0.23 7.95 4.82 7.83 7.85l0.58-3.03c-1.65-4.98-5.46-7.67-9.93-7.67-7.24-0.06-10.34 5.62-11.22 9.88l-0.62 1.72c-0.66-5.05 0.7-11.72-0.66-14.02l1.26-1.36 2.9-3.16 0.41-2.48-0.91-3.56c-1.2-1.98-3.28-1.41-3.98 0.68l-0.53 1.53-1.01-2.9c-0.88-2.29-3.02-0.57-2.96 1.92l0.28 2.43-0.06 1.75c-0.06 3.02 1.87 4.68 4.82 4.86 1.6 2.11 2.19 4.17 0.99 8.97-1.15-2.59-4.48-7.01-6.62-6.52-1.95 0.55-0.68 3.24 1.63 4.61 2.31 1.32 4.22 3.35 4.94 6.37l0.25 2.08-0.23 2.85-0.32 3.21c-7.71-13.19-20.36-20.99-33.5-21.48 11.85 0.44 23.4 5.27 30.81 14.27 3.19 3.99 4.89 7.87 5.8 10.88-4.66-7.63-14.16-10.18-18.61-10.6-3.69-0.55-6.63-0.69-8.02-0.61-0.72-2.42-2.38-3.15-3.26-2.42-0.72 0.56-0.58 1.4-0.22 2.15l-3 0.22c-1.8 0.33-1.87 2.05-0.81 2.45 1.26 0.56 2.52-0.62 3.3-1.02 0.52 0.55 1.88 1.63 2.89 1.11 1.2-0.74 1.26-1.86 0.92-2.76 3.23-0.22 8.37 0.19 14 2.95 4 1.98 9.36 5.94 11.78 13.15-4.38-7.15-12.52-12.28-22.38-11.78 5.72-1.42 12.76 0.11 16.98 3.64 5.4 4.47 7.6 12.84 6.29 21.16-1.42-7.49-5.81-12.55-12.37-12.72-7.49-0.34-12.02 2.2-14.56 6.86-1.75 4.04-0.17 7.05 2.06 6.65 2.35-0.49 2.48-2.75 0.9-3.71-0.99-0.71-0.33-4.55 2.51-6.32l0.72-0.23c-1.36 1.36-1.59 3.57-0.22 4.26 1.53 0.85 2.37-1.36 2.54-2.33 0.56-1.18 2.95-1.87 5.44-1.18l1.01 0.52c-2.8-0.14-6.14 0.55-6.76 2.68-0.54 2.11 1.66 2.45 2.76 1.1 2.14-2.08 6.48-2.31 9.01 0.65l0.45 0.95c-3.47-1.17-6.79-1-9.02 1.04-1.43 1.42-0.28 2.43 1.16 2.04 2.45-0.68 6.05-0.45 8.47 1.62l0.79 1.72c-3.15-1.65-6.78-1.8-9.18-0.9-2.35 0.9-1.47 2.72 0.67 2.58 3.45-0.2 6.55 0.88 8.2 3.74l0.23 2.07c-2.2-2.79-5.44-3.69-7.76-3.2-2.49 0.59-1.97 2.8 0.23 2.94 3.3 0.34 5.69 2.06 6.35 5.49l-0.4 1.76c-1.49-2.79-3.69-3.97-5.5-3.8-1.86 0.15-2.74 2.51-0.71 2.9 2.61 0.59 3.81 3.22 2.52 7.11l-1.2 1.82c0.66-4.39-0.41-8.59-3.31-10.41-3.59-2.3-7.53-1.71-10.24 0.5-3.01 2.59-2 6.78 1 6.78 2.44-0.06 3.74-2.27 2.94-3.8-0.92-1.6-2.94-0.48-2.8 0.64-0.88-0.28-0.77-2.04 0.83-2.7 2.49-1.06 4.47 0.96 4.3 5.49-0.59 7.49-6.02 13.94-12.03 17.83 0.84-3.47 3.41-5.45 2.31-9.02-0.95-3.31-3.85-4.67-4.37-6.23-1.1 3.99-4 6.41-3.94 10.11 0.1 3.36 2.33 4.16 3.52 6.24l-0.06 4.25-11.12 15.52-0.23-4.93c0.35-1.65 2.54-3.86 2.11-6.95-0.34-2.43-0.93-4.14-2.02-2.72-0.66 0.9-1.09 2.37-1.75 0.9-1.37-3.43-3.97-3.2-4.55-0.51l0.15 2.43c-2.55-1.53-2.94 0.46-2.1 2.95 1.14 3.6 3.34 5.08 6.58 5.6l1.29 10.75-2.49-4.35c-2.3-3.52-5.02-5.73-9.41-6.07 0.66 4.77 2.59 9.17 7.28 10.89 3.94 1.42 4.23 1.98 6.22 6.69l2.14 4.52 0.81-11.21c2.35-11.32 11.9-19.4 25.94-21.61-3.47 1.6-18.91 7.77-23.71 16.91-4.78 8.95-4.06 20.43 5.8 26.6 6.22 3.52 14.68 2.23 20.08-1 6.07-3.6 9.06-9.69 10.26-18.69 1.19-6.86 5.16-9.89 8.76-9.4 3.09 0.49 3.75 3.71 1.61 4.97-1.54 0.85-2.96-0.34-2.3-1.87 0.49-1.18-1.06-2.42-2.41-1.06-1.85 2.08-0.71 5.37 3.1 5.44 4.16-0.07 5.69-3.36 5.35-5.56-0.75-3.3-3.15-4.4-6.39-4.28-3.94 0.24-6.88 3.66-8.96 8.78 0.35-6.11 2.72-11.55 11.21-14.84-6.26-1.36-13.84 0.95-16.17 7.63-1.19 3.1-0.57 5.96-1.09 7.68-2.95-6.01-7.97-8.22-14.77-7.67 2.36-2.43 4.32-4.01 6.86-4.56 1.99 0.82 5.58 3.98 9.66 0.71-0.12-1.46-2.5-1.75-4.15-1.6-2.08 0.14-3.95 0.63-5.37 0.91l2.08-1.51c4.08-1.98 6.75-2.83 7.04-8.42-4.69 0.79-8.77 2.45-9.35 7.77-5.01 2.36-13.59 5.89-16.05 14.37-2.49 8.95 3.61 15.78 9.66 15.72 5.6-0.06 8.84-4.95 8.18-8.84-0.62-3.47-3.76-5.6-6.49-4.81-1.64 0.56-2.45 1.61-2.51 2.46 1.91-1.82 5.94-1.48 6.89 2.52 0.77 3.53-1.93 6.69-5.28 6.81-6.73 0.14-8.48-6.58-7.94-10.33 1.29-6.41 6.5-10.55 15.57-12.01 8.7-1.07 23.52-2.09 35.32-11.09 7.65-5.03 12.74-13.01 15.84-27.05-6.79 12.9-16.01 20.25-32.14 23.31-6.02 1.23-6.8 1.45-6.35 2.82 0.62 1.76 4.84 0.67 6.35 0.24 7-1.72 13.8-5.02 20.1-10.34-5.16 3.27-10.46 5.05-17.08 6.27 9.1-2.69 19.52-7.43 25.01-14.7 3.55-4.66 2.77-8.19 0-14.5z" fill="#4A4294"/>
  <path d="m130 37.21c1.98-0.15 4.12 0.2 6.12 1.22 1.43 0.79 0.77 2.32-1.43 3.11-2.3 0.84-3.98 1.26-4.69 0.87 0.52-1.66 0.44-3.38 0-5.2z" fill="#ABC4A9"/>
  <path d="m127.4 37.21c1.5-0.29 2.63 1.88 1.68 3.9l-1.37 1.81c-0.48-2.5-1.63-4.49-0.31-5.71z" fill="#ABC4A9"/>
  <path d="m53.01 72.9c0.72-0.96 3.68-0.27 3.62 1.39-0.11 1.66-3.7 1.07-3.62-1.39z" fill="#C4A7EC"/>
  <path d="m47.11 70.3c-2.36-2.36-5.51-7.49-5.04-16.52 0.66-9.37 4.94-16.77 8.24-20.09l-2.6 2.43c-4.89 6.61-7.99 17.83-4.69 27.9 1.43 4.24 4.09 7.72 5.89 7.6 0.84-0.11-0.27 0.23-1.8-1.32z" fill="#9778E0"/>
  <path d="m38.62 39.14c-3.44 0.79-7.38 3.91-8.26 8.06 3.94 0 7.3-1.66 9.16-7.01 0.34-1.36-0.06-1.36-0.9-1.05z" fill="#ABC4A9"/>
  <path d="m62.3 34.61c1.81-4.55 4.81-9.8 12.38-13.48l-1.87 0.48c-6.21 3.12-9.41 8.62-10.8 12.32-2.36-0.06-4.1 1.36-5.3 3.28l-1.81 2.54 0.79 0.56 0.45 1.12c-0.52 0.56-1.3 1.08-1.82 1.93-0.34 0.79 0.32 1.69 1.23 0.85 1.01-0.96 1.67-1.51 2.3-1.16 0.88 0.51 0.76 2.12 1.48 2.86 0.73 0.79 1.83 0.45 1.6-0.71-0.23-0.96-0.84-2.14-0.44-3.44l1.43 1.17 2.26 1.02c1.01-2.69 0.58-6.77-1.88-9.34z" fill="#D7E5D3"/>
  <path d="m110.1 6.26c-1.49 1.46-0.86 4.71 0.9 6.53s5.6 2.37 7.4 0.4c1.9-2.17 1.84-6.83 0.2-9.26-1.64-2.3-3.67-1.06-4.45 0.78l-0.53 1.4c-0.88-1.66-2.46-1.1-3.52 0.15z" fill="#E4F0DB"/>
</svg>
