<svg xmlns="http://www.w3.org/2000/svg" width="200" height="200" viewBox="0 0 200 200">
<!-- SVG created with Arrow, by QuiverAI (https://quiver.ai) -->
  <path d="m185.4 7c-7.66 0-13.07 6.24-13.07 13.02v53.7c0 0.27 0.01 0.55 0.02 0.82l0.01-0.98c3.72 3.41 5.96 8.35 5.96 14.22 0 5.63-2.15 10.64-5.78 14.34l-19.15 19.92c-0.74 0.79-1.41 1.62-2.6 1.62-2.36 0-3.25-2.8-2.12-4.78l20.64-23.2c2.13-2.42 2.59-5.2 2.59-7.53 0-6.99-5.26-11.8-11.14-11.8-3.32 0-6.48 1.49-8.77 4.17l-33.82 34.92c-8.19 8.27-12.17 19.05-12.17 30.22v46.86h54.92v-32.83l24-24.44c8.44-8.39 12.08-18.39 12.08-29.89v-86.84c0.02-6.88-5.46-11.52-11.6-11.52z" fill="#5D5FB5"/>
  <path d="m82.12 114.9-34.33-34.83c-2.38-2.59-5.47-3.86-8.51-3.86-6.69 0-11.69 5.71-11.69 12.14 0 3.32 1.15 6.32 3.28 8.64l20.01 21.6c1.3 1.11 1.2 2.93 0.36 3.99-0.71 0.88-2.73 1.39-4.25 0.05l-21.07-23.1c-3.11-3.38-4.93-7.02-4.93-11.59 0-6.27 2.41-10.82 6.34-14.11v-54.01c0-7.93-5.91-12.65-12.25-12.65-7.14 0-11.59 6.45-11.59 11.95v86.07c0 11.05 4.12 21.86 12.21 30.28l23.21 24.34v32.7h54.7v-47.23c0-11.18-4.26-22.6-11.49-30.38z" fill="#5D5FB5"/>
  <path d="m100 47.12-3.59-4.25c-4.27-4.45-8-5.77-13.48-5.77-10.47 0-17.97 8.73-17.97 18.43 0 6.66 2.81 11.55 7.25 15.09l27.68 25.32 28.79-26.13c4.05-3.67 6.36-8.06 6.36-13.9 0-10.13-8.02-18.81-18.47-18.81-6.46 0-11.36 2.54-16.57 10.02z" fill="#FBC8DF"/>
</svg>
