<svg xmlns="http://www.w3.org/2000/svg" width="250" height="250" fill="none" viewBox="0 0 250 250">
<!-- SVG created with Arrow, by QuiverAI (https://quiver.ai) -->
  <path d="m237.9 73.22c4.83 6.51 8.4 18.57 8.4 32.77 0 22.91-12.45 38.5-22.43 47.54l-1.75 0.21-2.06 2.04-0.81 0.63-3.1-6.25-2.06-4.02 0.66-2.04c1.46-2.82 2.71-10.62-2.14-17.61-3.45-5.03-8.96-9.24-10.97-20.18-2.88-14.73-13.4-23.35-24.23-23.35-6.42 0-11.47 1.74-17.56 8.93l1.26-10.48c4.42-11.27 11.79-21.04 21.84-25.25-8.8-7.18-10.09-22.15-11.17-22.79-2.25-7.25 1.02-15.84 12.07-19.68 3.96-1.63 6.52-1.69 8.49-1.69 9.94 0 16.88 7.45 19.57 18.06 2.15 8.51 4.53 13.01 14.94 18.21 10.4 5.21 13.29 10.84 11.95 20.02l-0.9 4.93z" fill="#BB87C4" stroke="#00114E" stroke-linecap="round" stroke-linejoin="round" stroke-width="1.099"/>
  <path d="m173.3 31.06c1.01-1.21 3.76-0.24 5.33 0.23 7.62 2.5 16.86 8.68 18.53 20.67s1.71 19.83 11.93 26.56c6.92 4.14 17.99 5.19 25.97-2.61 4.19-4.87 5.74-14.87-1.21-22.74-5.52-6.26-15.59-7.06-19.91-16.52-1.68-3.78-2.69-13.02-9.28-19.93-4.62-4.05-8.8-4.59-13.84-4.41-8.61 0.31-18.94 7.08-19.62 16.55-0.09 1.98 0.4 4.87 1.48 6.95" stroke="#00114E" stroke-linecap="round" stroke-linejoin="round" stroke-width="1.099"/>
  <path d="m181 55.88c4.11 2.18 8.34 1.35 9.73-0.35" stroke="#00114E" stroke-linecap="round" stroke-linejoin="round" stroke-width="1.099"/>
  <path d="m221.9 100.4c3.26 9.8 0.71 20.41-2.49 26.03" stroke="#00114E" stroke-linecap="round" stroke-linejoin="round" stroke-width="1.099"/>
  <path d="m143.9 236.8c-0.77-10.89 0.85-22.84 3.44-32.09l4.19-0.49 12.72-1.46c6.59 4.67 17.65 7.33 24.34 7.1 9.25-0.32 15.21-3.05 20.64-7.2-16.08 18.71-35.35 30.52-65.33 34.14z" fill="#BB87C4" stroke="#00114E" stroke-linecap="round" stroke-linejoin="round" stroke-width="1.099"/>
  <path d="m221.6 173.6c0 20.37-13.11 36.23-33.05 36.23-19.95 0-36.07-13.56-36.07-33.93 0-15.18 12.17-42.81 27.42-47.21 2.3-0.71 6.81-0.78 9.28-0.18 16.04 4.59 32.42 22.66 32.42 45.09z" fill="url(#paint0_radial_1553_8357)" stroke="#00114E" stroke-linecap="round" stroke-linejoin="round" stroke-width="1.099"/>
  <path d="m153.2 137.6c-1.7-3.42-1.02-7.6 1.04-12.87 1.9-5.98 0-11.26-1.17-16.58-1.04-5.19 0.24-13.21 6.98-19.05 5.16-5.28 8.96-6.24 16.22-6.24 12.7 0 21.63 10.31 24.56 23.41 1.26 7.18 4.97 12.59 9.29 17.52 6.02 6.08 6.91 14.98 3.11 22.76" stroke="#00114E" stroke-linecap="round" stroke-linejoin="round" stroke-width="1.099"/>
  <path d="m160.7 99.23c3.09 5.38 9.54 9.03 15.68 10.44 9.69 2.17 14.67 9.14 14.38 17.98 7.26 2.41 13.21 7.41 18.26 13.06" stroke="#00114E" stroke-linecap="round" stroke-linejoin="round" stroke-width="1.099"/>
  <path d="m160.3 99.65c-5.41 9.11 1.39 25.04 9.59 30.23 6.14 2.8 12.69-0.67 15.26-6.91" stroke="#00114E" stroke-linecap="round" stroke-linejoin="round" stroke-width="1.099"/>
  <path d="m19.71 177.8c-10.17-14.68-15.58-31.62-15.71-52.65-0.06-11.09 1.78-21 3.93-29.96l0.95 6.16c-0.94 15.83 5.25 27.66 13.11 35.75l-0.21 0.28" fill="#BB87C4"/>
  <path d="m19.71 177.8c-10.17-14.68-15.58-31.62-15.71-52.65-0.06-11.09 1.78-21 3.93-29.96l0.95 6.16c-0.94 15.83 5.25 27.66 13.11 35.75" stroke="#00114E" stroke-linecap="round" stroke-linejoin="round" stroke-width="1.099"/>
  <path d="m82.09 85.12c-4.33-11.31-11.3-21.26-19.16-25.73 9.92-2.7 11.9-16.29 12.18-24.21 1.57-8.95-4.76-21.76-20.04-22.21-12.22-0.19-20.18 9.55-20.46 20.62-9.72-1.57-13.22 6.22-12.55 13.13 0.74 6.59 6.42 10.9 11.64 10.99-13.49 6.04-26.11 22.18-26.41 42.21-0.13 9.94 3.2 25.19 14.72 37.18l-0.35 0.34" fill="#BB87C4"/>
  <path d="m82.09 85.12c-4.33-11.31-11.3-21.26-19.16-25.73 9.92-2.7 11.9-16.29 12.18-24.21 1.57-8.95-4.76-21.76-20.04-22.21-12.22-0.19-20.18 9.55-20.46 20.62-9.72-1.57-13.22 6.22-12.55 13.13 0.74 6.59 6.42 10.9 11.64 10.99-13.49 6.04-26.11 22.18-26.41 42.21-0.13 9.94 3.2 21.55 14.31 33.99" stroke="#00114E" stroke-linecap="round" stroke-linejoin="round" stroke-width="1.099"/>
  <path d="m73.11 28.83c-2.5 4.51-5.43 7.19-14.63 8.93-6.52 1.13-9.02 5.33-9.96 10.08-1.7 6.77-7.2 9.85-13.22 9.57" stroke="#00114E" stroke-linecap="round" stroke-linejoin="round" stroke-width="1.099"/>
  <path d="m29.59 89.42c-3.71 8.2-2.42 17.79 2.39 26.16" stroke="#00114E" stroke-linecap="round" stroke-linejoin="round" stroke-width="1.099"/>
  <path d="m54.21 56.02c2.57 2.16 5.5 3.59 9.51 2.89" stroke="#00114E" stroke-linecap="round" stroke-linejoin="round" stroke-width="1.099"/>
  <path d="m124.4 143.6c12.77 4.22 18.78 5.51 27.84-2.51" stroke="#EBA8A8" stroke-linecap="round" stroke-linejoin="round" stroke-width="1.099"/>
  <path d="m124 143.6c15.2-0.3 25.3-6.63 27.48-37.59-9.16 2.71-22.9 11.04-26.87 23.9l-0.61 13.69z" stroke="#C594C4" stroke-linecap="round" stroke-linejoin="round" stroke-width="1.099"/>
  <path d="m124.2 143.8c15.1-8.04 27.76-23.43 26.28-55.1-8.47 2.89-22.82 12.42-26.49 25.11l0.21 29.99z" stroke="#C594C4" stroke-linecap="round" stroke-linejoin="round" stroke-width="1.099"/>
  <path d="m124 143.7c10.26-14.01 15.72-31.56 0.48-61.63-7.59 10.12-13.37 21.4-11.8 33.04 1.37 10.49 7.31 22 11.32 28.59z" stroke="#EBA8A8" stroke-linecap="round" stroke-linejoin="round" stroke-width="1.099"/>
  <path d="m123.8 143.8c-3.55-3.11-22.53-11.58-25.83-45.42v-10.06c8.26 2.85 21.93 11.46 26.06 24.63l-0.23 30.85z" stroke="#C594C4" stroke-linecap="round" stroke-linejoin="round" stroke-width="1.099"/>
  <path d="m123.4 143.7c-14.31 1.28-25.26-1.65-37.24-17.54" stroke="#F5B1B1" stroke-linecap="round" stroke-linejoin="round" stroke-width="1.099"/>
  <path d="m151.4 107c-10.01 2.35-23.03 11.53-27.3 23.27" stroke="#EBA8A8" stroke-linecap="round" stroke-linejoin="round" stroke-width="1.099"/>
  <path d="m90.71 106.2c11.06 1.46 25.45 10.56 32.71 33.19" stroke="#EBA8A8" stroke-linecap="round" stroke-linejoin="round" stroke-width="1.099"/>
  <path d="m40.81 207.5c-12.22-12.63-18.44-27.4-18.1-40.46 0.8-24.92 13.92-54.35 32.77-69.8 7.63-5.83 17.31-7.1 25.7-2.61 9.56 5.07 12.01 16.5 7.31 27.36-4.58 10.32-12.76 16.77-15.85 23.5-5.41 12.51 1.85 28.4 16.13 37.73 6.69 4.15 10.85 5.32 16.98 5.61 3.47-6.46 5.22-18.19-3.93-23.3-5.16-3.34-7.86-7.79-10-11.6-4.33-7.61-9.87-12.62-18.4-12.71" fill="#BB87C4"/>
  <path d="m40.81 207.5c-12.22-12.63-18.44-27.4-18.1-40.46 0.8-24.92 13.92-54.35 32.77-69.8 7.63-5.83 17.31-7.1 25.7-2.61 9.56 5.07 12.01 16.5 7.31 27.36-4.58 10.32-12.76 16.77-15.85 23.5-5.41 12.51 1.85 28.4 16.13 37.73 6.69 4.15 10.85 5.32 16.98 5.61" stroke="#00114E" stroke-linecap="round" stroke-linejoin="round" stroke-width="1.099"/>
  <path d="m60.07 189.8c7.82 13.96 16.94 22.37 31.95 22.37 12.71 0 23.17-11.2 23.17-23.35 0-9.95-3.77-19.79-12.57-22.2" stroke="#00114E" stroke-linecap="round" stroke-linejoin="round" stroke-width="1.099"/>
  <path d="m93.27 212.2c1.64 8.61 2.22 13.6 1.98 23.55-25.01-4.02-41.19-11.72-54.69-27.59" fill="#BB87C4"/>
  <path d="m93.27 212.2c1.64 8.61 2.22 13.6 1.98 23.55" stroke="#00114E" stroke-linecap="round" stroke-linejoin="round" stroke-width="1.099"/>
  <path d="m140 169.1c-0.61-6.08 3.71-12.47 10.74-12.35 7.04 0.12 11.3 8.27 11.9 10.44 0.6 2.16-0.1 4.62-0.54 5.74 4.11 1.06 9.85-1.37 10.96-8.62 0.16-2.33 1.46-3.17 2.88-2.89 2.6 0.52 2.82 5.19 2.28 8.96-0.88 5.71-3.9 11.19-11.71 11.91" fill="#F8B3A0" stroke="#00114E" stroke-linecap="round" stroke-miterlimit="10" stroke-width="1.099"/>
  <path d="m141 184.2c5.06-0.49 10.34 2.1 17.23 5.38 4.36 1.74 10.58 2.24 12.73 1.09 2.63-2.4 5.96-8.45 9-7.22 1.61 0.71 1.19 3.02 0.06 4.37 4.49-1 7.75-5.15 9.86-6.39 2.19-1.28 3.81 1.9 2.97 5.22-2.59 8.28-10.61 11.06-20.02 14.41" fill="#BB87C4" stroke="#00114E" stroke-linecap="round" stroke-linejoin="round" stroke-width="1.099"/>
  <path d="m176 174.9c5.68 1.82 9.43 4.77 11.58 8.79" stroke="#00114E" stroke-linecap="round" stroke-linejoin="round" stroke-width="1.099"/>
  <path d="m197.7 168.4c0.05 4.64-2.46 11.38-4.87 14.01" stroke="#00114E" stroke-linecap="round" stroke-linejoin="round" stroke-width="1.099"/>
  <path d="m142.3 172.1c1.62-1.18 4.37 5.06 7.46 6.8-0.59-2.32-0.06-3.6 0.84-3.6 2.31 0 4.51 8.38 6.72 11.85" fill="#F8B3A0" stroke="#00114E" stroke-linecap="round" stroke-miterlimit="10" stroke-width="1.099"/>
  <path d="m90.73 163.5c-3.55 3.05-6.65 5.52-7.52 9.82" stroke="#A566A5" stroke-linecap="round" stroke-linejoin="round" stroke-width="1.099"/>
  <defs>
    <radialGradient id="paint0_radial_1553_8357" cx="0" cy="0" r="1" gradientTransform="translate(187.2 170.1) scale(32.97 32.92)" gradientUnits="userSpaceOnUse">
      <stop stop-color="#FFB299" offset="0"/>
      <stop stop-color="#B986C4" offset=".92"/>
    </radialGradient>
  </defs>
</svg>
