<svg xmlns="http://www.w3.org/2000/svg" width="250" height="250" viewBox="0 0 250 250">
<!-- SVG created with Arrow, by QuiverAI (https://quiver.ai) -->
  <path d="m130 5.77c8.89 5.04 13.76 11.46 11.68 19.48-0.73 2.98-2.73 1.92-2.73 1.92 7.77 10.66 7.97 26.1 4.15 37.71 7.72-5.8 20.06-9.93 27.03-19.43 1.92-2.71 3.69-5.52 5.29-8.43 2.16-3.55 3.95-7.33 5.31-11.27-2.23 3.96-4.88 7.68-7.95 11.02-2.21-10.66 3.4-17.07 13.75-21.62l0.14-0.06 0.03 0.14c3.15 10.92 1.03 20.71-10.23 25.98l-0.08 0.04c-4.14 6.74-9.97 12.27-13.73 15.23l14.34-2.37c5.27-1.06 10.54-2.22 12.77-4.48-4.54 1.34-9.27 1.98-14.03 1.96 9.88-8.46 16.99-9.57 29.52-3.97l0.13 0.14c-8.26 10.01-14.27 14.02-27.88 9.33l-0.15-0.12-17.27 2.39c-3.86 0.8-5.27 2-7.46 3.57 10.66-3.7 17.27-3.05 27.14 10.86-12.67 4.91-17.61 3.33-22.61-3.18-3.46-4.44-9.87-4.11-13.86-0.4-11.8 11-19.13 25.27-16.41 53.76 6.24-11.02 14.87-20.23 23.11-25.39-7.8 2.83-15.02 8.58-20.18 15.67 0.77-18.48 11.93-26.07 29.3-26.03h6.77c-5.7 7.16-6.77 24.89-25.33 28.7-3.69 0.77-5.4 0.1-8.37 4.75-6.24 9.88-4.53 17.77-4.27 26.24-2.18 4-3.09 6.36-3.23 9.4-0.9-3.5-2.57-6.78-4.57-9.91 1.6-13.91 1.31-23.54-6.95-34.45-12.53 0.95-18.95-3.46-26.03-17.84l-4.81-6.55 9.12-0.45c15.06 0 23 8.44 25.67 19.42-5.26-5.82-9.55-8.68-19.5-10.97 9 4.37 18.71 10.66 23.25 20.54-0.7-15.59-4.95-30.16-14.11-41.38-4.57-3.7-9.76-4.45-14.74-0.54-6.24 4.94-11.94 3.53-21.81-1.52 7.43-8.46 12.93-10.32 23.49-6.46-2.53 0.74-6.65 1.61-12.14 3.26l16.24-1.23c-6.68-6.68-15.68-9.2-23.57-12.41-8.47 2.12-16.14 5.14-30-9.74 9.57-4.9 18.17-5.47 27.59 1.81l-2.66 1.22-10.56-0.48c4.52 2.55 8.78 3.9 14.37 4.08-5.59-5.95-5.85-7.7-7.74-9.97-9.16-7.15-5.41-21.53-2.84-28.59 9.16 3.66 16.13 10.48 14.16 20.11l-8.9-7.85c3.28 6.3 4.62 8.37 7.18 11.77 5.9 8.8 9.89 13.49 20.29 19.67 2.5 1.89 4.6 3.57 6.83 5.86-4.22-10.53-2.08-18.7 7.57-27.55 4.45 10.26 5.74 18.8-3.3 28.23-0.99-4.21-1.07-8.11-0.79-14.09-1.79 7.03-0.79 12.83 1.56 18.13 7.85 8.53 12.98 16.08 15.79 27.81 1.34-7.76 4.31-12.23 8.6-19.98 1.23-5.8 0.71-10.08-3.84-15.01 0.79 3.63 1.68 7.24 2.21 11.31-9.63-4.94-9.63-9.87-7.66-24.02 10.85 6.16 13.23 9.56 12.01 23.77 4.69-5.09 9.73-12.57 8.52-22.09-1.34-4.83-5.48-6.49-7.71-6.49-10.01 0.59-14.79-6.79-17.76-14.68 10.39-1.44 17.76 0.36 22.55 9.81-4.09-2.85-6.91-4.17-11.6-5.06 6.4 3.01 9.72 4.24 14.69 9.48-0.47-5.12-1-10.49-3.97-17.11-10.65-4.94-11.1-12.69-8.69-21.4h-0.13z" fill="#85AB78"/>
  <path d="m157.3 13.81c0.66 9.52-1.7 13.04-12.26 17.48-1.34-10.08 2.16-16.14 12.26-17.48z" fill="#85AB78"/>
  <path d="m162.9 28.87c6.24 7.76 5 14.41-0.95 21.89-5.54-7.85-5.8-12.2 0.95-21.89z" fill="#85AB78"/>
  <path d="m91.55 25.15c5.07 11.83 2.93 18.01-5.33 24.94-5.86-9.54-3.3-17.43 5.33-24.94z" fill="#85AB78"/>
  <path d="m124.9 178.8c3.52 13.08 10.06 27.06 33.36 28.95 6.52 0.51 6.79-0.07 12.43 3.33 2.69 1.62 5.35 2.64 8.57 2.75-3.36 1.43-5.88 0.21-9.1-1.53-3.92-2.06-6.64-2.89-18.98-2.2 3.16 3.02 7.47 3.02 13.17 6.04 3.16 2.26 4.53 4.68 5.05 9.09-4.22-7.22-9.42-8.32-16.39-9.8 0.89 5.52 2.23 10.66 5.2 14.19-3.89-2.39-5.25-6.19-6.48-11.34-2.97-7.55-13.27-9.1-23.67-19.76-1.89 10.11 2.56 13.11 11.19 19.41 6.51 5.25 7.6 10.28 5.78 19.56-0.9-9.28-4.65-14.31-11.4-19.4 1.56 5.52-0.48 10.69-4.88 15.94 4.88-12.1 0.99-18.05-5.11-26.51-3.12 5.25-4.53 8.11 1.01 16.41l-1.01 4.05c-1.6-3.7-5.45-6.7-5.1-10.95-2.45 6.1 1.44 11.18 1.44 18.73 0 2.47-0.78 6.48-1.44 8.49 0.57-11.45-6.41-15.35-4.84-24.51-5.8 3.66-8.03 8.11-9.44 17.17-1.41-9.88 2.63-14.82 8.62-21.48 3.9-5.18 6.61-12.28 6.9-15.4-4.73 5.06-9.75 9.15-16.2 12.89-4.78 3.03-4.02 10.58-8.46 15.35-1.23 1.06-1.96 1.51-3.71 1.93 4.29-3.43 4.87-7.09 5.77-11.92-7.57 0.65-12.15 3.65-16.94 8.09 4.45-8.71 6.68-9.34 17.69-12.83l1.1-2.39c-6.28 0.99-13.78-1.12-18.74 1.92-3.47 1.79-5.91 2.26-10.25 1.43 5.01-1.07 6.61-4.1 12.25-5.87 5.02-1.44 11.43-0.8 18.4-3.09 11.7-3.71 20.17-12.61 23.14-27.29 0.25 0.19 0.82 0.28 1.07 0.55z" fill="#8B6EA4"/>
  <path d="m120.9 171.1c0 16.36-10.51 28.97-24.75 31.61 1.58-8.03 1.58-21.59-3.62-28.41-4.78-6.08-12.44-7.98-25.24-17.34-13.35-8.21-14.44-10.63-19.46-21.65-6.75-13.06-8.32-15.13-9.66-27.16l-5.54-25.39c-0.3-3.78 2.11-3.05 3.45-2.61 5.54 2.07 7.85 10.4 10.08 18.79 2.11 8.32 4.37 14.73 9.04 18.54-2.57-4.66 0.25-8.28 2.81-9.16l-11.9-29.57c-0.3-5.58 0.43-6.47 2.66-6.25 3.37 0.55 5.17 5.49 5.9 8.75l3.56 26.7c2.97-0.89 5.94-0.74 8.25 1.32l-2.57-23.09c-1.41-3.96-3.38-5.76-6.35-5.76-0.26 0 0-0.14 0-0.14 2.67-1.3 5.08 0.14 7.31 5.55l3.89 22.63c1.89 0.81 3.56 2.36 4.67 3.29l-4.5-18.94c4.54-0.67 7.01 3.42 8.8 10.84l3.76 17.09c-8.71-8.09-12.6-12.79-16.62-10.65-6.94 2.46-3.67 7.76 2.85 15.21 6.11 7.06 9.92 8.85 13.04 18.06-3.53-4.41-4.43-6.21-9.82-8.91-7.61-3.73-19.31-19.88-21.97-25.18-3.75-8.17-4.48-18.83-8.04-24.52l1.69 3.27c4.01 14.73 5.12 21.25 11.63 30.74 9 14.05 15.89 28.1 38.28 37.5 12.64 5.29 24.34 9.89 25.75 27.68 1.67-3.74 2.62-7.83 2.62-12.84z" fill="#A492C1"/>
  <path d="m127 171.9c0.45-13.99 7.08-29.89 28.2-39.41 11.26-4.94 15.88-11.06 21.58-17.32 5.39-6.08 10.04-6.47 11.94-4.17 2.81 3.43-1.64 9.48-9.4 17.94-5.02 4.93-8.49 8.89-10.9 14.76 4.45-6.99 7.91-6.99 15.67-13.65 5.95-5.86 14.22-16.36 16.35-23.85l6.29-19.7c3.36-6.52 6.48-6.69 7.71-6.27 1.79 0.49 1.28 2.69 0.71 5.75l-5.54 27.71c-1.79 7.71-9.17 17.59-13.95 25.61-6.52 7.85-18.22 14.27-28.24 18.23-14.34 6.22-31.47 9.39-35.66 30.88-3.08-4.67-5-10.19-4.76-16.51z" fill="#EDB8A3"/>
  <path d="m167.7 120.7c3.53-4.09 7.42-7.83 9.55-9.52 0.66-6.29 1.66-12.15 2.5-15.79 0.33-2.77-5.95-2.48-8.19 7.32l-3.86 17.99z" fill="#C78187"/>
  <path d="m180.1 108.8c2.81-1.69 5.78-1.85 8.35-1.12l2.56-23.85c0.26-2.58 0.41-3.8-1.38-3.55-2.57 0.29-4.54 3.01-5.99 7.79l-3.54 20.73z" fill="#C78187"/>
  <path d="m189.8 108.3c2.56 0.63 3.97 2.7 3.31 7.06 4.78-5.09 6.24-14.54 9.46-26.83 1-4.09 1.35-10.8 0.83-14.95-0.45-1.3-3.26-1.44-5.4 1.92-3.53 5.19-3.07 11.75-4.89 19.56l-3.31 13.24z" fill="#C78187"/>
  <path d="m131.5 187.7c5.32 9.12 10.92 12.83 21.09 15.01-1.6-9.45-1.11-21.55 2.64-27.31 4.54-6.88 16.1-10.26 28.3-19.45 10.4-7.2 12.09-8.75 16.59-19.19 4.98-9.75 8.3-14.35 9.83-22.82l3.17-17.18-5.35 16.06c-4.69 9.63-14.56 23.45-21.75 29.63-7.3 6-13 10.68-24.2 14.05-15.59 5.52-28.88 10.25-30.32 31.2z" fill="#C78187"/>
</svg>