<svg xmlns="http://www.w3.org/2000/svg" width="250" height="250" fill="none" viewBox="0 0 250 250">
<!-- SVG created with Arrow, by QuiverAI (https://quiver.ai) -->
  <path d="m242.8 143.7c-3.17-23.66-16.13-35.64-30.66-41.89-9.32-4.03-18.3-6.2-25.17-15-9.05-11.62-12.24-25.52-12.8-31.72-1.5-10.43-5.14-20.05-13.53-26.68 8.48 3.51 13.58 3.45 19.04 5 12.14 3.54 20.42 5.7 28.32 15.5 7.84 9.73 8.9 21.47 8.89 28.41-0.39 6.12-1.81 10.53 1.83 19.54 2.1 5.42 6.11 10.02 9.49 13.26 8.93 8.63 16.11 18.95 14.59 33.58z" fill="url(#paint0_linear_37_314)"/>
  <path d="m242.7 103.4c-0.67 7.41-5.68 5.32-11.81-1.28-9.86-10.84-6.28-22.24-3.72-30.01 0.23 5.82 2.13 13.14 7.93 17.81 4.1 3.31 8.1 7.49 7.6 13.48z" fill="url(#paint1_linear_37_314)"/>
  <path d="m10.86 94.39c1.05-10.23 6.75-18.35 15.37-26.88 10.29-10.28 10.09-16.43 12.23-24.2 2.81-10.38 9.25-16.32 16.28-16.2 9.06 0.16 9.47 9.35 7.31 17.05-2.64 9.81-10.63 18.25-23.06 25.07-11.51 6.44-22.08 14.48-28.13 25.16z" fill="url(#paint2_linear_37_314)"/>
  <path d="m7.01 169.5c8.37 8.47 13.88 14.58 23.7 21.13 7.76 5.47 12.98 12.42 12.62 18.78-0.37 6.36-6.25 6.04-8.93 4.44-5.52-3.17-9.74-7.54-13.17-16.89-4.05-11.2-8.11-19.25-14.22-27.46z" fill="url(#paint3_linear_37_314)"/>
  <path d="m165.3 31.92c8.77 7.84 9.74 22.29 8.49 29.25-3.02 16.77-5.67 25.87 1.87 35.53 8.25 10.62 29.01 21.17 38.98 43.27 13.45 31.14-1.94 62.13-25.24 71.23-8.36 3.39-23.28 4.69-34.24 10.81-10.55 5.98-19.04 15.91-44.33 20.15-24.96 2.75-46.09-5.95-57.12-29.32-6.21-15.56-12.34-23.69-22.83-31.31-16.73-11.44-24.34-29.05-24.01-50.56 0.66-21.76 11.26-39.62 32.04-53.37 11.92-7.84 22.13-16.64 30.94-32.61 11.29-21.89 24.1-36.92 50.42-37.76 17.81-0.45 29.66 6.98 39.03 19.85 1.51 2.03 3.2 3.04 6 4.84z" fill="url(#paint4_linear_37_314)"/>
  <path d="m31.72 119.6c-0.37-16.55 5.29-26.86 15.55-38.24 7.8-8.56 16.19-18.84 21.85-25.2 12.87-13.83 28.65-29.26 58.1-29.84 20-0.41 30.93 10.02 34.85 18.48 3.11 6.7 5.02 13.14 3.78 21.94-1.67 12.52 0.16 21.66 11.57 33.2 10.64 10.88 22.45 19 29.39 36.35 7.5 20.46-1.96 47.8-23.64 61.12-10.09 6.12-14.93 11.66-20.26 16.4-11.73 10.38-25.19 12.24-40.35 12.6-18.88 0.23-27.22-9.47-35.65-21.46-10.9-12.19-22.4-14.21-30.17-16.93-16.73-4.4-24.66-17.88-25.02-68.42z" fill="url(#paint5_linear_37_314)"/>
  <path d="m44.82 130.5c1.99-15.81 9.07-26.24 21.16-38.34-8.25 12.52-10.45 25.83-8.52 40.86 2.55-15.86 9.01-21.16 22.25-29.62 10.63-7.31 19.57-18.29 22.36-31.4-4.16-3.1-3.79-8.05-2.59-12.71 1.63-5.8 9.31-7.19 11.61-1.22l-0.41 4.08c-0.01 1.65 2.5-0.34 6.76-1.55 11.35-2.44 24.77-1.84 34.52-12.41-7.99 12.06-16.76 15.2-30.15 15.61 14.68 2.43 29.91-5.01 37.45-18.19 2.51 5.97 1.79 19.36-7 29.79-5.11 5.6-5.33 8.94-5.45 15.3-0.15 3.05-1.52 2.9-6.19 2.39-3.83 5.8-6.75 6.66-11.56 11.87-3.39 2.3-7.9 0.87-12.81-4.59-6.27-6.36-9.66-10.32-11.48-17.48-0.29 6.36 2.66 11.96 5.69 16.01-4.01 6.12-4.49 12.09-1.98 18.45 5.65 7.69 15.28 17.35 20.23 26.36 2.12 4.26 2.01 8.81 1.81 11.38l-10.7-6.6c-0.08-6.36-1.94-11.03-4.01-10.77-1.42 0.17-2.67-0.43-3.71-1.17-5.32-1.05-7.99 3.4-9.3 7.81l0.82 3.9 6.89 7.57c4.39 7.31 8.65 15.16 15.82 17.46-3.39 2.95-5.53 7.25-6.01 11.6-8.08-7.98-14.14-21.63-18.06-28.9l-7.55-11.32c-7.99-15.56-14.05-24.47-27.6-22.63-4.95 0.71-6.15 3.61-7.4 10.31-3.3 14.88 0.91 34.61 13.73 46.41l16.47 15.53c4.6 8.9 9.81 17.48 23.13 18.09 11.97 0.25 23.31-4.92 34.87-13.33 7.02-1.6 9.31-6.96 15.37-11.85 8.44-5.98 15.67-9.06 24.66-22.81 2.96 10.43-2.07 24.33-14.56 39.9-11.73 9.93-26.15 20.31-49.1 20.81 15.63-0.71 27.51-6.83 37.93-16.43 9.65-8.36 20.44-16.21 26.1-33.68 1.68-5.97 0.63-10.27-0.15-12.02-2.75 5.8-5.98 9.91-12.55 10.17-11.35 3.56-15.53 5.58-29.46 8.55-11.87 2.75-23.93 5.25-34.57 13.81 0.83-3.51 3.91-6.4 4.89-7.11-7.99-9.42-11.26-15.4-14.46-26.18-2.47-6.9-4.82-11.85-7.9-17.45 5.47 5.47 10.01 11.83 14.2 19.15 3.43 7.01 7.65 13.08 12.01 19.72 2.29-5.31 4.06-7.76 6.88-9.51 10.14 1.37 16.51-3.63 25.5-12.98-7.54 7.7-11.42 10.75-19.81 10.75-8.78-0.3-12.72-6.2-15.68-12.28l1.08-0.52-2.08-1.33c-1.08-3.96-2.28-6.76-6.11-8.1-2.19-1.15-3.81-2.42-5.59-3.97 1.18-4.06 3.38-6.63 6.97-6.06 1.61 0.26 2.44 0.86 3.75 2.56 1.68-4.14 3.69-0.06 3.54 7.41 4.06 2.25 8.35 4.35 12.19 9.77 5.2-11.48 14.19-17.38 26.68-18.98-5.53-0.66-10.48 0.83-14.73 2.87-7.8 1.3-11.19-5.06-13.78-13.47 1.6-1.85 2.69-3.5 3.12-6.34-6.13-16.26 6.47-27.29 21.06-28.45 14.59-1.15 22.9 8.13 24.6 16.93 1.43 6.96-0.1 12.56-5 18.97-3.83 4.77-6.18 7.12-4.98 11.47 1.15 3.4 1 4.35 0.28 7.2-1.05 4.25-0.46 6.76-0.54 12.47-2.96 8.09-20.08 14.32-36.02 18.51-3.68 1.06-6.64 2.26-8.46 3.41 0.62-4.35 2.7-7.86 4.62-9.25 6.27 1.31 12.99-1.32 17.58-6.63 4.41-4.77 6.49-7.91 7.32-8.11-6.36 5.65-11.22 11.07-20.54 10.91-7.39-0.41-12.06-5.36-16.11-14.89l-1.99-2.4c-2.29-1.34-5.25-3.49-8.12-7.7 0.91-3.62 2.77-6.83 7.19-6.16 1.08 0.26 1.98 1.02 2.88 2.35 1.91-3.51 3.4 0.05 3.17 7.62 3.59 1.89 7.53 3.91 11.37 7.42 3.24-7.06 6.2-11.3 7.17-11.96-5.97-0.36-9-7.98-9.88-16.24 2.36-1.9 2.81-3.8 3.06-6.1-4.3-4.67-14.8-5.38-21.73-11.64-0.97 3.51-0.14 5.81 0.43 7.14-4.3-6.51-2.4-14.61 0.62-19.72-3.44-4.54-5.42-10.56-5.5-15.39 1.23 4.83 4.51 11.29 11.52 17.89 4.6 4.77 9.19 5.93 12.43 3.24 4.8-4.94 8.86-6.25 11.24-10.85 3.68 0.57 6.87 1.28 6.77-2.97 0.24-6.55 1.07-10.4 5.52-15.01 7.17-7.62 8.3-16.42 7.25-29.6-7.99 13.28-21 19.36-38.33 17.76 13.06-0.84 23.81-6.44 30.78-15.45-8.79 9.11-20.52 9.67-35.36 11.71-3.13 0.61-5.14 1.67-5.57 1.41 1.5-7.42-3.87-10.78-7.97-9.57-5.47 1.65-5.9 7.35-7.89 12.51-3.19 8.21-10.08 14.62-15.74 19.12-14.02 11.43-22.37 26.2-22.12 46.51-1.25-9.65-1.41-22.27 7.42-38.67-11.35 10.53-21.94 20.91-19.86 39.26z" fill="url(#paint6_linear_37_314)"/>
  <path d="m182.4 123c4.01 5.6 6.31 14.84 6.43 22.21-0.97 12.62-5.02 23.6-13.2 27.94 2.3-4.34 8.3-8.35 10.35-17.95 1.98-8.47 0.51-13.2-5.18-7.22 1.67-9.77-1.57-16.98-5.27-13.47-1.6 1.9-0.63 7.49-0.27 13.85 0.47 1.49-1.89-0.21-3.72-5.32-0.72-3.4 0.25-6.73 3.44-10.34 4.71-5.83 4.86-9.5 3.66-18.56l3.76 8.86z" fill="#fff"/>
  <path d="m155.1 122c1.66-1.96 3.87-2.65 6.13-1.36 3.43 2.05 2.53 8.23-0.28 10.92-2.19 2.15-5.11 1.74-6.15-0.36 2.55 0.82 4.46-0.52 5.65-2.51 1.67-3.05-0.3-7-3-7.05-1.04-0.06-1.72 0.05-2.35 0.36z" fill="url(#paint7_linear_37_314)"/>
  <path d="m213.5 210.3c-9.43 8.1-19.4 11.1-32.78 12.31-14.3 1.15-23.67 5.76-43.2 20.62 11.5-4.77 17.95-4.21 28.44-4.77 20.86-0.66 37.66-9.46 47.54-28.16z" fill="url(#paint8_linear_37_314)"/>
  <defs>
    <linearGradient id="paint0_linear_37_314" x1="184.3" x2="217" y1="30.94" y2="138.9" gradientUnits="userSpaceOnUse">
      <stop stop-color="#F4C7B3" offset="0"/>
      <stop stop-color="#F0B396" offset="1"/>
    </linearGradient>
    <linearGradient id="paint1_linear_37_314" x1="227.9" x2="245.3" y1="72.11" y2="108.7" gradientUnits="userSpaceOnUse">
      <stop stop-color="#F4C7B3" offset="0"/>
      <stop stop-color="#F0B396" offset="1"/>
    </linearGradient>
    <linearGradient id="paint2_linear_37_314" x1="34.92" x2="49.41" y1="24.91" y2="74.37" gradientUnits="userSpaceOnUse">
      <stop stop-color="#C9B0D8" offset="0"/>
      <stop stop-color="#BBA1D1" offset="1"/>
    </linearGradient>
    <linearGradient id="paint3_linear_37_314" x1="25.17" x2="25.17" y1="169.5" y2="214.6" gradientUnits="userSpaceOnUse">
      <stop stop-color="#A890C0" offset="0"/>
      <stop stop-color="#9778B0" offset="1"/>
    </linearGradient>
    <linearGradient id="paint4_linear_37_314" x1="109.9" x2="116.8" y1="6.903" y2="239.8" gradientUnits="userSpaceOnUse">
      <stop stop-color="#C9B0D8" offset="0"/>
      <stop stop-color="#9778B0" offset="1"/>
    </linearGradient>
    <linearGradient id="paint5_linear_37_314" x1="119.3" x2="121.3" y1="26.26" y2="226.4" gradientUnits="userSpaceOnUse">
      <stop stop-color="#9D76B2" offset="0"/>
      <stop stop-color="#70599A" offset="1"/>
    </linearGradient>
    <linearGradient id="paint6_linear_37_314" x1="120.7" x2="120.7" y1="45.63" y2="225.1" gradientUnits="userSpaceOnUse">
      <stop stop-color="#fff" offset="0"/>
      <stop stop-color="#fff" offset="1"/>
    </linearGradient>
    <linearGradient id="paint7_linear_37_314" x1="159.2" x2="159.2" y1="120" y2="132.7" gradientUnits="userSpaceOnUse">
      <stop stop-color="#916BAE" offset="0"/>
      <stop stop-color="#795995" offset="1"/>
    </linearGradient>
    <linearGradient id="paint8_linear_37_314" x1="175.5" x2="175.5" y1="210.3" y2="243.2" gradientUnits="userSpaceOnUse">
      <stop stop-color="#DD9A8F" offset="0"/>
      <stop stop-color="#D18376" offset="1"/>
    </linearGradient>
  </defs>
</svg>