<svg xmlns="http://www.w3.org/2000/svg" width="250" height="250" fill="none" viewBox="0 0 250 250">
<!-- SVG created with Arrow, by QuiverAI (https://quiver.ai) -->
  <path d="m149.7 58.73c-7.61 8.33-6.64 14.46-3.06 26.38 9.08-7.58 8.56-14.93 3.06-26.38z" fill="#7BA073"/>
  <path d="m173.3 88.34c3.66-2.28 8.04-1.88 13.18-3.3 6.3-1.79 10.6-8.28 12.07-11.51-6.43-1.39-19.77-0.89-25.25 14.81z" fill="#7BA073"/>
  <path d="m50.92 162.6c-0.3 7.86 3.89 14.24 13 16.67-1.26-9.37-3.94-13.86-13-16.67z" fill="#7BA073"/>
  <path d="m82.97 97.05c-11.23 14.11-10.47 20.66-7.62 29.03 1.32 3.5-0.19 7.23-0.19 7.23 5.34-8.18 6.06-11.79 5.05-23.84 3.09 6.77 2.23 11.2 0.5 18.82 11.32-10.44 8.51-18.4 2.26-31.24z" fill="#7BA073"/>
  <path d="m155.5 109.1c-1.22 0.88 0.54 1.83 1.68 4.21 4.22 9.02 7.8 25.62-11.46 37.09 9.53-10.78 5.36-23.4-5.67-30.73 7.02-3.92 12.88-9.87 15.09-10.62 0.21-0.05 0.38-0.04 0.36 0.05z" fill="url(#paint0_linear_960_1008)"/>
  <path d="m135.2 41.68c-13.15 4.49-26.53 14.33-27.08 30.53-0.38 10.96 4.84 19.8 14 30.2 6.12-3.18 11.54-6.88 14.56-9.68-9.45-7.44-16.61-14.75-16.86-27.09-0.19-9.21 5.42-17.36 15.38-23.96z" fill="url(#paint1_linear_960_1008)"/>
  <path d="m171.8 5.5-3.58 9.46c-0.73 1.65-1.9 1.58-3.31 1.65l-7.86-0.43 7.88 6.41c0.94 0.72 0.67 1.9 0.35 3.1l-2.68 8.98 7.58-5.76c0.93-0.65 2.27-0.63 3.12 0.13l6.48 5.63-2.09-9.39c-0.32-1.27 0.18-2.1 1.04-2.86l7.11-6.24-9.24-0.57c-1.23-0.06-1.84-0.82-2.29-2.21l-2.51-7.9z" fill="url(#paint2_linear_960_1008)"/>
  <path d="m171.8 35.72c1.19 22.55-7.11 44.29-35.17 63.04-17.94 11.59-36.71 17.4-49.83 29.34-18.88 17.57-22.03 34.78-17.36 61.14l7.6-7.12c-2.24-14.28 3.02-29.11 20.93-41.22 14.04-9.56 31.09-17.94 39.17-23.09 25.33-15.72 43.26-39.15 36.83-67.6-1.06-4.8-1.8-10.05-2.17-14.49z" fill="url(#paint3_linear_960_1008)"/>
  <path d="m172.4 38.83c4.4 18.25 1.05 40.58-23.1 59.9-13.33 11.22-26.3 17.16-38.97 24.56-22.53 13.11-38.46 28.62-36.63 62.7l2.58-2.47c-2.24-14.28 3.95-30.56 21.87-42.67 14.04-9.56 30.73-17.63 38.81-22.78 25.33-15.71 40.88-36.7 37.77-64.87-0.55-4.65-1.12-9.72-2.33-14.37z" fill="url(#paint4_linear_960_1008)"/>
  <path d="m155.7 110.3c6.14 7.48 12.27 16.92 11.66 28.64-0.97 18.8-14.47 31.55-31.22 39.78-18.38 9.35-38.83 15.97-50.47 28.55-10.93 11.72-10.68 22.54-2.77 37.24-12.82-10.28-19.01-20.56-18.41-32.28 1.07-18.16 14.71-26.2 32.8-34.78 17.41-8.47 35.41-14.45 45.76-22.43 14-10.29 21.11-20.94 17.2-37.95-0.55-2.23-2.9-5.38-4.55-6.77z" fill="url(#paint5_linear_960_1008)"/>
  <path d="m90.01 208c6.76 6.74 9.85 10.42 19.31 14.22-10.08-2.23-16.35-5.5-21.81-9.89 0.8-1.95 1.3-2.75 2.5-4.33z" fill="url(#paint6_linear_960_1008)"/>
  <path d="m118 148.5c-5.58 1.55-10.57-1-16.72 0.24-8.3 1.56-13.42 8.61-15.68 14.36 5.58-5.34 11.98-7.06 20.79-7.92-6.31 1.91-13.96 3.55-20.11 10.92 3.6-1.37 7.41-0.87 11.3-1.16 10.21-0.78 17.7-9.18 20.42-16.44z" fill="#709A6E"/>
  <defs>
    <linearGradient id="paint0_linear_960_1008" x1="149.8" x2="149.8" y1="109" y2="150.4" gradientUnits="userSpaceOnUse">
      <stop stop-color="#B5769A" offset="0"/>
      <stop stop-color="#9A89BD" offset="1"/>
    </linearGradient>
    <linearGradient id="paint1_linear_960_1008" x1="121.6" x2="121.6" y1="41.68" y2="102.4" gradientUnits="userSpaceOnUse">
      <stop stop-color="#B5769A" offset="0"/>
      <stop stop-color="#9A89BD" offset="1"/>
    </linearGradient>
    <linearGradient id="paint2_linear_960_1008" x1="171.5" x2="171.5" y1="5.5" y2="34.67" gradientUnits="userSpaceOnUse">
      <stop stop-color="#E5B09C" offset="0"/>
      <stop stop-color="#D6A8B1" offset=".4948"/>
      <stop stop-color="#9B81A8" offset="1"/>
    </linearGradient>
    <linearGradient id="paint3_linear_960_1008" x1="121.3" x2="121.3" y1="35.72" y2="189.2" gradientUnits="userSpaceOnUse">
      <stop stop-color="#705991" offset="0"/>
      <stop stop-color="#9A78B0" offset=".526"/>
      <stop stop-color="#998ABD" offset="1"/>
    </linearGradient>
    <linearGradient id="paint4_linear_960_1008" x1="124.1" x2="124.1" y1="38.83" y2="186" gradientUnits="userSpaceOnUse">
      <stop stop-color="#B9A1CB" offset="0"/>
      <stop stop-color="#9A85BD" offset=".526"/>
      <stop stop-color="#9880B8" offset="1"/>
    </linearGradient>
    <linearGradient id="paint5_linear_960_1008" x1="116" x2="116" y1="110.3" y2="244.5" gradientUnits="userSpaceOnUse">
      <stop stop-color="#9877B0" offset="0"/>
      <stop stop-color="#A396CB" offset=".526"/>
      <stop stop-color="#8A6AAA" offset="1"/>
    </linearGradient>
    <linearGradient id="paint6_linear_960_1008" x1="98.41" x2="98.41" y1="208" y2="222.3" gradientUnits="userSpaceOnUse">
      <stop stop-color="#9176AF" offset="0"/>
      <stop stop-color="#8B70AC" offset="1"/>
    </linearGradient>
  </defs>
</svg>