<svg xmlns="http://www.w3.org/2000/svg" width="256" height="256" fill="none" viewBox="0 0 256 256">
<!-- SVG created with Arrow, by QuiverAI (https://quiver.ai) -->
  <path d="m133.2 229.5c14.84-14.79 27.97-31.49 37.54-57.47 2.77-7.49 8.63-17.87 4.67-28.12-3.18-8.1-12.64-9.41-21.31-3.56-8.54 5.76-16.98 16.19-26.74 22.54-2.37-10.88-5.39-21.03-18.66-34.17-6.57-6.49-8.77-11.54-5.75-18.6 10.25-7.84 21.15-14.22 28.1-26.07 5.66-9.24 11.14-22.89 9.78-35.59-2.11-20.7-18.04-33.88-34.89-33.45-23.8-0.53-38.01 18.95-40.73 41.91-2.4 20.27-8.48 30.44-22.98 44.06-18.1 16-31.35 33.73-34.6 61.84-2.72 24.25 7.48 52.3 33.3 64.8 20.68 9.96 47.77 8.92 67.02 1.29 6.1-2.53 12.16-4.49 15.86-6.84 3.03 2.74 5.87 5.24 9.39 7.43z" fill="#A095C6"/>
  <path d="m135.1 73.73c3.09-8.32 10.64-18.47 30.02-19.94 20.31-1.52 32.06 14.97 34.94 30.96 2.89 13.12 2.12 25.06 13.14 37.17 8.49 9.37 25.26 18.2 32.97 41.12 10.22 30.93-2.67 63.22-36 72.94-22.48 6.8-50.05 4.81-73.86-6-1.06-0.49-2.09-1-3.12-1.52 15.44-14.7 27.94-31.25 37.54-56.44 3.48-9.31 9.46-19.12 4.66-28.13-4.56-8.57-13.47-10.98-18.47-15.23-17.5-12.55-25.45-30.47-21.82-54.93z" fill="#F5B3B6"/>
  <path d="m83.92 172.5c2.89 17.29 11.65 37.24 24.01 56.44 5.43-2.07 9.82-4 15.23-6.84-16.54-10.91-32.1-28.95-38.44-49l-0.8-0.6z" fill="url(#paint0_linear_171_10622)"/>
  <path d="m84.29 124.7c5.76-4.61 12.97-10.04 18.64-14.61-2.75 7.27 1.98 14 8.62 20.56 8.86 8.83 12.6 16.88 15.79 32.21l-0.81 0.41c-11.57-8.08-19.61-21.93-32.74-22.56-10.59-0.28-13.36 11.17-12.01 21.19l2.14 10.54c-10.3-2.94-16.78-11.32-16.78-21.41 0-10.99 7.53-18.75 17.15-26.33z" fill="url(#paint1_linear_171_10622)"/>
  <path d="m170.9 171.5c-10.28 21.22-22.84 35.48-47.75 50.58-17.74-11.9-32.65-29.98-38.48-49.18 13.75 3.08 24.9 0.42 42.18-10 10.36 7.28 29.19 16.52 44.05 8.6z" fill="url(#paint2_linear_171_10622)"/>
  <path d="m126.9 162.9c9.39-6.06 19.05-16.78 27.79-22.96 8.17-5.84 17.45-4.96 21.1 3.74 3.76 9.2-0.93 19.54-4.84 27.82-12.62 7.29-26 3.4-44.05-8.6z" fill="url(#paint3_linear_171_10622)"/>
  <path d="m84.31 172.5c-2.89-9.9-4.62-25.36 5.4-30.1 9.97-4.74 21.15 5.48 36.82 20.88-12.68 9.12-24.66 12.47-42.22 9.22z" fill="#F5B6B9"/>
  <defs>
    <linearGradient id="paint0_linear_171_10622" x1="83.92" x2="123.2" y1="179.2" y2="220.9" gradientUnits="userSpaceOnUse">
      <stop stop-color="#79629A" offset="0"/>
      <stop stop-color="#8975A6" offset="1"/>
    </linearGradient>
    <linearGradient id="paint1_linear_171_10622" x1="67.14" x2="127.3" y1="121" y2="162.9" gradientUnits="userSpaceOnUse">
      <stop stop-color="#77649A" offset="0"/>
      <stop stop-color="#7B669D" offset="1"/>
    </linearGradient>
    <linearGradient id="paint2_linear_171_10622" x1="84.68" x2="129.6" y1="172.9" y2="227.7" gradientUnits="userSpaceOnUse">
      <stop stop-color="#B674A6" offset="0"/>
      <stop stop-color="#B876A7" offset="1"/>
    </linearGradient>
    <linearGradient id="paint3_linear_171_10622" x1="126.9" x2="177.3" y1="150.8" y2="165.6" gradientUnits="userSpaceOnUse">
      <stop stop-color="#A498C8" offset="0"/>
      <stop stop-color="#9890C2" offset="1"/>
    </linearGradient>
  </defs>
</svg>